<svg xmlns="http://www.w3.org/2000/svg" xmlns:xlink="http://www.w3.org/1999/xlink" width="500" zoomAndPan="magnify" viewBox="0 0 375 374.999991" height="500" preserveAspectRatio="xMidYMid meet" version="1.0"><path fill="#0c3a5b" d="M 278.070312 227.050781 C 274.746094 227.050781 272.035156 224.335938 272.035156 221.011719 L 272.035156 202.898438 C 272.035156 194.734375 275.714844 191.386719 279.984375 187.542969 C 284.511719 183.4375 292.082031 176.597656 303.027344 157.609375 C 309.960938 145.628906 313.261719 137.328125 315.929688 130.652344 C 317.648438 126.3125 319.160156 122.5625 321.1875 119.046875 C 325.363281 111.804688 333.5 114.660156 339.445312 116.734375 C 349.445312 120.25 356.167969 121.808594 362.132812 113.199219 L 359.398438 103.007812 C 358.738281 100.507812 358.761719 97.535156 358.832031 94.117188 C 358.949219 85.859375 359.089844 75.601562 350.789062 67.582031 C 348.40625 65.269531 348.335938 61.449219 350.648438 59.042969 C 354.539062 55.011719 358.21875 50.105469 359.847656 46.894531 C 354.492188 45.457031 343.761719 44.394531 329.679688 52.203125 C 328.855469 52.675781 327.910156 52.933594 326.964844 52.957031 C 304.535156 53.761719 297.4375 63.949219 291.730469 72.15625 C 287.648438 78.054688 281.445312 86.945312 269.839844 80.246094 C 258.96875 73.972656 243.613281 70.058594 229.765625 70.058594 C 182.523438 70.058594 158.984375 120.699219 140.042969 161.386719 C 126.128906 191.316406 115.113281 214.972656 96.929688 214.972656 C 75.839844 214.972656 69.898438 189.050781 63.601562 161.574219 C 55.390625 125.675781 47.773438 100.25 24.46875 100.25 C 15.789062 100.25 12.394531 103.621094 12.394531 112.324219 C 12.394531 115.25 17.464844 119.1875 22.347656 122.984375 C 29.589844 128.625 38.597656 135.605469 42.277344 146.644531 C 43.574219 150.511719 44.542969 156.054688 45.769531 163.082031 C 48.671875 179.710938 53.082031 204.855469 64.96875 216.742188 C 67.328125 219.101562 67.328125 222.921875 64.96875 225.28125 C 62.609375 227.640625 58.789062 227.640625 56.429688 225.28125 C 41.828125 210.679688 37.230469 184.382812 33.859375 165.160156 C 32.773438 158.910156 31.828125 153.484375 30.816406 150.464844 C 28.292969 142.894531 21.523438 137.632812 14.941406 132.515625 C 7.746094 126.925781 0.316406 121.171875 0.316406 112.324219 C 0.316406 96.96875 9.117188 88.171875 24.46875 88.171875 C 59.191406 88.171875 68.175781 127.375 75.371094 158.886719 C 80.558594 181.527344 85.441406 202.898438 96.929688 202.898438 C 107.398438 202.898438 117.945312 180.253906 129.101562 156.289062 C 148.394531 114.800781 174.835938 57.980469 229.765625 57.980469 C 245.59375 57.980469 263.257812 62.511719 275.878906 69.796875 C 277.128906 70.507812 277.648438 70.53125 277.648438 70.53125 C 278.402344 70.175781 280.382812 67.320312 281.824219 65.269531 C 287.789062 56.660156 297.71875 42.390625 325.078125 40.953125 C 350.859375 27.296875 368.902344 37.390625 369.660156 37.839844 C 371.050781 38.640625 372.0625 39.960938 372.488281 41.496094 C 374.28125 48.265625 368.480469 56.992188 363.101562 63.3125 C 371.191406 74.113281 371.027344 86.496094 370.886719 94.28125 C 370.859375 96.378906 370.835938 99 371.074219 99.871094 L 374.46875 112.609375 C 374.894531 114.164062 374.683594 115.816406 373.878906 117.183594 C 362.132812 137.539062 344.773438 131.40625 335.433594 128.128906 C 333.972656 127.609375 332.085938 126.949219 330.8125 126.640625 C 329.585938 129.046875 328.476562 131.808594 327.15625 135.132812 C 324.488281 141.808594 320.859375 150.914062 313.5 163.648438 C 301.585938 184.265625 293.121094 191.929688 288.074219 196.480469 C 284.226562 199.996094 284.109375 200.160156 284.109375 202.898438 L 284.109375 221.011719 C 284.109375 224.335938 281.398438 227.050781 278.070312 227.050781 " fill-opacity="1" fill-rule="nonzero"/><path fill="#0c3a5b" d="M 356.566406 287.429688 L 66.738281 287.429688 C 63.410156 287.429688 60.699219 284.71875 60.699219 281.394531 C 60.699219 278.066406 63.410156 275.355469 66.738281 275.355469 L 356.566406 275.355469 C 359.894531 275.355469 362.605469 272.171875 362.605469 268.277344 L 362.605469 264.433594 C 362.605469 257.121094 357.371094 251.203125 350.90625 251.203125 L 24.09375 251.203125 C 17.628906 251.203125 12.394531 257.121094 12.394531 264.433594 L 12.394531 268.277344 C 12.394531 272.171875 15.105469 275.355469 18.433594 275.355469 L 36.546875 275.355469 C 39.871094 275.355469 42.585938 278.066406 42.585938 281.394531 C 42.585938 284.71875 39.871094 287.429688 36.546875 287.429688 L 18.433594 287.429688 C 8.429688 287.429688 0.316406 278.84375 0.316406 268.277344 L 0.316406 264.433594 C 0.316406 250.472656 10.980469 239.125 24.09375 239.125 L 350.90625 239.125 C 364.019531 239.125 374.683594 250.472656 374.683594 264.433594 L 374.683594 268.277344 C 374.683594 278.84375 366.570312 287.429688 356.566406 287.429688 " fill-opacity="1" fill-rule="nonzero"/><path fill="#0c3a5b" d="M 329.230469 347.8125 L 45.769531 347.8125 C 37.585938 347.8125 30.390625 342.082031 28.269531 333.894531 L 12.652344 283.160156 C 11.6875 279.976562 13.457031 276.605469 16.664062 275.613281 C 19.847656 274.625 23.21875 276.441406 24.210938 279.625 L 39.894531 330.59375 C 40.699219 333.730469 43.078125 335.734375 45.769531 335.734375 L 329.230469 335.734375 C 331.894531 335.734375 334.300781 333.730469 335.035156 330.878906 L 350.789062 279.625 C 351.78125 276.441406 355.152344 274.648438 358.335938 275.613281 C 361.542969 276.605469 363.3125 279.976562 362.347656 283.160156 L 346.660156 334.15625 C 344.609375 342.082031 337.414062 347.8125 329.230469 347.8125 " fill-opacity="1" fill-rule="nonzero"/><path fill="#0c3a5b" d="M 241.84375 227.050781 C 239.320312 227.050781 236.960938 225.445312 236.113281 222.921875 L 233.375 214.714844 C 230.6875 206.625 231.84375 197.945312 236.582031 190.867188 L 242.859375 181.433594 C 244.695312 178.648438 248.449219 177.894531 251.230469 179.757812 C 254.015625 181.597656 254.769531 185.347656 252.90625 188.132812 L 246.609375 197.566406 C 243.988281 201.527344 243.328125 206.386719 244.839844 210.894531 L 247.574219 219.101562 C 248.613281 222.261719 246.914062 225.683594 243.753906 226.742188 C 243.117188 226.957031 242.480469 227.050781 241.84375 227.050781 " fill-opacity="1" fill-rule="nonzero"/></svg>