<svg xmlns="http://www.w3.org/2000/svg" xmlns:xlink="http://www.w3.org/1999/xlink" width="40" zoomAndPan="magnify" viewBox="0 0 30 30.000001" height="40" preserveAspectRatio="xMidYMid meet" version="1.0"><defs><g/><clipPath id="cb80d62c14"><path d="M 4.554688 4.941406 L 24.019531 4.941406 L 24.019531 24.40625 L 4.554688 24.40625 Z M 4.554688 4.941406 " clip-rule="nonzero"/></clipPath><clipPath id="01db760400"><path d="M 14.285156 4.941406 C 8.910156 4.941406 4.554688 9.296875 4.554688 14.671875 C 4.554688 20.046875 8.910156 24.40625 14.285156 24.40625 C 19.660156 24.40625 24.019531 20.046875 24.019531 14.671875 C 24.019531 9.296875 19.660156 4.941406 14.285156 4.941406 Z M 14.285156 4.941406 " clip-rule="nonzero"/></clipPath><clipPath id="5b641b4e0e"><path d="M 3.386719 8.019531 L 25.230469 8.019531 L 25.230469 19.617188 L 3.386719 19.617188 Z M 3.386719 8.019531 " clip-rule="nonzero"/></clipPath><clipPath id="69fe52cb92"><path d="M 24 11 L 28 11 L 28 13 L 24 13 Z M 24 11 " clip-rule="nonzero"/></clipPath><clipPath id="effea94149"><path d="M 29.210938 13.8125 L 21.617188 11.742188 L 23.332031 5.449219 L 30.921875 7.515625 Z M 29.210938 13.8125 " clip-rule="nonzero"/></clipPath><clipPath id="f141b0d8fc"><path d="M 29.183594 13.898438 L 21.59375 11.832031 L 23.332031 5.441406 L 30.925781 7.507812 Z M 29.183594 13.898438 " clip-rule="nonzero"/></clipPath><clipPath id="fbab9f8616"><path d="M 27.175781 21.277344 L 19.585938 19.210938 L 23.335938 5.425781 L 30.929688 7.492188 Z M 27.175781 21.277344 " clip-rule="nonzero"/></clipPath><clipPath id="d882d25941"><path d="M 24 7 L 29.515625 7 L 29.515625 10 L 24 10 Z M 24 7 " clip-rule="nonzero"/></clipPath><clipPath id="62b90e9f6b"><path d="M 29.210938 13.8125 L 21.617188 11.742188 L 23.332031 5.449219 L 30.921875 7.515625 Z M 29.210938 13.8125 " clip-rule="nonzero"/></clipPath><clipPath id="3d89104211"><path d="M 29.183594 13.898438 L 21.59375 11.832031 L 23.332031 5.441406 L 30.925781 7.507812 Z M 29.183594 13.898438 " clip-rule="nonzero"/></clipPath><clipPath id="f760b069fd"><path d="M 27.175781 21.277344 L 19.585938 19.210938 L 23.335938 5.425781 L 30.929688 7.492188 Z M 27.175781 21.277344 " clip-rule="nonzero"/></clipPath><clipPath id="7b6a71b90b"><path d="M 23 6 L 26 6 L 26 9 L 23 9 Z M 23 6 " clip-rule="nonzero"/></clipPath><clipPath id="3130e37fdc"><path d="M 29.210938 13.8125 L 21.617188 11.742188 L 23.332031 5.449219 L 30.921875 7.515625 Z M 29.210938 13.8125 " clip-rule="nonzero"/></clipPath><clipPath id="bb4d3db991"><path d="M 29.183594 13.898438 L 21.59375 11.832031 L 23.332031 5.441406 L 30.925781 7.507812 Z M 29.183594 13.898438 " clip-rule="nonzero"/></clipPath><clipPath id="104abb8477"><path d="M 27.175781 21.277344 L 19.585938 19.210938 L 23.335938 5.425781 L 30.929688 7.492188 Z M 27.175781 21.277344 " clip-rule="nonzero"/></clipPath><clipPath id="ba979fcd82"><path d="M 5.042969 9.675781 L 26.890625 9.675781 L 26.890625 21.273438 L 5.042969 21.273438 Z M 5.042969 9.675781 " clip-rule="nonzero"/></clipPath></defs><g clip-path="url(#cb80d62c14)"><g clip-path="url(#01db760400)"><path fill="#4577b6" d="M 4.554688 4.941406 L 24.019531 4.941406 L 24.019531 24.40625 L 4.554688 24.40625 Z M 4.554688 4.941406 " fill-opacity="1" fill-rule="nonzero"/></g></g><path fill="#fbdc08" d="M 10.617188 13.386719 C 9.933594 13.445312 9.398438 13.992188 9.222656 14.8125 C 9.074219 15.53125 9.5 16.414062 10.121094 16.664062 C 10.828125 16.941406 11.808594 16.65625 12.210938 16.054688 C 12.628906 15.433594 12.441406 14.292969 11.847656 13.785156 C 11.550781 13.53125 11.066406 13.351562 10.746094 13.378906 C 10.734375 13.378906 10.675781 13.382812 10.617188 13.386719 M 15.601562 13.453125 C 15.078125 13.515625 14.558594 14.121094 14.40625 14.84375 C 14.398438 14.890625 14.378906 14.976562 14.367188 15.035156 C 14.234375 15.601562 14.511719 16.320312 14.980469 16.632812 C 15.558594 17.011719 16.328125 16.84375 16.769531 16.234375 C 17.101562 15.773438 17.074219 14.855469 16.707031 14.089844 C 16.492188 13.648438 16.058594 13.398438 15.601562 13.453125 M 11.535156 14.546875 C 11.753906 14.660156 11.855469 15.019531 11.777344 15.394531 C 11.660156 15.960938 11.097656 15.964844 11 15.402344 C 10.902344 14.835938 11.191406 14.371094 11.535156 14.546875 M 15.449219 14.550781 C 15.664062 14.648438 15.777344 14.925781 15.78125 15.347656 C 15.78125 15.554688 15.769531 15.617188 15.699219 15.722656 C 15.484375 16.058594 15.0625 15.847656 15.023438 15.382812 C 14.976562 14.839844 15.183594 14.425781 15.449219 14.550781 M 13.378906 16.410156 C 13.226562 16.433594 13.101562 16.492188 13.078125 16.546875 C 13 16.753906 13.90625 16.816406 14 16.613281 C 14.058594 16.484375 13.679688 16.359375 13.378906 16.410156 " fill-opacity="1" fill-rule="evenodd"/><g clip-path="url(#5b641b4e0e)"><path fill="#040404" d="M 7.210938 8.046875 C 6.761719 8.160156 6.503906 8.5625 6.21875 9.574219 C 6 10.351562 5.933594 10.925781 5.992188 11.539062 C 6.019531 11.8125 6.015625 12.230469 5.988281 12.488281 C 5.972656 12.621094 5.953125 12.773438 5.945312 12.824219 C 5.902344 13.21875 5.957031 13.53125 6.164062 14 C 6.308594 14.328125 6.308594 14.4375 6.171875 14.867188 C 5.988281 15.445312 5.945312 15.886719 6.046875 16.179688 C 6.066406 16.238281 6.066406 16.257812 6.03125 16.257812 C 5.96875 16.257812 5.726562 16.414062 5.617188 16.519531 L 5.535156 16.605469 L 5.457031 16.582031 C 5.332031 16.546875 5.023438 16.546875 4.882812 16.582031 C 4.488281 16.679688 4.183594 16.90625 4.035156 17.214844 L 3.976562 17.332031 L 3.871094 17.386719 C 3.570312 17.535156 3.402344 17.859375 3.402344 18.296875 C 3.398438 18.714844 3.628906 19.039062 3.925781 19.039062 C 3.964844 19.039062 3.96875 19.046875 3.992188 19.085938 C 4.164062 19.390625 4.691406 19.515625 5.117188 19.355469 C 5.234375 19.3125 5.421875 19.214844 5.445312 19.183594 C 5.460938 19.160156 5.492188 19.164062 5.507812 19.183594 C 5.789062 19.539062 6.394531 19.621094 6.839844 19.367188 C 6.886719 19.339844 6.933594 19.3125 6.945312 19.304688 C 6.960938 19.296875 7.007812 19.257812 7.058594 19.210938 L 7.144531 19.128906 L 7.214844 19.1875 C 7.347656 19.292969 7.457031 19.335938 7.613281 19.351562 C 8.035156 19.386719 8.328125 19.082031 8.359375 18.582031 L 8.367188 18.476562 L 9.042969 18.484375 C 10 18.492188 11.800781 18.492188 14.636719 18.480469 C 18.828125 18.464844 19.273438 18.464844 19.410156 18.46875 L 19.542969 18.472656 L 19.554688 18.511719 C 19.738281 19.058594 20.488281 19.3125 20.929688 18.972656 L 20.984375 18.929688 L 21.066406 18.996094 C 21.398438 19.277344 21.960938 19.296875 22.273438 19.042969 C 22.328125 18.996094 22.3125 18.992188 22.425781 19.105469 C 22.785156 19.464844 23.347656 19.46875 23.730469 19.113281 L 23.785156 19.0625 L 23.820312 19.085938 C 24.175781 19.355469 24.761719 19.105469 24.933594 18.609375 C 25.222656 17.804688 24.589844 16.914062 23.597656 16.714844 C 23.503906 16.699219 23.445312 16.695312 23.304688 16.695312 L 23.128906 16.695312 L 23.054688 16.648438 C 22.496094 16.269531 21.613281 16.226562 21.015625 16.542969 C 20.953125 16.578125 20.894531 16.613281 20.886719 16.621094 C 20.878906 16.628906 20.851562 16.648438 20.828125 16.664062 C 20.804688 16.679688 20.75 16.726562 20.707031 16.769531 L 20.632812 16.847656 L 20.578125 16.832031 C 20.347656 16.761719 20 16.851562 19.757812 17.039062 C 19.660156 17.117188 19.652344 17.117188 19.644531 17.09375 C 19.597656 16.964844 19.566406 16.890625 19.523438 16.796875 C 19.3125 16.34375 19.308594 16.023438 19.5 15.601562 C 19.742188 15.078125 19.761719 14.941406 19.667969 14.363281 C 19.550781 13.597656 19.714844 12.992188 20.363281 11.785156 C 20.421875 11.671875 20.492188 11.542969 20.515625 11.496094 C 20.542969 11.445312 20.585938 11.371094 20.609375 11.324219 C 21.078125 10.5 21.367188 9.910156 21.5 9.527344 C 21.761719 8.773438 21.542969 8.503906 20.960938 8.867188 C 20.542969 9.128906 19.898438 9.660156 19.203125 10.320312 C 18.515625 10.972656 18.15625 11.246094 17.667969 11.488281 C 17.542969 11.550781 17.367188 11.628906 17.261719 11.664062 C 16.910156 11.792969 16.644531 11.867188 16.261719 11.9375 C 16.15625 11.953125 16.136719 11.957031 16.003906 11.941406 C 15.925781 11.933594 15.75 11.917969 15.613281 11.902344 C 15.039062 11.851562 14.59375 11.785156 14.085938 11.683594 C 14.027344 11.671875 13.890625 11.648438 13.777344 11.625 C 13.667969 11.605469 13.527344 11.578125 13.46875 11.566406 C 12.496094 11.375 12.007812 11.351562 11.128906 11.449219 C 10.355469 11.539062 10.230469 11.488281 9.730469 10.871094 C 9.496094 10.582031 9.476562 10.5625 9.121094 10.207031 C 8.75 9.835938 8.746094 9.832031 8.652344 9.503906 C 8.617188 9.390625 8.621094 9.394531 8.542969 9.214844 C 8.484375 9.082031 8.367188 8.851562 8.34375 8.824219 C 8.335938 8.816406 8.328125 8.804688 8.328125 8.800781 C 8.328125 8.785156 8.183594 8.570312 8.167969 8.5625 C 8.160156 8.554688 8.15625 8.546875 8.15625 8.542969 C 8.15625 8.484375 7.820312 8.199219 7.671875 8.128906 C 7.527344 8.058594 7.308594 8.023438 7.210938 8.046875 M 11.09375 13.40625 C 11.609375 13.519531 11.992188 13.8125 12.226562 14.277344 C 12.476562 14.773438 12.511719 15.5 12.300781 15.914062 C 12.039062 16.4375 11.445312 16.765625 10.757812 16.765625 C 10.113281 16.765625 9.773438 16.582031 9.464844 16.070312 C 9.011719 15.324219 9.128906 14.40625 9.753906 13.785156 C 9.988281 13.554688 10.199219 13.449219 10.566406 13.382812 C 10.644531 13.371094 10.992188 13.386719 11.09375 13.40625 M 15.871094 13.457031 C 16.253906 13.515625 16.523438 13.710938 16.703125 14.070312 C 17.074219 14.808594 17.109375 15.796875 16.785156 16.226562 C 15.976562 17.285156 14.566406 16.921875 14.359375 15.601562 C 14.242188 14.859375 14.648438 13.921875 15.234375 13.570312 C 15.421875 13.457031 15.625 13.421875 15.871094 13.457031 M 11.324219 14.523438 C 10.921875 14.601562 10.859375 15.613281 11.242188 15.789062 C 11.386719 15.855469 11.519531 15.816406 11.640625 15.671875 C 11.839844 15.433594 11.847656 14.855469 11.652344 14.640625 C 11.570312 14.546875 11.4375 14.5 11.324219 14.523438 M 15.257812 14.558594 C 15.046875 14.65625 14.941406 15.320312 15.089844 15.625 C 15.253906 15.957031 15.609375 15.964844 15.738281 15.636719 L 15.773438 15.554688 L 15.769531 15.320312 C 15.765625 14.78125 15.53125 14.4375 15.257812 14.558594 M 13.78125 16.425781 C 14.1875 16.527344 14.039062 16.746094 13.570312 16.742188 C 13.046875 16.738281 12.875 16.503906 13.332031 16.417969 C 13.503906 16.382812 13.613281 16.386719 13.78125 16.425781 " fill-opacity="1" fill-rule="evenodd"/></g><path fill="#5c4f05" d="M 10.621094 13.382812 C 10.640625 13.386719 10.671875 13.386719 10.691406 13.382812 C 10.710938 13.382812 10.695312 13.378906 10.65625 13.378906 C 10.617188 13.378906 10.601562 13.382812 10.621094 13.382812 M 10.847656 13.382812 C 10.867188 13.386719 10.898438 13.386719 10.914062 13.382812 C 10.929688 13.382812 10.914062 13.378906 10.878906 13.378906 C 10.84375 13.378906 10.828125 13.382812 10.847656 13.382812 M 16.257812 13.589844 C 16.257812 13.59375 16.273438 13.601562 16.289062 13.609375 C 16.308594 13.621094 16.324219 13.625 16.324219 13.621094 C 16.324219 13.621094 16.308594 13.609375 16.289062 13.601562 C 16.273438 13.589844 16.257812 13.585938 16.257812 13.589844 M 9.75 13.789062 L 9.65625 13.882812 L 9.75 13.792969 C 9.839844 13.707031 9.851562 13.691406 9.84375 13.691406 C 9.84375 13.691406 9.800781 13.734375 9.75 13.789062 M 16.472656 13.746094 C 16.5 13.777344 16.527344 13.800781 16.53125 13.800781 C 16.535156 13.800781 16.511719 13.777344 16.480469 13.746094 C 16.453125 13.71875 16.425781 13.691406 16.421875 13.691406 C 16.417969 13.691406 16.441406 13.71875 16.472656 13.746094 M 14.964844 13.78125 L 14.898438 13.851562 L 14.964844 13.785156 C 15.003906 13.75 15.035156 13.71875 15.035156 13.71875 C 15.035156 13.710938 15.023438 13.71875 14.964844 13.78125 M 11.890625 13.816406 C 11.890625 13.820312 11.90625 13.835938 11.925781 13.851562 L 11.960938 13.882812 L 11.929688 13.847656 C 11.898438 13.816406 11.890625 13.808594 11.890625 13.816406 M 12.058594 14.011719 C 12.074219 14.035156 12.089844 14.054688 12.09375 14.054688 C 12.101562 14.054688 12.054688 13.988281 12.039062 13.980469 C 12.03125 13.976562 12.042969 13.992188 12.058594 14.011719 M 15.339844 14.53125 C 15.351562 14.53125 15.371094 14.53125 15.382812 14.53125 C 15.390625 14.527344 15.382812 14.523438 15.355469 14.523438 C 15.332031 14.523438 15.324219 14.527344 15.339844 14.53125 M 11.617188 14.601562 C 11.617188 14.605469 11.632812 14.621094 11.652344 14.636719 L 11.6875 14.667969 L 11.65625 14.632812 C 11.625 14.601562 11.617188 14.59375 11.617188 14.601562 M 15.570312 14.648438 C 15.632812 14.722656 15.644531 14.730469 15.617188 14.691406 C 15.605469 14.671875 15.578125 14.644531 15.558594 14.625 C 15.53125 14.601562 15.535156 14.609375 15.570312 14.648438 M 15.074219 14.8125 C 15.070312 14.828125 15.070312 14.84375 15.070312 14.847656 C 15.074219 14.847656 15.078125 14.835938 15.082031 14.820312 C 15.085938 14.804688 15.089844 14.789062 15.085938 14.789062 C 15.082031 14.785156 15.078125 14.796875 15.074219 14.8125 M 11.011719 14.914062 C 11.007812 14.933594 11.003906 14.953125 11.007812 14.953125 C 11.011719 14.957031 11.015625 14.945312 11.019531 14.925781 C 11.027344 14.878906 11.019531 14.871094 11.011719 14.914062 M 12.417969 14.914062 C 12.417969 14.9375 12.417969 14.945312 12.421875 14.933594 C 12.425781 14.925781 12.425781 14.90625 12.421875 14.894531 C 12.417969 14.886719 12.417969 14.894531 12.417969 14.914062 M 12.425781 15.035156 C 12.425781 15.054688 12.429688 15.066406 12.433594 15.054688 C 12.433594 15.042969 12.433594 15.027344 12.433594 15.015625 C 12.429688 15.003906 12.425781 15.015625 12.425781 15.035156 M 11.796875 15.148438 C 11.796875 15.210938 11.796875 15.234375 11.800781 15.203125 C 11.800781 15.167969 11.800781 15.121094 11.800781 15.09375 C 11.796875 15.0625 11.796875 15.089844 11.796875 15.148438 M 15.027344 15.078125 C 15.027344 15.101562 15.027344 15.109375 15.03125 15.097656 C 15.035156 15.085938 15.035156 15.070312 15.03125 15.058594 C 15.027344 15.050781 15.027344 15.058594 15.027344 15.078125 M 9.183594 15.113281 C 9.183594 15.140625 9.1875 15.148438 9.1875 15.136719 C 9.191406 15.121094 9.191406 15.101562 9.1875 15.085938 C 9.1875 15.074219 9.183594 15.085938 9.183594 15.113281 M 16.992188 15.1875 C 16.992188 15.238281 16.996094 15.261719 16.996094 15.234375 C 17 15.207031 17 15.167969 16.996094 15.140625 C 16.996094 15.117188 16.992188 15.136719 16.992188 15.1875 M 15.769531 15.1875 C 15.769531 15.222656 15.773438 15.234375 15.773438 15.21875 C 15.777344 15.203125 15.777344 15.175781 15.773438 15.15625 C 15.773438 15.140625 15.769531 15.15625 15.769531 15.1875 M 14.339844 15.175781 C 14.339844 15.199219 14.339844 15.207031 14.34375 15.195312 C 14.347656 15.1875 14.347656 15.167969 14.34375 15.15625 C 14.339844 15.148438 14.339844 15.15625 14.339844 15.175781 M 15.015625 15.277344 C 15.015625 15.300781 15.019531 15.3125 15.019531 15.300781 C 15.023438 15.285156 15.023438 15.265625 15.019531 15.25 C 15.019531 15.238281 15.015625 15.25 15.015625 15.277344 M 15.78125 15.367188 C 15.78125 15.429688 15.785156 15.453125 15.785156 15.417969 C 15.789062 15.386719 15.789062 15.339844 15.785156 15.308594 C 15.785156 15.28125 15.78125 15.308594 15.78125 15.367188 M 17.003906 15.421875 C 17.003906 15.496094 17.007812 15.523438 17.007812 15.484375 C 17.011719 15.449219 17.011719 15.386719 17.007812 15.355469 C 17.007812 15.320312 17.003906 15.351562 17.003906 15.421875 M 12.425781 15.382812 C 12.425781 15.40625 12.429688 15.414062 12.433594 15.402344 C 12.433594 15.394531 12.433594 15.375 12.433594 15.367188 C 12.429688 15.355469 12.425781 15.363281 12.425781 15.382812 M 14.339844 15.429688 C 14.339844 15.46875 14.339844 15.484375 14.34375 15.464844 C 14.347656 15.445312 14.347656 15.414062 14.34375 15.394531 C 14.339844 15.375 14.339844 15.390625 14.339844 15.429688 M 11.753906 15.457031 C 11.75 15.472656 11.75 15.488281 11.75 15.488281 C 11.753906 15.492188 11.757812 15.480469 11.761719 15.464844 C 11.765625 15.449219 11.769531 15.433594 11.765625 15.433594 C 11.761719 15.429688 11.757812 15.441406 11.753906 15.457031 M 12.417969 15.492188 C 12.417969 15.515625 12.417969 15.523438 12.421875 15.511719 C 12.425781 15.503906 12.425781 15.484375 12.421875 15.472656 C 12.417969 15.464844 12.417969 15.472656 12.417969 15.492188 M 16.992188 15.59375 C 16.992188 15.613281 16.996094 15.621094 16.996094 15.609375 C 17 15.601562 17 15.582031 16.996094 15.574219 C 16.996094 15.5625 16.992188 15.570312 16.992188 15.59375 M 11.089844 15.667969 C 11.097656 15.675781 11.109375 15.695312 11.121094 15.703125 C 11.132812 15.710938 11.128906 15.703125 11.113281 15.683594 C 11.085938 15.644531 11.074219 15.636719 11.089844 15.667969 M 11.566406 15.746094 C 11.5625 15.753906 11.542969 15.765625 11.523438 15.777344 C 11.507812 15.789062 11.496094 15.800781 11.503906 15.800781 C 11.519531 15.800781 11.59375 15.734375 11.582031 15.734375 C 11.578125 15.734375 11.570312 15.738281 11.566406 15.746094 M 15.410156 15.894531 C 15.417969 15.898438 15.4375 15.898438 15.445312 15.894531 C 15.457031 15.890625 15.449219 15.890625 15.429688 15.890625 C 15.40625 15.890625 15.398438 15.890625 15.410156 15.894531 M 9.386719 15.941406 C 9.402344 15.964844 9.414062 15.984375 9.417969 15.984375 C 9.417969 15.984375 9.410156 15.964844 9.398438 15.941406 C 9.386719 15.917969 9.375 15.898438 9.371094 15.898438 C 9.367188 15.898438 9.375 15.917969 9.386719 15.941406 M 16.78125 16.214844 C 16.769531 16.230469 16.761719 16.246094 16.765625 16.246094 C 16.765625 16.246094 16.78125 16.230469 16.792969 16.214844 C 16.804688 16.195312 16.8125 16.179688 16.8125 16.179688 C 16.808594 16.179688 16.796875 16.195312 16.78125 16.214844 M 9.699219 16.386719 C 9.742188 16.429688 9.777344 16.464844 9.78125 16.464844 C 9.785156 16.464844 9.753906 16.429688 9.710938 16.386719 C 9.667969 16.347656 9.632812 16.3125 9.628906 16.3125 C 9.625 16.3125 9.65625 16.347656 9.699219 16.386719 M 16.613281 16.414062 L 16.535156 16.492188 L 16.617188 16.417969 C 16.6875 16.34375 16.699219 16.332031 16.691406 16.332031 C 16.691406 16.332031 16.65625 16.371094 16.613281 16.414062 M 11.878906 16.402344 C 11.839844 16.433594 11.839844 16.433594 11.875 16.410156 C 11.894531 16.398438 11.914062 16.382812 11.917969 16.378906 C 11.925781 16.359375 11.917969 16.367188 11.878906 16.402344 M 14.757812 16.453125 C 14.804688 16.5 14.847656 16.542969 14.847656 16.542969 C 14.851562 16.542969 14.816406 16.5 14.765625 16.453125 C 14.71875 16.40625 14.679688 16.367188 14.675781 16.367188 C 14.671875 16.367188 14.707031 16.40625 14.757812 16.453125 M 13.503906 16.394531 C 13.515625 16.398438 13.539062 16.398438 13.550781 16.394531 C 13.566406 16.394531 13.554688 16.390625 13.527344 16.390625 C 13.5 16.390625 13.488281 16.394531 13.503906 16.394531 M 13.640625 16.40625 C 13.648438 16.410156 13.667969 16.410156 13.679688 16.40625 C 13.6875 16.402344 13.679688 16.402344 13.660156 16.402344 C 13.636719 16.402344 13.628906 16.402344 13.640625 16.40625 M 13.105469 16.503906 L 13.074219 16.53125 L 13.109375 16.507812 C 13.128906 16.492188 13.144531 16.480469 13.144531 16.480469 C 13.144531 16.46875 13.132812 16.476562 13.105469 16.503906 M 13.546875 16.746094 C 13.566406 16.746094 13.601562 16.746094 13.621094 16.746094 C 13.644531 16.742188 13.628906 16.742188 13.585938 16.742188 C 13.546875 16.742188 13.527344 16.742188 13.546875 16.746094 M 10.460938 16.757812 C 10.472656 16.757812 10.488281 16.757812 10.5 16.757812 C 10.511719 16.753906 10.5 16.75 10.480469 16.75 C 10.460938 16.75 10.449219 16.753906 10.460938 16.757812 M 11.011719 16.757812 C 11.027344 16.757812 11.046875 16.757812 11.058594 16.757812 C 11.066406 16.753906 11.054688 16.75 11.03125 16.75 C 11.007812 16.75 11 16.753906 11.011719 16.757812 M 10.582031 16.765625 C 10.59375 16.769531 10.609375 16.769531 10.621094 16.765625 C 10.628906 16.765625 10.621094 16.761719 10.601562 16.761719 C 10.578125 16.761719 10.570312 16.765625 10.582031 16.765625 M 10.898438 16.765625 C 10.910156 16.769531 10.925781 16.769531 10.9375 16.765625 C 10.945312 16.765625 10.9375 16.761719 10.917969 16.761719 C 10.894531 16.761719 10.886719 16.765625 10.898438 16.765625 M 15.5625 16.84375 C 15.601562 16.847656 15.667969 16.847656 15.710938 16.84375 C 15.75 16.84375 15.714844 16.839844 15.636719 16.839844 C 15.554688 16.839844 15.519531 16.84375 15.5625 16.84375 " fill-opacity="1" fill-rule="evenodd"/><g clip-path="url(#69fe52cb92)"><g clip-path="url(#effea94149)"><g clip-path="url(#f141b0d8fc)"><g clip-path="url(#fbab9f8616)"><path fill="#000000" d="M 24.902344 11.699219 C 24.964844 11.535156 25.953125 11.6875 26.777344 11.996094 C 27.601562 12.308594 27.625 12.535156 27.566406 12.699219 C 27.507812 12.867188 27.34375 13.03125 26.515625 12.71875 C 25.683594 12.40625 24.839844 11.867188 24.902344 11.699219 Z M 24.902344 11.699219 " fill-opacity="1" fill-rule="nonzero"/></g></g></g></g><g clip-path="url(#d882d25941)"><g clip-path="url(#62b90e9f6b)"><g clip-path="url(#3d89104211)"><g clip-path="url(#f760b069fd)"><path fill="#000000" d="M 24.941406 9.632812 C 24.828125 9.292969 26.308594 8.382812 27.757812 7.910156 C 29.210938 7.441406 29.480469 7.78125 29.601562 8.121094 C 29.71875 8.460938 29.6875 8.902344 28.234375 9.378906 C 26.78125 9.859375 25.046875 9.980469 24.941406 9.632812 Z M 24.941406 9.632812 " fill-opacity="1" fill-rule="nonzero"/></g></g></g></g><g clip-path="url(#7b6a71b90b)"><g clip-path="url(#3130e37fdc)"><g clip-path="url(#bb4d3db991)"><g clip-path="url(#104abb8477)"><path fill="#000000" d="M 23.925781 8.339844 C 23.773438 8.191406 24.25 7.347656 24.835938 6.746094 C 25.425781 6.140625 25.671875 6.238281 25.820312 6.398438 C 25.96875 6.558594 26.089844 6.78125 25.5 7.386719 C 24.910156 7.992188 24.078125 8.496094 23.925781 8.339844 Z M 23.925781 8.339844 " fill-opacity="1" fill-rule="nonzero"/></g></g></g></g><g fill="#000000" fill-opacity="1"><g transform="translate(6.443668, 6.935879)"><g><path d="M 0.265625 -0.921875 C 0.253906 -0.898438 0.25 -0.882812 0.25 -0.875 C 0.25 -0.875 0.253906 -0.863281 0.265625 -0.84375 C 0.273438 -0.832031 0.289062 -0.820312 0.3125 -0.8125 C 0.332031 -0.8125 0.34375 -0.804688 0.34375 -0.796875 C 0.363281 -0.773438 0.378906 -0.769531 0.390625 -0.78125 C 0.398438 -0.78125 0.40625 -0.789062 0.40625 -0.8125 C 0.414062 -0.832031 0.414062 -0.851562 0.40625 -0.875 C 0.394531 -0.894531 0.378906 -0.910156 0.359375 -0.921875 C 0.347656 -0.941406 0.335938 -0.957031 0.328125 -0.96875 C 0.296875 -0.96875 0.273438 -0.953125 0.265625 -0.921875 Z M -0.40625 -3.421875 C -0.351562 -3.441406 -0.3125 -3.441406 -0.28125 -3.421875 C -0.25 -3.410156 -0.222656 -3.378906 -0.203125 -3.328125 C -0.179688 -3.285156 -0.175781 -3.242188 -0.1875 -3.203125 C -0.207031 -3.160156 -0.238281 -3.125 -0.28125 -3.09375 C -0.320312 -3.050781 -0.375 -3.015625 -0.4375 -2.984375 C -0.507812 -2.960938 -0.578125 -2.941406 -0.640625 -2.921875 C -0.703125 -2.890625 -0.765625 -2.859375 -0.828125 -2.828125 C -0.890625 -2.796875 -0.957031 -2.769531 -1.03125 -2.75 C -1.050781 -2.738281 -1.0625 -2.726562 -1.0625 -2.71875 C -1.070312 -2.71875 -1.085938 -2.710938 -1.109375 -2.703125 C -1.046875 -2.671875 -0.992188 -2.632812 -0.953125 -2.59375 C -0.921875 -2.550781 -0.890625 -2.507812 -0.859375 -2.46875 C -0.804688 -2.40625 -0.738281 -2.316406 -0.65625 -2.203125 C -0.582031 -2.085938 -0.503906 -1.96875 -0.421875 -1.84375 C -0.347656 -1.71875 -0.269531 -1.59375 -0.1875 -1.46875 C -0.101562 -1.351562 -0.046875 -1.265625 -0.015625 -1.203125 C -0.00390625 -1.179688 0.00390625 -1.164062 0.015625 -1.15625 C 0.0351562 -1.15625 0.0546875 -1.160156 0.078125 -1.171875 C 0.117188 -1.210938 0.15625 -1.238281 0.1875 -1.25 C 0.257812 -1.289062 0.335938 -1.304688 0.421875 -1.296875 C 0.503906 -1.285156 0.578125 -1.253906 0.640625 -1.203125 C 0.734375 -1.128906 0.785156 -1.035156 0.796875 -0.921875 C 0.804688 -0.804688 0.785156 -0.703125 0.734375 -0.609375 C 0.691406 -0.523438 0.625 -0.457031 0.53125 -0.40625 C 0.445312 -0.363281 0.335938 -0.367188 0.203125 -0.421875 C 0.140625 -0.453125 0.0820312 -0.488281 0.03125 -0.53125 C -0.0195312 -0.582031 -0.0664062 -0.640625 -0.109375 -0.703125 C -0.160156 -0.742188 -0.203125 -0.789062 -0.234375 -0.84375 C -0.265625 -0.90625 -0.300781 -0.96875 -0.34375 -1.03125 C -0.394531 -1.101562 -0.457031 -1.191406 -0.53125 -1.296875 C -0.601562 -1.398438 -0.675781 -1.515625 -0.75 -1.640625 C -0.832031 -1.765625 -0.910156 -1.878906 -0.984375 -1.984375 C -1.054688 -2.097656 -1.117188 -2.1875 -1.171875 -2.25 C -1.179688 -2.28125 -1.203125 -2.296875 -1.234375 -2.296875 C -1.265625 -2.304688 -1.296875 -2.304688 -1.328125 -2.296875 C -1.359375 -2.285156 -1.390625 -2.273438 -1.421875 -2.265625 C -1.453125 -2.253906 -1.484375 -2.253906 -1.515625 -2.265625 C -1.585938 -2.265625 -1.644531 -2.285156 -1.6875 -2.328125 C -1.726562 -2.367188 -1.742188 -2.4375 -1.734375 -2.53125 C -1.722656 -2.582031 -1.703125 -2.632812 -1.671875 -2.6875 C -1.648438 -2.738281 -1.613281 -2.785156 -1.5625 -2.828125 C -1.507812 -2.878906 -1.453125 -2.925781 -1.390625 -2.96875 C -1.328125 -3.019531 -1.257812 -3.0625 -1.1875 -3.09375 C -1.113281 -3.125 -1.039062 -3.15625 -0.96875 -3.1875 C -0.90625 -3.21875 -0.84375 -3.25 -0.78125 -3.28125 C -0.726562 -3.300781 -0.664062 -3.328125 -0.59375 -3.359375 C -0.53125 -3.398438 -0.46875 -3.421875 -0.40625 -3.421875 Z M -0.40625 -3.421875 "/></g></g></g><g fill="#000000" fill-opacity="1"><g transform="translate(7.41761, 6.177897)"><g><path d="M -0.0625 -1.703125 C -0.0390625 -1.722656 -0.0234375 -1.75 -0.015625 -1.78125 C -0.015625 -1.8125 -0.0195312 -1.84375 -0.03125 -1.875 C -0.0507812 -1.914062 -0.078125 -1.941406 -0.109375 -1.953125 C -0.140625 -1.972656 -0.164062 -1.972656 -0.1875 -1.953125 C -0.21875 -1.929688 -0.234375 -1.90625 -0.234375 -1.875 C -0.234375 -1.851562 -0.226562 -1.832031 -0.21875 -1.8125 C -0.207031 -1.78125 -0.1875 -1.753906 -0.15625 -1.734375 C -0.132812 -1.710938 -0.101562 -1.703125 -0.0625 -1.703125 Z M 1.046875 -2.984375 C 1.109375 -3.003906 1.160156 -3 1.203125 -2.96875 C 1.253906 -2.945312 1.300781 -2.894531 1.34375 -2.8125 C 1.382812 -2.6875 1.425781 -2.5625 1.46875 -2.4375 C 1.519531 -2.3125 1.570312 -2.191406 1.625 -2.078125 C 1.6875 -1.941406 1.742188 -1.804688 1.796875 -1.671875 C 1.847656 -1.546875 1.898438 -1.414062 1.953125 -1.28125 C 1.960938 -1.238281 1.96875 -1.203125 1.96875 -1.171875 C 1.976562 -1.148438 1.976562 -1.125 1.96875 -1.09375 C 1.957031 -1.070312 1.941406 -1.050781 1.921875 -1.03125 C 1.910156 -1.019531 1.882812 -0.992188 1.84375 -0.953125 C 1.726562 -0.847656 1.609375 -0.765625 1.484375 -0.703125 C 1.359375 -0.648438 1.222656 -0.597656 1.078125 -0.546875 C 0.972656 -0.515625 0.882812 -0.507812 0.8125 -0.53125 C 0.75 -0.550781 0.691406 -0.613281 0.640625 -0.71875 C 0.503906 -0.9375 0.378906 -1.160156 0.265625 -1.390625 C 0.253906 -1.410156 0.242188 -1.421875 0.234375 -1.421875 C 0.222656 -1.429688 0.207031 -1.425781 0.1875 -1.40625 C 0.0625 -1.320312 -0.0546875 -1.285156 -0.171875 -1.296875 C -0.285156 -1.316406 -0.382812 -1.382812 -0.46875 -1.5 C -0.539062 -1.601562 -0.585938 -1.710938 -0.609375 -1.828125 C -0.609375 -1.921875 -0.59375 -2.003906 -0.5625 -2.078125 C -0.53125 -2.148438 -0.488281 -2.203125 -0.4375 -2.234375 C -0.382812 -2.273438 -0.320312 -2.300781 -0.25 -2.3125 C -0.175781 -2.332031 -0.0976562 -2.328125 -0.015625 -2.296875 C 0.0664062 -2.273438 0.132812 -2.238281 0.1875 -2.1875 C 0.238281 -2.132812 0.285156 -2.078125 0.328125 -2.015625 C 0.410156 -1.929688 0.472656 -1.835938 0.515625 -1.734375 C 0.566406 -1.628906 0.625 -1.53125 0.6875 -1.4375 C 0.726562 -1.351562 0.765625 -1.269531 0.796875 -1.1875 C 0.835938 -1.113281 0.882812 -1.046875 0.9375 -0.984375 C 0.945312 -0.953125 0.957031 -0.929688 0.96875 -0.921875 C 0.976562 -0.910156 0.992188 -0.910156 1.015625 -0.921875 C 1.097656 -0.960938 1.179688 -1 1.265625 -1.03125 C 1.347656 -1.0625 1.425781 -1.101562 1.5 -1.15625 C 1.53125 -1.175781 1.546875 -1.191406 1.546875 -1.203125 C 1.546875 -1.222656 1.539062 -1.253906 1.53125 -1.296875 C 1.4375 -1.515625 1.34375 -1.738281 1.25 -1.96875 C 1.15625 -2.207031 1.066406 -2.441406 0.984375 -2.671875 C 0.921875 -2.828125 0.941406 -2.929688 1.046875 -2.984375 Z M 1.046875 -2.984375 "/></g></g></g><g fill="#000000" fill-opacity="1"><g transform="translate(9.662581, 5.125178)"><g/></g></g><g fill="#000000" fill-opacity="1"><g transform="translate(10.430346, 4.835734)"><g><path d="M -0.3125 -3.375 C -0.300781 -3.394531 -0.285156 -3.414062 -0.265625 -3.4375 C -0.253906 -3.457031 -0.242188 -3.476562 -0.234375 -3.5 C -0.222656 -3.53125 -0.207031 -3.550781 -0.1875 -3.5625 C -0.175781 -3.582031 -0.160156 -3.609375 -0.140625 -3.640625 C -0.109375 -3.679688 -0.0703125 -3.710938 -0.03125 -3.734375 C 0 -3.753906 0.0351562 -3.769531 0.078125 -3.78125 C 0.140625 -3.800781 0.1875 -3.789062 0.21875 -3.75 C 0.257812 -3.71875 0.289062 -3.671875 0.3125 -3.609375 C 0.4375 -3.222656 0.539062 -2.832031 0.625 -2.4375 C 0.71875 -2.050781 0.8125 -1.648438 0.90625 -1.234375 C 0.90625 -1.222656 0.910156 -1.210938 0.921875 -1.203125 C 0.941406 -1.203125 0.957031 -1.203125 0.96875 -1.203125 L 1 -1.203125 C 1.007812 -1.210938 1.015625 -1.21875 1.015625 -1.21875 C 1.085938 -1.238281 1.15625 -1.238281 1.21875 -1.21875 C 1.289062 -1.195312 1.347656 -1.164062 1.390625 -1.125 C 1.441406 -1.082031 1.484375 -1.03125 1.515625 -0.96875 C 1.554688 -0.914062 1.582031 -0.847656 1.59375 -0.765625 C 1.625 -0.648438 1.613281 -0.539062 1.5625 -0.4375 C 1.507812 -0.332031 1.421875 -0.269531 1.296875 -0.25 C 1.210938 -0.238281 1.128906 -0.242188 1.046875 -0.265625 C 0.953125 -0.285156 0.867188 -0.328125 0.796875 -0.390625 C 0.722656 -0.460938 0.671875 -0.550781 0.640625 -0.65625 C 0.617188 -0.695312 0.597656 -0.742188 0.578125 -0.796875 C 0.566406 -0.847656 0.554688 -0.898438 0.546875 -0.953125 C 0.535156 -1.003906 0.519531 -1.054688 0.5 -1.109375 C 0.488281 -1.160156 0.476562 -1.207031 0.46875 -1.25 L 0.21875 -2.40625 C 0.1875 -2.5 0.160156 -2.597656 0.140625 -2.703125 C 0.117188 -2.816406 0.0859375 -2.925781 0.046875 -3.03125 C 0.046875 -3.03125 0.046875 -3.039062 0.046875 -3.0625 C 0.0351562 -3.0625 0.0234375 -3.0625 0.015625 -3.0625 C 0.015625 -3.0625 0.0078125 -3.0625 0 -3.0625 L -0.015625 -3.046875 C -0.015625 -3.035156 -0.015625 -3.03125 -0.015625 -3.03125 C -0.0234375 -3.03125 -0.0351562 -3.019531 -0.046875 -3 C -0.0546875 -2.976562 -0.0703125 -2.945312 -0.09375 -2.90625 C -0.125 -2.875 -0.15625 -2.84375 -0.1875 -2.8125 C -0.226562 -2.78125 -0.269531 -2.757812 -0.3125 -2.75 C -0.351562 -2.738281 -0.394531 -2.738281 -0.4375 -2.75 C -0.488281 -2.769531 -0.535156 -2.804688 -0.578125 -2.859375 C -0.597656 -2.867188 -0.617188 -2.898438 -0.640625 -2.953125 C -0.671875 -3.003906 -0.695312 -3.0625 -0.71875 -3.125 C -0.75 -3.1875 -0.773438 -3.25 -0.796875 -3.3125 C -0.828125 -3.382812 -0.84375 -3.4375 -0.84375 -3.46875 C -0.863281 -3.488281 -0.875 -3.503906 -0.875 -3.515625 C -0.882812 -3.566406 -0.875 -3.613281 -0.84375 -3.65625 C -0.820312 -3.695312 -0.785156 -3.722656 -0.734375 -3.734375 C -0.671875 -3.753906 -0.617188 -3.75 -0.578125 -3.71875 C -0.535156 -3.6875 -0.503906 -3.648438 -0.484375 -3.609375 C -0.453125 -3.585938 -0.4375 -3.566406 -0.4375 -3.546875 C -0.4375 -3.523438 -0.429688 -3.5 -0.421875 -3.46875 C -0.398438 -3.445312 -0.382812 -3.425781 -0.375 -3.40625 C -0.375 -3.382812 -0.363281 -3.367188 -0.34375 -3.359375 L -0.328125 -3.359375 Z M 1.015625 -0.71875 C 1.023438 -0.695312 1.039062 -0.675781 1.0625 -0.65625 C 1.082031 -0.632812 1.109375 -0.625 1.140625 -0.625 C 1.171875 -0.632812 1.191406 -0.648438 1.203125 -0.671875 C 1.222656 -0.691406 1.226562 -0.722656 1.21875 -0.765625 C 1.207031 -0.804688 1.1875 -0.828125 1.15625 -0.828125 C 1.125 -0.828125 1.097656 -0.828125 1.078125 -0.828125 C 1.046875 -0.816406 1.023438 -0.800781 1.015625 -0.78125 C 1.015625 -0.769531 1.015625 -0.75 1.015625 -0.71875 Z M 1.015625 -0.71875 "/></g></g></g><g fill="#000000" fill-opacity="1"><g transform="translate(11.927698, 4.418943)"><g><path d="M 0.5625 -1.84375 C 0.519531 -1.832031 0.492188 -1.8125 0.484375 -1.78125 C 0.484375 -1.75 0.484375 -1.71875 0.484375 -1.6875 C 0.484375 -1.632812 0.492188 -1.59375 0.515625 -1.5625 C 0.546875 -1.53125 0.578125 -1.503906 0.609375 -1.484375 C 0.640625 -1.460938 0.664062 -1.457031 0.6875 -1.46875 C 0.71875 -1.488281 0.738281 -1.515625 0.75 -1.546875 C 0.75 -1.578125 0.742188 -1.609375 0.734375 -1.640625 C 0.734375 -1.671875 0.726562 -1.703125 0.71875 -1.734375 C 0.707031 -1.765625 0.6875 -1.789062 0.65625 -1.8125 C 0.632812 -1.84375 0.601562 -1.851562 0.5625 -1.84375 Z M 0.25 -1.265625 C 0.1875 -1.359375 0.144531 -1.457031 0.125 -1.5625 C 0.113281 -1.675781 0.117188 -1.785156 0.140625 -1.890625 C 0.160156 -1.992188 0.203125 -2.078125 0.265625 -2.140625 C 0.335938 -2.210938 0.429688 -2.253906 0.546875 -2.265625 C 0.671875 -2.253906 0.773438 -2.210938 0.859375 -2.140625 C 0.941406 -2.078125 1.003906 -1.992188 1.046875 -1.890625 C 1.097656 -1.785156 1.140625 -1.671875 1.171875 -1.546875 C 1.203125 -1.429688 1.222656 -1.328125 1.234375 -1.234375 C 1.265625 -1.273438 1.285156 -1.3125 1.296875 -1.34375 C 1.316406 -1.382812 1.332031 -1.425781 1.34375 -1.46875 C 1.394531 -1.53125 1.457031 -1.5625 1.53125 -1.5625 C 1.601562 -1.570312 1.671875 -1.554688 1.734375 -1.515625 C 1.753906 -1.492188 1.773438 -1.46875 1.796875 -1.4375 C 1.828125 -1.414062 1.851562 -1.394531 1.875 -1.375 C 1.925781 -1.289062 1.984375 -1.207031 2.046875 -1.125 C 2.109375 -1.050781 2.164062 -0.976562 2.21875 -0.90625 C 2.226562 -0.894531 2.238281 -0.878906 2.25 -0.859375 C 2.257812 -0.847656 2.273438 -0.835938 2.296875 -0.828125 C 2.285156 -1.003906 2.28125 -1.179688 2.28125 -1.359375 C 2.28125 -1.546875 2.28125 -1.726562 2.28125 -1.90625 C 2.28125 -1.957031 2.28125 -2.003906 2.28125 -2.046875 C 2.300781 -2.097656 2.328125 -2.140625 2.359375 -2.171875 C 2.398438 -2.203125 2.445312 -2.222656 2.5 -2.234375 C 2.539062 -2.222656 2.578125 -2.203125 2.609375 -2.171875 C 2.648438 -2.148438 2.675781 -2.113281 2.6875 -2.0625 C 2.695312 -2.019531 2.695312 -1.976562 2.6875 -1.9375 C 2.6875 -1.6875 2.691406 -1.4375 2.703125 -1.1875 C 2.710938 -0.9375 2.726562 -0.679688 2.75 -0.421875 C 2.757812 -0.367188 2.757812 -0.316406 2.75 -0.265625 C 2.738281 -0.210938 2.71875 -0.171875 2.6875 -0.140625 C 2.65625 -0.117188 2.617188 -0.101562 2.578125 -0.09375 C 2.535156 -0.0820312 2.492188 -0.0820312 2.453125 -0.09375 C 2.410156 -0.113281 2.367188 -0.140625 2.328125 -0.171875 C 2.253906 -0.242188 2.179688 -0.3125 2.109375 -0.375 C 2.046875 -0.445312 1.984375 -0.523438 1.921875 -0.609375 C 1.859375 -0.679688 1.800781 -0.75 1.75 -0.8125 C 1.707031 -0.875 1.660156 -0.941406 1.609375 -1.015625 C 1.566406 -0.921875 1.535156 -0.820312 1.515625 -0.71875 C 1.492188 -0.625 1.472656 -0.523438 1.453125 -0.421875 C 1.441406 -0.390625 1.429688 -0.351562 1.421875 -0.3125 C 1.410156 -0.269531 1.394531 -0.226562 1.375 -0.1875 C 1.351562 -0.144531 1.328125 -0.113281 1.296875 -0.09375 C 1.265625 -0.0703125 1.222656 -0.0625 1.171875 -0.0625 C 1.054688 -0.0703125 0.984375 -0.144531 0.953125 -0.28125 C 0.953125 -0.289062 0.953125 -0.300781 0.953125 -0.3125 C 0.953125 -0.332031 0.953125 -0.347656 0.953125 -0.359375 C 0.941406 -0.460938 0.925781 -0.566406 0.90625 -0.671875 C 0.882812 -0.785156 0.867188 -0.894531 0.859375 -1 C 0.847656 -1.03125 0.835938 -1.046875 0.828125 -1.046875 C 0.816406 -1.054688 0.796875 -1.0625 0.765625 -1.0625 C 0.734375 -1.050781 0.695312 -1.046875 0.65625 -1.046875 C 0.570312 -1.035156 0.492188 -1.050781 0.421875 -1.09375 C 0.359375 -1.132812 0.300781 -1.191406 0.25 -1.265625 Z M 0.25 -1.265625 "/></g></g></g><g fill="#000000" fill-opacity="1"><g transform="translate(14.750401, 4.363768)"><g/></g></g><g fill="#000000" fill-opacity="1"><g transform="translate(15.521951, 4.37443)"><g><path d="M 1.203125 -1.265625 C 1.222656 -1.253906 1.242188 -1.25 1.265625 -1.25 C 1.285156 -1.257812 1.296875 -1.273438 1.296875 -1.296875 C 1.304688 -1.335938 1.300781 -1.382812 1.28125 -1.4375 C 1.269531 -1.488281 1.25 -1.515625 1.21875 -1.515625 C 1.195312 -1.523438 1.179688 -1.519531 1.171875 -1.5 C 1.160156 -1.476562 1.144531 -1.460938 1.125 -1.453125 C 1.125 -1.410156 1.128906 -1.367188 1.140625 -1.328125 C 1.148438 -1.285156 1.171875 -1.265625 1.203125 -1.265625 Z M 1.15625 -0.265625 C 1.164062 -0.285156 1.164062 -0.304688 1.15625 -0.328125 C 1.15625 -0.347656 1.140625 -0.363281 1.109375 -0.375 C 1.085938 -0.375 1.066406 -0.363281 1.046875 -0.34375 C 1.023438 -0.320312 1.015625 -0.296875 1.015625 -0.265625 C 1.003906 -0.242188 1 -0.21875 1 -0.1875 C 1 -0.15625 1.015625 -0.132812 1.046875 -0.125 C 1.085938 -0.125 1.113281 -0.140625 1.125 -0.171875 C 1.132812 -0.203125 1.144531 -0.234375 1.15625 -0.265625 Z M 1.046875 -0.78125 C 1.066406 -0.789062 1.082031 -0.796875 1.09375 -0.796875 C 1.113281 -0.796875 1.125 -0.800781 1.125 -0.8125 C 1.03125 -0.851562 0.945312 -0.90625 0.875 -0.96875 C 0.800781 -1.039062 0.75 -1.117188 0.71875 -1.203125 C 0.6875 -1.285156 0.675781 -1.375 0.6875 -1.46875 C 0.707031 -1.570312 0.75 -1.664062 0.8125 -1.75 C 0.863281 -1.820312 0.914062 -1.875 0.96875 -1.90625 C 1.03125 -1.9375 1.097656 -1.953125 1.171875 -1.953125 C 1.242188 -1.960938 1.3125 -1.957031 1.375 -1.9375 C 1.4375 -1.914062 1.5 -1.882812 1.5625 -1.84375 C 1.601562 -1.789062 1.632812 -1.738281 1.65625 -1.6875 C 1.6875 -1.632812 1.707031 -1.582031 1.71875 -1.53125 C 1.726562 -1.445312 1.734375 -1.367188 1.734375 -1.296875 C 1.734375 -1.222656 1.726562 -1.144531 1.71875 -1.0625 C 1.707031 -0.988281 1.691406 -0.910156 1.671875 -0.828125 C 1.660156 -0.753906 1.648438 -0.679688 1.640625 -0.609375 C 1.640625 -0.585938 1.644531 -0.578125 1.65625 -0.578125 C 1.75 -0.460938 1.835938 -0.335938 1.921875 -0.203125 C 1.921875 -0.222656 1.925781 -0.238281 1.9375 -0.25 C 1.945312 -0.269531 1.957031 -0.289062 1.96875 -0.3125 C 2.039062 -0.488281 2.109375 -0.671875 2.171875 -0.859375 C 2.242188 -1.046875 2.328125 -1.226562 2.421875 -1.40625 C 2.421875 -1.425781 2.425781 -1.445312 2.4375 -1.46875 C 2.457031 -1.5 2.476562 -1.523438 2.5 -1.546875 C 2.5625 -1.617188 2.640625 -1.632812 2.734375 -1.59375 C 2.773438 -1.59375 2.804688 -1.570312 2.828125 -1.53125 C 2.847656 -1.488281 2.859375 -1.445312 2.859375 -1.40625 C 2.847656 -1.375 2.835938 -1.34375 2.828125 -1.3125 C 2.828125 -1.28125 2.820312 -1.253906 2.8125 -1.234375 C 2.695312 -0.984375 2.59375 -0.738281 2.5 -0.5 C 2.40625 -0.269531 2.3125 -0.03125 2.21875 0.21875 C 2.207031 0.25 2.195312 0.273438 2.1875 0.296875 C 2.175781 0.328125 2.15625 0.359375 2.125 0.390625 C 2.0625 0.441406 2 0.46875 1.9375 0.46875 C 1.875 0.476562 1.820312 0.453125 1.78125 0.390625 C 1.757812 0.367188 1.742188 0.347656 1.734375 0.328125 C 1.722656 0.304688 1.707031 0.285156 1.6875 0.265625 C 1.664062 0.222656 1.640625 0.179688 1.609375 0.140625 C 1.585938 0.0976562 1.5625 0.0507812 1.53125 0 C 1.507812 -0.03125 1.492188 -0.0390625 1.484375 -0.03125 C 1.472656 -0.03125 1.457031 -0.0195312 1.4375 0 C 1.382812 0.09375 1.316406 0.164062 1.234375 0.21875 C 1.160156 0.25 1.09375 0.265625 1.03125 0.265625 C 0.976562 0.265625 0.921875 0.238281 0.859375 0.1875 C 0.785156 0.101562 0.726562 0.0195312 0.6875 -0.0625 C 0.65625 -0.15625 0.648438 -0.257812 0.671875 -0.375 C 0.691406 -0.476562 0.734375 -0.5625 0.796875 -0.625 C 0.867188 -0.695312 0.953125 -0.75 1.046875 -0.78125 Z M 1.046875 -0.78125 "/></g></g></g><g fill="#000000" fill-opacity="1"><g transform="translate(17.825069, 4.930621)"><g><path d="M 1.328125 -0.59375 C 1.328125 -0.613281 1.332031 -0.632812 1.34375 -0.65625 C 1.363281 -0.6875 1.363281 -0.707031 1.34375 -0.71875 C 1.320312 -0.726562 1.300781 -0.722656 1.28125 -0.703125 C 1.269531 -0.691406 1.253906 -0.679688 1.234375 -0.671875 C 1.203125 -0.660156 1.179688 -0.640625 1.171875 -0.609375 C 1.160156 -0.597656 1.148438 -0.578125 1.140625 -0.546875 C 1.140625 -0.523438 1.148438 -0.507812 1.171875 -0.5 C 1.203125 -0.476562 1.222656 -0.472656 1.234375 -0.484375 C 1.253906 -0.503906 1.269531 -0.519531 1.28125 -0.53125 C 1.300781 -0.539062 1.304688 -0.550781 1.296875 -0.5625 C 1.296875 -0.570312 1.304688 -0.582031 1.328125 -0.59375 Z M 1 -0.140625 C 0.988281 -0.140625 0.972656 -0.140625 0.953125 -0.140625 C 0.941406 -0.140625 0.941406 -0.132812 0.953125 -0.125 C 0.941406 -0.101562 0.929688 -0.0859375 0.921875 -0.078125 C 0.921875 -0.0664062 0.929688 -0.0546875 0.953125 -0.046875 C 0.972656 -0.0234375 0.992188 -0.0078125 1.015625 0 C 1.035156 0.0078125 1.054688 0.0234375 1.078125 0.046875 C 1.140625 0.078125 1.207031 0.101562 1.28125 0.125 C 1.363281 0.144531 1.445312 0.160156 1.53125 0.171875 C 1.570312 0.191406 1.609375 0.179688 1.640625 0.140625 C 1.703125 -0.00390625 1.765625 -0.140625 1.828125 -0.265625 C 1.890625 -0.390625 1.953125 -0.523438 2.015625 -0.671875 C 2.015625 -0.703125 2.015625 -0.722656 2.015625 -0.734375 C 2.023438 -0.753906 2.035156 -0.773438 2.046875 -0.796875 C 2.066406 -0.910156 2.0625 -1 2.03125 -1.0625 C 2.007812 -1.125 1.945312 -1.179688 1.84375 -1.234375 C 1.757812 -1.273438 1.6875 -1.304688 1.625 -1.328125 C 1.5625 -1.359375 1.5 -1.378906 1.4375 -1.390625 C 1.351562 -1.378906 1.28125 -1.363281 1.21875 -1.34375 C 1.15625 -1.332031 1.09375 -1.320312 1.03125 -1.3125 C 0.976562 -1.3125 0.929688 -1.320312 0.890625 -1.34375 C 0.859375 -1.375 0.832031 -1.410156 0.8125 -1.453125 C 0.78125 -1.515625 0.773438 -1.5625 0.796875 -1.59375 C 0.828125 -1.632812 0.863281 -1.664062 0.90625 -1.6875 C 0.957031 -1.71875 1.007812 -1.738281 1.0625 -1.75 C 1.125 -1.769531 1.179688 -1.78125 1.234375 -1.78125 C 1.296875 -1.78125 1.351562 -1.78125 1.40625 -1.78125 C 1.46875 -1.78125 1.507812 -1.78125 1.53125 -1.78125 C 1.644531 -1.757812 1.753906 -1.722656 1.859375 -1.671875 C 1.960938 -1.628906 2.066406 -1.582031 2.171875 -1.53125 C 2.234375 -1.476562 2.285156 -1.414062 2.328125 -1.34375 C 2.378906 -1.28125 2.414062 -1.21875 2.4375 -1.15625 C 2.46875 -1.007812 2.46875 -0.867188 2.4375 -0.734375 C 2.414062 -0.609375 2.378906 -0.484375 2.328125 -0.359375 C 2.253906 -0.234375 2.1875 -0.109375 2.125 0.015625 C 2.070312 0.140625 2.015625 0.253906 1.953125 0.359375 C 1.859375 0.535156 1.707031 0.609375 1.5 0.578125 C 1.351562 0.554688 1.210938 0.519531 1.078125 0.46875 C 0.953125 0.425781 0.820312 0.363281 0.6875 0.28125 C 0.613281 0.226562 0.5625 0.171875 0.53125 0.109375 C 0.507812 0.046875 0.503906 -0.03125 0.515625 -0.125 C 0.546875 -0.269531 0.585938 -0.40625 0.640625 -0.53125 C 0.703125 -0.664062 0.78125 -0.789062 0.875 -0.90625 C 0.9375 -0.976562 1.015625 -1.035156 1.109375 -1.078125 C 1.203125 -1.117188 1.304688 -1.128906 1.421875 -1.109375 C 1.515625 -1.109375 1.585938 -1.078125 1.640625 -1.015625 C 1.691406 -0.960938 1.722656 -0.890625 1.734375 -0.796875 C 1.753906 -0.671875 1.738281 -0.554688 1.6875 -0.453125 C 1.644531 -0.359375 1.566406 -0.265625 1.453125 -0.171875 C 1.453125 -0.160156 1.445312 -0.148438 1.4375 -0.140625 C 1.425781 -0.140625 1.414062 -0.132812 1.40625 -0.125 C 1.34375 -0.101562 1.273438 -0.0859375 1.203125 -0.078125 C 1.128906 -0.078125 1.0625 -0.0976562 1 -0.140625 Z M 1 -0.140625 "/></g></g></g><g fill="#000000" fill-opacity="1"><g transform="translate(19.590177, 5.679281)"><g><path d="M 0.953125 0.046875 C 0.992188 -0.015625 0.992188 -0.0664062 0.953125 -0.109375 C 0.929688 -0.140625 0.910156 -0.148438 0.890625 -0.140625 C 0.867188 -0.128906 0.847656 -0.117188 0.828125 -0.109375 C 0.804688 -0.0859375 0.785156 -0.0546875 0.765625 -0.015625 C 0.753906 0.0234375 0.769531 0.0664062 0.8125 0.109375 C 0.84375 0.117188 0.867188 0.117188 0.890625 0.109375 C 0.910156 0.0976562 0.925781 0.0820312 0.9375 0.0625 Z M 2.15625 0.515625 C 2.125 0.554688 2.085938 0.601562 2.046875 0.65625 C 2.015625 0.71875 1.976562 0.769531 1.9375 0.8125 C 1.90625 0.863281 1.863281 0.90625 1.8125 0.9375 C 1.757812 0.96875 1.703125 0.988281 1.640625 1 C 1.609375 1.007812 1.570312 1.007812 1.53125 1 C 1.488281 0.988281 1.457031 0.96875 1.4375 0.9375 C 1.425781 0.90625 1.410156 0.875 1.390625 0.84375 C 1.378906 0.8125 1.363281 0.773438 1.34375 0.734375 C 1.34375 0.640625 1.347656 0.554688 1.359375 0.484375 C 1.378906 0.410156 1.394531 0.332031 1.40625 0.25 C 1.414062 0.164062 1.421875 0.0859375 1.421875 0.015625 C 1.429688 -0.0546875 1.429688 -0.125 1.421875 -0.1875 C 1.410156 -0.257812 1.390625 -0.3125 1.359375 -0.34375 C 1.328125 -0.375 1.289062 -0.394531 1.25 -0.40625 C 1.25 -0.375 1.257812 -0.335938 1.28125 -0.296875 C 1.3125 -0.265625 1.332031 -0.238281 1.34375 -0.21875 C 1.351562 -0.101562 1.34375 0 1.3125 0.09375 C 1.28125 0.1875 1.222656 0.269531 1.140625 0.34375 C 1.097656 0.394531 1.050781 0.429688 1 0.453125 C 0.945312 0.484375 0.894531 0.492188 0.84375 0.484375 C 0.800781 0.484375 0.75 0.472656 0.6875 0.453125 C 0.632812 0.429688 0.59375 0.394531 0.5625 0.34375 C 0.488281 0.25 0.453125 0.148438 0.453125 0.046875 C 0.460938 -0.0546875 0.484375 -0.160156 0.515625 -0.265625 C 0.535156 -0.335938 0.566406 -0.398438 0.609375 -0.453125 C 0.648438 -0.515625 0.695312 -0.570312 0.75 -0.625 C 0.8125 -0.675781 0.875 -0.71875 0.9375 -0.75 C 1 -0.78125 1.054688 -0.804688 1.109375 -0.828125 C 1.191406 -0.835938 1.265625 -0.832031 1.328125 -0.8125 C 1.390625 -0.789062 1.453125 -0.765625 1.515625 -0.734375 C 1.578125 -0.703125 1.628906 -0.660156 1.671875 -0.609375 C 1.710938 -0.566406 1.742188 -0.503906 1.765625 -0.421875 C 1.816406 -0.304688 1.84375 -0.179688 1.84375 -0.046875 C 1.832031 -0.0351562 1.828125 -0.015625 1.828125 0.015625 C 1.835938 0.0546875 1.835938 0.0976562 1.828125 0.140625 C 1.828125 0.179688 1.820312 0.21875 1.8125 0.25 C 1.8125 0.28125 1.8125 0.296875 1.8125 0.296875 C 1.820312 0.304688 1.828125 0.304688 1.828125 0.296875 C 1.835938 0.285156 1.84375 0.28125 1.84375 0.28125 C 1.90625 0.164062 1.957031 0.0546875 2 -0.046875 C 2.050781 -0.148438 2.078125 -0.265625 2.078125 -0.390625 C 2.097656 -0.484375 2.085938 -0.570312 2.046875 -0.65625 C 2.003906 -0.738281 1.945312 -0.804688 1.875 -0.859375 C 1.8125 -0.921875 1.734375 -0.96875 1.640625 -1 C 1.554688 -1.03125 1.46875 -1.046875 1.375 -1.046875 C 1.34375 -1.035156 1.3125 -1.03125 1.28125 -1.03125 C 1.257812 -1.03125 1.234375 -1.023438 1.203125 -1.015625 C 1.179688 -1.015625 1.15625 -1.015625 1.125 -1.015625 C 1.101562 -1.015625 1.082031 -1.023438 1.0625 -1.046875 C 1.03125 -1.066406 1.003906 -1.085938 0.984375 -1.109375 C 0.972656 -1.128906 0.972656 -1.15625 0.984375 -1.1875 C 0.992188 -1.226562 1.003906 -1.265625 1.015625 -1.296875 C 1.023438 -1.328125 1.046875 -1.359375 1.078125 -1.390625 C 1.085938 -1.398438 1.109375 -1.410156 1.140625 -1.421875 C 1.179688 -1.429688 1.210938 -1.441406 1.234375 -1.453125 C 1.347656 -1.460938 1.460938 -1.457031 1.578125 -1.4375 C 1.703125 -1.425781 1.820312 -1.390625 1.9375 -1.328125 C 2.070312 -1.265625 2.179688 -1.179688 2.265625 -1.078125 C 2.347656 -0.972656 2.40625 -0.859375 2.4375 -0.734375 C 2.457031 -0.765625 2.476562 -0.789062 2.5 -0.8125 C 2.519531 -0.832031 2.539062 -0.863281 2.5625 -0.90625 C 2.570312 -0.914062 2.582031 -0.929688 2.59375 -0.953125 C 2.613281 -0.972656 2.632812 -0.992188 2.65625 -1.015625 C 2.738281 -1.054688 2.8125 -1.050781 2.875 -1 C 2.9375 -0.957031 2.96875 -0.882812 2.96875 -0.78125 C 2.957031 -0.769531 2.941406 -0.753906 2.921875 -0.734375 C 2.910156 -0.710938 2.898438 -0.695312 2.890625 -0.6875 C 2.859375 -0.632812 2.796875 -0.539062 2.703125 -0.40625 C 2.617188 -0.28125 2.519531 -0.144531 2.40625 0 C 2.34375 0.1875 2.257812 0.359375 2.15625 0.515625 Z M 2.15625 0.515625 "/></g></g></g><g fill="#000000" fill-opacity="1"><g transform="translate(5.250847, 25.457131)"><g><path d="M 2.359375 -0.6875 C 2.335938 -0.65625 2.316406 -0.617188 2.296875 -0.578125 C 2.285156 -0.535156 2.257812 -0.503906 2.21875 -0.484375 C 2.1875 -0.460938 2.144531 -0.4375 2.09375 -0.40625 C 2.039062 -0.375 1.984375 -0.347656 1.921875 -0.328125 C 1.753906 -0.253906 1.582031 -0.242188 1.40625 -0.296875 C 1.363281 -0.285156 1.304688 -0.285156 1.234375 -0.296875 C 1.171875 -0.304688 1.09375 -0.3125 1 -0.3125 L 0.921875 -0.03125 C 0.910156 0 0.894531 0.0351562 0.875 0.078125 C 0.863281 0.117188 0.851562 0.160156 0.84375 0.203125 C 0.820312 0.242188 0.800781 0.285156 0.78125 0.328125 C 0.769531 0.367188 0.753906 0.398438 0.734375 0.421875 C 0.710938 0.441406 0.6875 0.457031 0.65625 0.46875 C 0.625 0.488281 0.582031 0.492188 0.53125 0.484375 C 0.46875 0.453125 0.429688 0.421875 0.421875 0.390625 C 0.410156 0.367188 0.40625 0.335938 0.40625 0.296875 C 0.40625 0.265625 0.414062 0.222656 0.4375 0.171875 C 0.457031 0.117188 0.472656 0.0703125 0.484375 0.03125 C 0.492188 -0.0078125 0.507812 -0.0546875 0.53125 -0.109375 C 0.53125 -0.148438 0.539062 -0.203125 0.5625 -0.265625 C 0.59375 -0.335938 0.625 -0.421875 0.65625 -0.515625 L 0.65625 -0.546875 C 0.664062 -0.554688 0.675781 -0.570312 0.6875 -0.59375 C 0.695312 -0.625 0.703125 -0.65625 0.703125 -0.6875 C 0.710938 -0.726562 0.722656 -0.757812 0.734375 -0.78125 C 0.742188 -0.800781 0.75 -0.816406 0.75 -0.828125 C 0.757812 -0.847656 0.769531 -0.878906 0.78125 -0.921875 C 0.800781 -0.972656 0.820312 -1.019531 0.84375 -1.0625 C 0.875 -1.101562 0.898438 -1.144531 0.921875 -1.1875 C 0.941406 -1.238281 0.953125 -1.273438 0.953125 -1.296875 C 0.972656 -1.347656 0.988281 -1.390625 1 -1.421875 C 1.007812 -1.460938 1.015625 -1.5 1.015625 -1.53125 C 1.015625 -1.539062 1.019531 -1.5625 1.03125 -1.59375 C 1.050781 -1.625 1.066406 -1.65625 1.078125 -1.6875 C 1.097656 -1.726562 1.117188 -1.765625 1.140625 -1.796875 C 1.160156 -1.835938 1.179688 -1.863281 1.203125 -1.875 C 1.296875 -1.882812 1.394531 -1.867188 1.5 -1.828125 L 1.53125 -1.8125 C 1.664062 -1.8125 1.785156 -1.789062 1.890625 -1.75 C 1.929688 -1.726562 2.03125 -1.660156 2.1875 -1.546875 L 2.34375 -1.390625 C 2.375 -1.335938 2.398438 -1.289062 2.421875 -1.25 C 2.453125 -1.207031 2.46875 -1.15625 2.46875 -1.09375 C 2.46875 -1.039062 2.457031 -0.984375 2.4375 -0.921875 C 2.425781 -0.859375 2.398438 -0.78125 2.359375 -0.6875 Z M 1.953125 -0.796875 C 1.984375 -0.847656 2.007812 -0.894531 2.03125 -0.9375 C 2.050781 -1.007812 2.039062 -1.085938 2 -1.171875 C 1.96875 -1.265625 1.882812 -1.335938 1.75 -1.390625 C 1.6875 -1.410156 1.578125 -1.425781 1.421875 -1.4375 C 1.410156 -1.382812 1.390625 -1.316406 1.359375 -1.234375 C 1.335938 -1.160156 1.304688 -1.078125 1.265625 -0.984375 C 1.265625 -0.984375 1.253906 -0.957031 1.234375 -0.90625 C 1.222656 -0.875 1.210938 -0.84375 1.203125 -0.8125 C 1.191406 -0.78125 1.175781 -0.738281 1.15625 -0.6875 C 1.175781 -0.6875 1.207031 -0.679688 1.25 -0.671875 C 1.289062 -0.660156 1.320312 -0.65625 1.34375 -0.65625 C 1.375 -0.65625 1.398438 -0.65625 1.421875 -0.65625 C 1.453125 -0.664062 1.46875 -0.671875 1.46875 -0.671875 C 1.6875 -0.640625 1.847656 -0.679688 1.953125 -0.796875 Z M 1.953125 -0.796875 "/></g></g></g><g fill="#000000" fill-opacity="1"><g transform="translate(7.347812, 26.272437)"><g><path d="M 1.84375 0.328125 C 1.726562 0.398438 1.601562 0.453125 1.46875 0.484375 C 1.332031 0.515625 1.203125 0.515625 1.078125 0.484375 C 0.972656 0.453125 0.84375 0.394531 0.6875 0.3125 C 0.632812 0.25 0.585938 0.179688 0.546875 0.109375 C 0.515625 0.046875 0.476562 -0.0195312 0.4375 -0.09375 C 0.40625 -0.164062 0.382812 -0.242188 0.375 -0.328125 C 0.375 -0.421875 0.390625 -0.503906 0.421875 -0.578125 C 0.421875 -0.597656 0.425781 -0.628906 0.4375 -0.671875 C 0.445312 -0.710938 0.457031 -0.75 0.46875 -0.78125 C 0.488281 -0.820312 0.503906 -0.859375 0.515625 -0.890625 C 0.535156 -0.921875 0.546875 -0.9375 0.546875 -0.9375 C 0.617188 -1.007812 0.703125 -1.082031 0.796875 -1.15625 C 0.890625 -1.226562 1.003906 -1.28125 1.140625 -1.3125 C 1.347656 -1.300781 1.488281 -1.285156 1.5625 -1.265625 C 1.601562 -1.253906 1.640625 -1.238281 1.671875 -1.21875 C 1.710938 -1.207031 1.742188 -1.1875 1.765625 -1.15625 C 1.796875 -1.132812 1.820312 -1.109375 1.84375 -1.078125 C 1.863281 -1.046875 1.890625 -1.007812 1.921875 -0.96875 C 1.941406 -0.894531 1.96875 -0.847656 2 -0.828125 C 2.03125 -0.804688 2.039062 -0.785156 2.03125 -0.765625 C 1.957031 -0.503906 1.828125 -0.347656 1.640625 -0.296875 C 1.554688 -0.285156 1.453125 -0.285156 1.328125 -0.296875 C 1.203125 -0.304688 1.03125 -0.320312 0.8125 -0.34375 C 0.832031 -0.226562 0.867188 -0.128906 0.921875 -0.046875 C 0.984375 0.0234375 1.050781 0.0703125 1.125 0.09375 C 1.25 0.125 1.425781 0.09375 1.65625 0 C 1.6875 -0.0195312 1.722656 -0.0234375 1.765625 -0.015625 C 1.816406 0.00390625 1.851562 0.0351562 1.875 0.078125 C 1.90625 0.128906 1.914062 0.179688 1.90625 0.234375 C 1.894531 0.273438 1.875 0.304688 1.84375 0.328125 Z M 1.609375 -0.734375 C 1.578125 -0.835938 1.523438 -0.898438 1.453125 -0.921875 C 1.410156 -0.929688 1.375 -0.9375 1.34375 -0.9375 C 1.3125 -0.9375 1.269531 -0.929688 1.21875 -0.921875 C 1.175781 -0.921875 1.132812 -0.910156 1.09375 -0.890625 C 1.050781 -0.878906 1.019531 -0.859375 1 -0.828125 L 0.90625 -0.71875 C 1 -0.707031 1.082031 -0.691406 1.15625 -0.671875 C 1.238281 -0.660156 1.304688 -0.65625 1.359375 -0.65625 C 1.421875 -0.65625 1.472656 -0.65625 1.515625 -0.65625 C 1.566406 -0.664062 1.597656 -0.691406 1.609375 -0.734375 Z M 1.609375 -0.734375 "/></g></g></g><g fill="#000000" fill-opacity="1"><g transform="translate(9.48818, 26.853296)"><g><path d="M 1.6875 -1.390625 C 1.707031 -1.359375 1.710938 -1.304688 1.703125 -1.234375 C 1.679688 -1.117188 1.628906 -1.066406 1.546875 -1.078125 L 1.53125 -1.09375 C 1.476562 -1.101562 1.421875 -1.109375 1.359375 -1.109375 C 1.304688 -1.117188 1.242188 -1.125 1.171875 -1.125 C 1.148438 -1.070312 1.128906 -1.003906 1.109375 -0.921875 C 1.085938 -0.847656 1.066406 -0.753906 1.046875 -0.640625 C 1.046875 -0.640625 1.039062 -0.632812 1.03125 -0.625 C 1.03125 -0.613281 1.03125 -0.601562 1.03125 -0.59375 L 1 -0.390625 C 0.988281 -0.335938 0.988281 -0.300781 1 -0.28125 C 1.007812 -0.257812 1.03125 -0.234375 1.0625 -0.203125 L 1.171875 -0.15625 C 1.265625 -0.101562 1.300781 -0.03125 1.28125 0.0625 C 1.269531 0.101562 1.242188 0.140625 1.203125 0.171875 C 1.160156 0.210938 1.101562 0.222656 1.03125 0.203125 C 1.019531 0.203125 0.988281 0.191406 0.9375 0.171875 C 0.894531 0.160156 0.851562 0.140625 0.8125 0.109375 C 0.78125 0.078125 0.742188 0.046875 0.703125 0.015625 C 0.671875 -0.015625 0.644531 -0.0507812 0.625 -0.09375 C 0.613281 -0.15625 0.601562 -0.222656 0.59375 -0.296875 C 0.582031 -0.378906 0.585938 -0.460938 0.609375 -0.546875 C 0.617188 -0.640625 0.628906 -0.703125 0.640625 -0.734375 C 0.660156 -0.773438 0.671875 -0.8125 0.671875 -0.84375 C 0.679688 -0.875 0.691406 -0.910156 0.703125 -0.953125 C 0.710938 -0.992188 0.726562 -1.0625 0.75 -1.15625 C 0.707031 -1.164062 0.625 -1.164062 0.5 -1.15625 C 0.4375 -1.164062 0.382812 -1.1875 0.34375 -1.21875 C 0.3125 -1.257812 0.300781 -1.304688 0.3125 -1.359375 C 0.3125 -1.398438 0.328125 -1.4375 0.359375 -1.46875 C 0.398438 -1.507812 0.457031 -1.53125 0.53125 -1.53125 C 0.5625 -1.539062 0.585938 -1.546875 0.609375 -1.546875 C 0.628906 -1.546875 0.648438 -1.539062 0.671875 -1.53125 C 0.703125 -1.53125 0.726562 -1.53125 0.75 -1.53125 C 0.78125 -1.53125 0.8125 -1.53125 0.84375 -1.53125 C 0.863281 -1.59375 0.882812 -1.671875 0.90625 -1.765625 C 0.925781 -1.859375 0.953125 -1.941406 0.984375 -2.015625 C 1.023438 -2.085938 1.066406 -2.144531 1.109375 -2.1875 C 1.160156 -2.238281 1.21875 -2.257812 1.28125 -2.25 C 1.382812 -2.226562 1.441406 -2.171875 1.453125 -2.078125 C 1.453125 -2.078125 1.441406 -2.054688 1.421875 -2.015625 C 1.410156 -1.984375 1.394531 -1.945312 1.375 -1.90625 C 1.351562 -1.863281 1.335938 -1.820312 1.328125 -1.78125 C 1.316406 -1.75 1.3125 -1.726562 1.3125 -1.71875 L 1.25 -1.5 C 1.269531 -1.488281 1.289062 -1.484375 1.3125 -1.484375 C 1.332031 -1.484375 1.351562 -1.476562 1.375 -1.46875 L 1.40625 -1.46875 C 1.425781 -1.46875 1.445312 -1.46875 1.46875 -1.46875 C 1.488281 -1.46875 1.503906 -1.46875 1.515625 -1.46875 C 1.609375 -1.445312 1.664062 -1.421875 1.6875 -1.390625 Z M 1.6875 -1.390625 "/></g></g></g><g fill="#000000" fill-opacity="1"><g transform="translate(11.086613, 27.157068)"><g/></g></g><g fill="#000000" fill-opacity="1"><g transform="translate(13.045609, 27.36933)"><g><path d="M 1.9375 -0.890625 C 1.9375 -0.796875 1.929688 -0.722656 1.921875 -0.671875 C 1.921875 -0.617188 1.914062 -0.578125 1.90625 -0.546875 C 1.90625 -0.515625 1.898438 -0.484375 1.890625 -0.453125 C 1.878906 -0.421875 1.863281 -0.390625 1.84375 -0.359375 C 1.78125 -0.210938 1.679688 -0.0976562 1.546875 -0.015625 C 1.421875 0.0546875 1.257812 0.0859375 1.0625 0.078125 C 0.988281 0.078125 0.929688 0.078125 0.890625 0.078125 C 0.847656 0.078125 0.800781 0.0664062 0.75 0.046875 C 0.695312 0.0351562 0.632812 0.015625 0.5625 -0.015625 C 0.488281 -0.0546875 0.382812 -0.113281 0.25 -0.1875 C 0.144531 -0.238281 0.09375 -0.3125 0.09375 -0.40625 C 0.09375 -0.457031 0.109375 -0.503906 0.140625 -0.546875 C 0.179688 -0.585938 0.226562 -0.613281 0.28125 -0.625 C 0.5 -0.550781 0.644531 -0.476562 0.71875 -0.40625 C 0.832031 -0.351562 0.960938 -0.328125 1.109375 -0.328125 C 1.242188 -0.316406 1.347656 -0.351562 1.421875 -0.4375 C 1.429688 -0.46875 1.441406 -0.507812 1.453125 -0.5625 C 1.472656 -0.625 1.484375 -0.695312 1.484375 -0.78125 C 1.484375 -0.84375 1.460938 -0.894531 1.421875 -0.9375 C 1.378906 -0.988281 1.332031 -1.03125 1.28125 -1.0625 C 1.226562 -1.09375 1.164062 -1.125 1.09375 -1.15625 C 1.019531 -1.1875 0.945312 -1.21875 0.875 -1.25 C 0.832031 -1.269531 0.785156 -1.289062 0.734375 -1.3125 C 0.679688 -1.34375 0.628906 -1.378906 0.578125 -1.421875 C 0.453125 -1.640625 0.390625 -1.796875 0.390625 -1.890625 C 0.390625 -2.109375 0.519531 -2.320312 0.78125 -2.53125 C 1.03125 -2.601562 1.203125 -2.640625 1.296875 -2.640625 C 1.328125 -2.640625 1.367188 -2.628906 1.421875 -2.609375 C 1.472656 -2.585938 1.523438 -2.554688 1.578125 -2.515625 C 1.628906 -2.484375 1.671875 -2.445312 1.703125 -2.40625 C 1.742188 -2.363281 1.765625 -2.320312 1.765625 -2.28125 C 1.765625 -2.226562 1.742188 -2.179688 1.703125 -2.140625 C 1.660156 -2.109375 1.609375 -2.09375 1.546875 -2.09375 C 1.546875 -2.09375 1.53125 -2.097656 1.5 -2.109375 C 1.476562 -2.128906 1.445312 -2.148438 1.40625 -2.171875 C 1.375 -2.191406 1.335938 -2.210938 1.296875 -2.234375 C 1.253906 -2.253906 1.222656 -2.265625 1.203125 -2.265625 C 1.148438 -2.273438 1.097656 -2.265625 1.046875 -2.234375 C 1.003906 -2.210938 0.960938 -2.179688 0.921875 -2.140625 C 0.890625 -2.109375 0.863281 -2.070312 0.84375 -2.03125 C 0.820312 -1.988281 0.8125 -1.945312 0.8125 -1.90625 C 0.8125 -1.84375 0.832031 -1.785156 0.875 -1.734375 C 0.914062 -1.679688 0.96875 -1.632812 1.03125 -1.59375 L 1.3125 -1.484375 C 1.382812 -1.460938 1.453125 -1.429688 1.515625 -1.390625 C 1.585938 -1.347656 1.648438 -1.300781 1.703125 -1.25 C 1.765625 -1.195312 1.8125 -1.140625 1.84375 -1.078125 C 1.882812 -1.015625 1.914062 -0.953125 1.9375 -0.890625 Z M 1.9375 -0.890625 "/></g></g></g><g fill="#000000" fill-opacity="1"><g transform="translate(15.438036, 27.377995)"><g><path d="M 1.78125 -0.359375 C 1.769531 -0.316406 1.742188 -0.269531 1.703125 -0.21875 C 1.660156 -0.175781 1.625 -0.15625 1.59375 -0.15625 C 1.507812 -0.144531 1.445312 -0.203125 1.40625 -0.328125 C 1.375 -0.453125 1.347656 -0.625 1.328125 -0.84375 L 1.3125 -0.890625 C 1.300781 -1.003906 1.285156 -1.082031 1.265625 -1.125 C 1.242188 -1.175781 1.226562 -1.207031 1.21875 -1.21875 C 1.175781 -1.289062 1.125 -1.320312 1.0625 -1.3125 C 1.007812 -1.3125 0.960938 -1.300781 0.921875 -1.28125 C 0.890625 -1.257812 0.851562 -1.234375 0.8125 -1.203125 C 0.78125 -1.171875 0.753906 -1.144531 0.734375 -1.125 C 0.710938 -1.101562 0.703125 -1.09375 0.703125 -1.09375 C 0.691406 -1.070312 0.6875 -1.035156 0.6875 -0.984375 C 0.6875 -0.929688 0.6875 -0.867188 0.6875 -0.796875 C 0.695312 -0.734375 0.703125 -0.664062 0.703125 -0.59375 C 0.703125 -0.53125 0.703125 -0.46875 0.703125 -0.40625 C 0.710938 -0.351562 0.71875 -0.3125 0.71875 -0.28125 C 0.726562 -0.25 0.734375 -0.238281 0.734375 -0.25 C 0.734375 -0.164062 0.675781 -0.117188 0.5625 -0.109375 C 0.46875 -0.0976562 0.40625 -0.117188 0.375 -0.171875 C 0.34375 -0.222656 0.316406 -0.316406 0.296875 -0.453125 C 0.296875 -0.484375 0.296875 -0.5 0.296875 -0.5 C 0.304688 -0.507812 0.304688 -0.523438 0.296875 -0.546875 C 0.296875 -0.578125 0.296875 -0.617188 0.296875 -0.671875 C 0.296875 -0.734375 0.296875 -0.835938 0.296875 -0.984375 C 0.285156 -1.046875 0.28125 -1.101562 0.28125 -1.15625 C 0.289062 -1.207031 0.289062 -1.253906 0.28125 -1.296875 C 0.28125 -1.328125 0.273438 -1.351562 0.265625 -1.375 C 0.265625 -1.394531 0.257812 -1.40625 0.25 -1.40625 C 0.257812 -1.425781 0.265625 -1.457031 0.265625 -1.5 C 0.265625 -1.550781 0.257812 -1.601562 0.25 -1.65625 C 0.25 -1.707031 0.25 -1.757812 0.25 -1.8125 C 0.257812 -1.863281 0.265625 -1.898438 0.265625 -1.921875 C 0.265625 -1.984375 0.257812 -2.050781 0.25 -2.125 C 0.25 -2.207031 0.253906 -2.285156 0.265625 -2.359375 C 0.273438 -2.429688 0.296875 -2.492188 0.328125 -2.546875 C 0.359375 -2.609375 0.410156 -2.644531 0.484375 -2.65625 C 0.597656 -2.664062 0.660156 -2.59375 0.671875 -2.4375 C 0.679688 -2.351562 0.675781 -2.226562 0.65625 -2.0625 C 0.65625 -1.988281 0.65625 -1.925781 0.65625 -1.875 C 0.65625 -1.832031 0.65625 -1.796875 0.65625 -1.765625 C 0.65625 -1.734375 0.648438 -1.703125 0.640625 -1.671875 C 0.640625 -1.648438 0.644531 -1.613281 0.65625 -1.5625 C 0.71875 -1.632812 0.78125 -1.675781 0.84375 -1.6875 C 0.914062 -1.707031 0.984375 -1.722656 1.046875 -1.734375 C 1.203125 -1.742188 1.328125 -1.707031 1.421875 -1.625 C 1.515625 -1.550781 1.585938 -1.414062 1.640625 -1.21875 C 1.648438 -1.144531 1.660156 -1.085938 1.671875 -1.046875 C 1.679688 -1.015625 1.6875 -0.972656 1.6875 -0.921875 C 1.695312 -0.867188 1.707031 -0.800781 1.71875 -0.71875 C 1.738281 -0.632812 1.757812 -0.515625 1.78125 -0.359375 Z M 1.78125 -0.359375 "/></g></g></g><g fill="#000000" fill-opacity="1"><g transform="translate(17.692762, 27.144995)"><g><path d="M 1.40625 -0.390625 C 1.363281 -0.359375 1.300781 -0.320312 1.21875 -0.28125 C 1.144531 -0.238281 1.0625 -0.195312 0.96875 -0.15625 L 0.796875 -0.15625 C 0.765625 -0.15625 0.710938 -0.164062 0.640625 -0.1875 C 0.578125 -0.207031 0.507812 -0.242188 0.4375 -0.296875 C 0.363281 -0.359375 0.289062 -0.4375 0.21875 -0.53125 C 0.15625 -0.625 0.109375 -0.742188 0.078125 -0.890625 C 0.0664062 -0.941406 0.0664062 -1.003906 0.078125 -1.078125 C 0.0976562 -1.160156 0.125 -1.238281 0.15625 -1.3125 C 0.1875 -1.382812 0.234375 -1.445312 0.296875 -1.5 C 0.367188 -1.5625 0.457031 -1.601562 0.5625 -1.625 C 0.769531 -1.65625 0.957031 -1.625 1.125 -1.53125 C 1.3125 -1.375 1.425781 -1.175781 1.46875 -0.9375 C 1.5 -0.769531 1.476562 -0.585938 1.40625 -0.390625 Z M 1.078125 -0.96875 C 1.035156 -1.082031 0.976562 -1.164062 0.90625 -1.21875 C 0.832031 -1.28125 0.75 -1.300781 0.65625 -1.28125 C 0.601562 -1.269531 0.554688 -1.226562 0.515625 -1.15625 C 0.472656 -1.09375 0.460938 -1.003906 0.484375 -0.890625 C 0.492188 -0.847656 0.507812 -0.800781 0.53125 -0.75 C 0.550781 -0.695312 0.578125 -0.65625 0.609375 -0.625 C 0.640625 -0.59375 0.675781 -0.570312 0.71875 -0.5625 C 0.769531 -0.550781 0.828125 -0.550781 0.890625 -0.5625 C 0.984375 -0.582031 1.039062 -0.617188 1.0625 -0.671875 C 1.09375 -0.734375 1.101562 -0.804688 1.09375 -0.890625 C 1.09375 -0.898438 1.085938 -0.910156 1.078125 -0.921875 C 1.078125 -0.929688 1.078125 -0.945312 1.078125 -0.96875 Z M 1.078125 -0.96875 "/></g></g></g><g fill="#000000" fill-opacity="1"><g transform="translate(19.630434, 26.765917)"><g><path d="M 1.484375 -1.40625 L 1.5 -1.375 C 1.507812 -1.320312 1.519531 -1.273438 1.53125 -1.234375 C 1.539062 -1.191406 1.539062 -1.140625 1.53125 -1.078125 L 1.5 -0.890625 C 1.488281 -0.847656 1.460938 -0.800781 1.421875 -0.75 C 1.378906 -0.695312 1.332031 -0.644531 1.28125 -0.59375 C 1.238281 -0.550781 1.191406 -0.507812 1.140625 -0.46875 C 1.085938 -0.4375 1.039062 -0.414062 1 -0.40625 L 0.953125 -0.390625 C 0.941406 -0.378906 0.925781 -0.367188 0.90625 -0.359375 C 0.894531 -0.347656 0.875 -0.335938 0.84375 -0.328125 C 0.820312 -0.316406 0.800781 -0.300781 0.78125 -0.28125 C 0.757812 -0.269531 0.742188 -0.265625 0.734375 -0.265625 C 0.742188 -0.222656 0.75 -0.191406 0.75 -0.171875 C 0.757812 -0.160156 0.769531 -0.140625 0.78125 -0.109375 C 0.789062 -0.078125 0.800781 -0.0351562 0.8125 0.015625 C 0.820312 0.078125 0.847656 0.179688 0.890625 0.328125 C 0.910156 0.367188 0.921875 0.414062 0.921875 0.46875 C 0.929688 0.519531 0.941406 0.59375 0.953125 0.6875 C 0.929688 0.71875 0.890625 0.742188 0.828125 0.765625 C 0.773438 0.773438 0.726562 0.773438 0.6875 0.765625 C 0.644531 0.753906 0.613281 0.726562 0.59375 0.6875 C 0.570312 0.644531 0.554688 0.601562 0.546875 0.5625 C 0.535156 0.53125 0.523438 0.503906 0.515625 0.484375 C 0.503906 0.441406 0.5 0.398438 0.5 0.359375 C 0.5 0.328125 0.488281 0.28125 0.46875 0.21875 C 0.457031 0.1875 0.441406 0.15625 0.421875 0.125 C 0.410156 0.09375 0.398438 0.0546875 0.390625 0.015625 C 0.367188 -0.0546875 0.351562 -0.117188 0.34375 -0.171875 C 0.332031 -0.234375 0.320312 -0.289062 0.3125 -0.34375 C 0.289062 -0.394531 0.257812 -0.492188 0.21875 -0.640625 C 0.175781 -0.765625 0.148438 -0.867188 0.140625 -0.953125 C 0.0976562 -1.035156 0.0625 -1.113281 0.03125 -1.1875 C 0.0078125 -1.257812 -0.00390625 -1.316406 -0.015625 -1.359375 C -0.0351562 -1.410156 -0.0351562 -1.457031 -0.015625 -1.5 C 0.00390625 -1.539062 0.0507812 -1.570312 0.125 -1.59375 C 0.175781 -1.613281 0.21875 -1.617188 0.25 -1.609375 L 0.3125 -1.546875 C 0.363281 -1.597656 0.421875 -1.644531 0.484375 -1.6875 C 0.546875 -1.726562 0.625 -1.757812 0.71875 -1.78125 C 0.90625 -1.84375 1.066406 -1.84375 1.203125 -1.78125 C 1.335938 -1.71875 1.429688 -1.59375 1.484375 -1.40625 Z M 1.140625 -1.171875 C 1.128906 -1.222656 1.117188 -1.265625 1.109375 -1.296875 C 1.097656 -1.335938 1.066406 -1.367188 1.015625 -1.390625 C 0.972656 -1.421875 0.914062 -1.425781 0.84375 -1.40625 L 0.796875 -1.390625 C 0.734375 -1.367188 0.695312 -1.363281 0.6875 -1.375 C 0.613281 -1.34375 0.546875 -1.269531 0.484375 -1.15625 C 0.484375 -1.15625 0.488281 -1.140625 0.5 -1.109375 C 0.507812 -1.085938 0.519531 -1.050781 0.53125 -1 C 0.550781 -0.925781 0.566406 -0.867188 0.578125 -0.828125 C 0.585938 -0.785156 0.597656 -0.75 0.609375 -0.71875 C 0.609375 -0.695312 0.609375 -0.675781 0.609375 -0.65625 C 0.617188 -0.644531 0.628906 -0.640625 0.640625 -0.640625 C 0.640625 -0.640625 0.648438 -0.644531 0.671875 -0.65625 C 0.703125 -0.675781 0.726562 -0.691406 0.75 -0.703125 C 0.78125 -0.710938 0.800781 -0.722656 0.8125 -0.734375 C 0.820312 -0.742188 0.828125 -0.75 0.828125 -0.75 C 0.847656 -0.757812 0.867188 -0.769531 0.890625 -0.78125 C 0.921875 -0.800781 0.945312 -0.816406 0.96875 -0.828125 C 0.988281 -0.847656 1.007812 -0.863281 1.03125 -0.875 C 1.050781 -0.894531 1.066406 -0.90625 1.078125 -0.90625 C 1.109375 -0.96875 1.128906 -1.054688 1.140625 -1.171875 Z M 1.140625 -1.171875 "/></g></g></g><g fill="#000000" fill-opacity="1"><g transform="translate(21.705619, 26.145151)"><g/></g></g><path fill="#fbdc08" d="M 12.273438 15.046875 C 11.589844 15.101562 11.054688 15.648438 10.878906 16.46875 C 10.730469 17.1875 11.15625 18.070312 11.777344 18.320312 C 12.484375 18.601562 13.464844 18.3125 13.871094 17.710938 C 14.285156 17.089844 14.097656 15.949219 13.503906 15.441406 C 13.207031 15.1875 12.722656 15.007812 12.402344 15.035156 C 12.390625 15.035156 12.332031 15.039062 12.273438 15.046875 M 17.257812 15.109375 C 16.734375 15.171875 16.214844 15.777344 16.0625 16.5 C 16.054688 16.550781 16.035156 16.636719 16.023438 16.691406 C 15.890625 17.257812 16.167969 17.976562 16.636719 18.289062 C 17.214844 18.667969 17.984375 18.5 18.425781 17.890625 C 18.761719 17.429688 18.730469 16.511719 18.363281 15.746094 C 18.148438 15.304688 17.714844 15.054688 17.257812 15.109375 M 13.191406 16.203125 C 13.410156 16.316406 13.511719 16.679688 13.433594 17.054688 C 13.316406 17.617188 12.753906 17.621094 12.65625 17.058594 C 12.558594 16.492188 12.847656 16.027344 13.191406 16.203125 M 17.105469 16.207031 C 17.320312 16.304688 17.433594 16.582031 17.4375 17.003906 C 17.4375 17.210938 17.425781 17.273438 17.355469 17.382812 C 17.140625 17.714844 16.71875 17.503906 16.679688 17.042969 C 16.632812 16.496094 16.839844 16.082031 17.105469 16.207031 M 15.035156 18.066406 C 14.882812 18.089844 14.757812 18.148438 14.734375 18.203125 C 14.65625 18.410156 15.5625 18.472656 15.65625 18.269531 C 15.714844 18.140625 15.335938 18.015625 15.035156 18.066406 " fill-opacity="1" fill-rule="evenodd"/><g clip-path="url(#ba979fcd82)"><path fill="#040404" d="M 8.867188 9.703125 C 8.417969 9.820312 8.160156 10.21875 7.875 11.230469 C 7.65625 12.007812 7.589844 12.582031 7.648438 13.195312 C 7.675781 13.46875 7.671875 13.886719 7.644531 14.144531 C 7.628906 14.277344 7.609375 14.429688 7.601562 14.480469 C 7.558594 14.875 7.613281 15.1875 7.820312 15.65625 C 7.964844 15.984375 7.964844 16.09375 7.828125 16.523438 C 7.644531 17.101562 7.601562 17.542969 7.703125 17.835938 C 7.722656 17.894531 7.722656 17.914062 7.6875 17.914062 C 7.625 17.914062 7.382812 18.070312 7.277344 18.175781 L 7.191406 18.261719 L 7.113281 18.238281 C 6.988281 18.203125 6.679688 18.203125 6.539062 18.238281 C 6.144531 18.335938 5.839844 18.5625 5.691406 18.875 L 5.632812 18.988281 L 5.527344 19.042969 C 5.226562 19.191406 5.058594 19.515625 5.058594 19.953125 C 5.054688 20.375 5.285156 20.695312 5.585938 20.695312 C 5.621094 20.695312 5.625 20.703125 5.648438 20.742188 C 5.820312 21.046875 6.347656 21.171875 6.773438 21.011719 C 6.890625 20.96875 7.078125 20.871094 7.101562 20.839844 C 7.117188 20.816406 7.148438 20.820312 7.164062 20.839844 C 7.445312 21.195312 8.050781 21.277344 8.496094 21.023438 C 8.542969 20.996094 8.589844 20.96875 8.601562 20.960938 C 8.617188 20.953125 8.664062 20.914062 8.714844 20.867188 L 8.800781 20.789062 L 8.871094 20.84375 C 9.003906 20.949219 9.113281 20.992188 9.269531 21.007812 C 9.691406 21.042969 9.984375 20.738281 10.015625 20.238281 L 10.023438 20.132812 L 10.699219 20.140625 C 11.660156 20.148438 13.457031 20.148438 16.292969 20.136719 C 20.484375 20.121094 20.929688 20.121094 21.066406 20.125 L 21.199219 20.128906 L 21.214844 20.167969 C 21.394531 20.71875 22.144531 20.96875 22.585938 20.628906 L 22.640625 20.585938 L 22.722656 20.652344 C 23.054688 20.933594 23.617188 20.953125 23.929688 20.699219 C 23.984375 20.65625 23.96875 20.648438 24.082031 20.761719 C 24.441406 21.121094 25.003906 21.125 25.386719 20.769531 L 25.441406 20.71875 L 25.476562 20.746094 C 25.832031 21.011719 26.417969 20.761719 26.589844 20.269531 C 26.878906 19.460938 26.246094 18.570312 25.253906 18.371094 C 25.164062 18.355469 25.101562 18.351562 24.960938 18.351562 L 24.785156 18.351562 L 24.710938 18.304688 C 24.152344 17.925781 23.269531 17.882812 22.675781 18.203125 C 22.609375 18.234375 22.550781 18.269531 22.542969 18.277344 C 22.535156 18.285156 22.507812 18.304688 22.484375 18.320312 C 22.460938 18.335938 22.40625 18.386719 22.363281 18.425781 L 22.289062 18.503906 L 22.234375 18.488281 C 22.003906 18.417969 21.65625 18.507812 21.414062 18.695312 C 21.316406 18.773438 21.308594 18.773438 21.300781 18.75 C 21.253906 18.621094 21.222656 18.546875 21.179688 18.453125 C 20.96875 18 20.964844 17.683594 21.15625 17.257812 C 21.398438 16.734375 21.417969 16.597656 21.328125 16.019531 C 21.207031 15.253906 21.371094 14.648438 22.019531 13.441406 C 22.078125 13.328125 22.148438 13.199219 22.171875 13.152344 C 22.199219 13.101562 22.242188 13.027344 22.265625 12.980469 C 22.734375 12.15625 23.023438 11.566406 23.15625 11.183594 C 23.417969 10.433594 23.199219 10.160156 22.617188 10.523438 C 22.199219 10.785156 21.554688 11.316406 20.859375 11.976562 C 20.171875 12.628906 19.8125 12.902344 19.324219 13.144531 C 19.199219 13.207031 19.023438 13.285156 18.917969 13.320312 C 18.566406 13.449219 18.300781 13.523438 17.917969 13.59375 C 17.8125 13.609375 17.792969 13.613281 17.660156 13.597656 C 17.582031 13.589844 17.40625 13.574219 17.269531 13.558594 C 16.695312 13.507812 16.25 13.441406 15.742188 13.339844 C 15.683594 13.328125 15.546875 13.304688 15.433594 13.28125 C 15.324219 13.261719 15.183594 13.234375 15.125 13.222656 C 14.152344 13.03125 13.664062 13.007812 12.785156 13.109375 C 12.011719 13.195312 11.886719 13.144531 11.386719 12.527344 C 11.152344 12.238281 11.132812 12.21875 10.777344 11.863281 C 10.410156 11.496094 10.402344 11.488281 10.308594 11.160156 C 10.273438 11.046875 10.277344 11.050781 10.199219 10.871094 C 10.140625 10.738281 10.023438 10.507812 10 10.480469 C 9.992188 10.472656 9.984375 10.460938 9.984375 10.457031 C 9.984375 10.445312 9.839844 10.226562 9.824219 10.21875 C 9.816406 10.210938 9.8125 10.203125 9.8125 10.199219 C 9.8125 10.140625 9.476562 9.855469 9.332031 9.785156 C 9.183594 9.71875 8.964844 9.679688 8.867188 9.703125 M 12.75 15.0625 C 13.265625 15.175781 13.648438 15.46875 13.882812 15.933594 C 14.132812 16.429688 14.167969 17.15625 13.957031 17.570312 C 13.695312 18.09375 13.101562 18.421875 12.414062 18.421875 C 11.769531 18.421875 11.429688 18.238281 11.121094 17.730469 C 10.671875 16.980469 10.785156 16.0625 11.410156 15.441406 C 11.644531 15.210938 11.855469 15.105469 12.222656 15.039062 C 12.300781 15.027344 12.648438 15.042969 12.75 15.0625 M 17.527344 15.113281 C 17.910156 15.171875 18.179688 15.367188 18.359375 15.726562 C 18.730469 16.464844 18.765625 17.453125 18.441406 17.882812 C 17.632812 18.941406 16.222656 18.578125 16.015625 17.257812 C 15.898438 16.515625 16.304688 15.578125 16.890625 15.226562 C 17.078125 15.113281 17.28125 15.078125 17.527344 15.113281 M 12.980469 16.179688 C 12.578125 16.257812 12.515625 17.269531 12.898438 17.445312 C 13.042969 17.511719 13.175781 17.472656 13.296875 17.328125 C 13.496094 17.089844 13.503906 16.511719 13.308594 16.296875 C 13.226562 16.203125 13.09375 16.15625 12.980469 16.179688 M 16.914062 16.214844 C 16.703125 16.3125 16.597656 16.976562 16.746094 17.28125 C 16.910156 17.613281 17.265625 17.621094 17.394531 17.292969 L 17.429688 17.210938 L 17.425781 16.976562 C 17.421875 16.4375 17.1875 16.09375 16.914062 16.214844 M 15.4375 18.082031 C 15.84375 18.183594 15.695312 18.402344 15.226562 18.398438 C 14.703125 18.394531 14.53125 18.164062 14.988281 18.074219 C 15.160156 18.039062 15.269531 18.042969 15.4375 18.082031 " fill-opacity="1" fill-rule="evenodd"/></g><path fill="#5c4f05" d="M 12.277344 15.042969 C 12.296875 15.042969 12.328125 15.042969 12.347656 15.042969 C 12.367188 15.039062 12.351562 15.035156 12.3125 15.035156 C 12.273438 15.035156 12.257812 15.039062 12.277344 15.042969 M 12.507812 15.042969 C 12.527344 15.042969 12.554688 15.042969 12.570312 15.039062 C 12.585938 15.039062 12.570312 15.035156 12.535156 15.035156 C 12.5 15.035156 12.484375 15.039062 12.507812 15.042969 M 17.914062 15.246094 C 17.914062 15.25 17.929688 15.257812 17.949219 15.269531 C 17.964844 15.277344 17.980469 15.28125 17.980469 15.277344 C 17.980469 15.277344 17.964844 15.265625 17.949219 15.257812 C 17.929688 15.246094 17.914062 15.242188 17.914062 15.246094 M 11.40625 15.445312 L 11.3125 15.539062 L 11.40625 15.449219 C 11.496094 15.363281 11.507812 15.347656 11.5 15.347656 C 11.5 15.347656 11.457031 15.394531 11.40625 15.445312 M 18.128906 15.402344 C 18.15625 15.433594 18.183594 15.457031 18.1875 15.457031 C 18.191406 15.457031 18.167969 15.433594 18.136719 15.402344 C 18.109375 15.375 18.082031 15.347656 18.078125 15.347656 C 18.078125 15.347656 18.097656 15.375 18.128906 15.402344 M 16.621094 15.441406 L 16.554688 15.507812 L 16.625 15.441406 C 16.660156 15.40625 16.691406 15.375 16.691406 15.375 C 16.691406 15.367188 16.679688 15.375 16.621094 15.441406 M 13.546875 15.472656 C 13.546875 15.476562 13.5625 15.492188 13.582031 15.507812 L 13.617188 15.539062 L 13.585938 15.503906 C 13.554688 15.472656 13.546875 15.464844 13.546875 15.472656 M 13.714844 15.667969 C 13.730469 15.691406 13.746094 15.710938 13.75 15.710938 C 13.757812 15.710938 13.710938 15.644531 13.695312 15.636719 C 13.691406 15.632812 13.699219 15.648438 13.714844 15.667969 M 16.996094 16.1875 C 17.007812 16.1875 17.027344 16.1875 17.039062 16.1875 C 17.046875 16.183594 17.039062 16.179688 17.011719 16.183594 C 16.988281 16.183594 16.980469 16.183594 16.996094 16.1875 M 13.273438 16.257812 C 13.273438 16.261719 13.289062 16.277344 13.308594 16.292969 L 13.34375 16.328125 L 13.3125 16.289062 C 13.28125 16.257812 13.273438 16.25 13.273438 16.257812 M 17.226562 16.304688 C 17.289062 16.378906 17.300781 16.386719 17.273438 16.347656 C 17.261719 16.328125 17.234375 16.300781 17.214844 16.28125 C 17.1875 16.257812 17.191406 16.265625 17.226562 16.304688 M 16.730469 16.46875 C 16.726562 16.484375 16.726562 16.5 16.726562 16.503906 C 16.730469 16.503906 16.734375 16.496094 16.738281 16.476562 C 16.742188 16.460938 16.746094 16.445312 16.742188 16.445312 C 16.738281 16.441406 16.734375 16.453125 16.730469 16.46875 M 12.667969 16.570312 C 12.664062 16.589844 12.660156 16.609375 12.664062 16.609375 C 12.667969 16.613281 12.671875 16.601562 12.675781 16.582031 C 12.683594 16.535156 12.675781 16.527344 12.667969 16.570312 M 14.074219 16.570312 C 14.074219 16.59375 14.074219 16.601562 14.078125 16.589844 C 14.082031 16.582031 14.082031 16.5625 14.078125 16.550781 C 14.074219 16.542969 14.074219 16.550781 14.074219 16.570312 M 14.082031 16.691406 C 14.082031 16.710938 14.085938 16.722656 14.089844 16.710938 C 14.089844 16.699219 14.089844 16.683594 14.089844 16.671875 C 14.085938 16.664062 14.082031 16.671875 14.082031 16.691406 M 13.453125 16.804688 C 13.453125 16.867188 13.453125 16.890625 13.457031 16.859375 C 13.457031 16.824219 13.457031 16.777344 13.457031 16.75 C 13.453125 16.71875 13.453125 16.746094 13.453125 16.804688 M 16.683594 16.734375 C 16.683594 16.757812 16.683594 16.765625 16.6875 16.753906 C 16.691406 16.742188 16.691406 16.726562 16.6875 16.714844 C 16.683594 16.707031 16.683594 16.714844 16.683594 16.734375 M 10.839844 16.769531 C 10.839844 16.796875 10.84375 16.804688 10.84375 16.792969 C 10.847656 16.777344 10.847656 16.757812 10.84375 16.742188 C 10.84375 16.730469 10.839844 16.742188 10.839844 16.769531 M 18.648438 16.84375 C 18.648438 16.894531 18.652344 16.917969 18.65625 16.890625 C 18.65625 16.867188 18.65625 16.824219 18.65625 16.796875 C 18.652344 16.773438 18.648438 16.792969 18.648438 16.84375 M 17.425781 16.84375 C 17.425781 16.878906 17.429688 16.890625 17.429688 16.875 C 17.433594 16.859375 17.433594 16.832031 17.429688 16.816406 C 17.429688 16.796875 17.425781 16.8125 17.425781 16.84375 M 15.996094 16.832031 C 15.996094 16.855469 15.996094 16.863281 16 16.851562 C 16.003906 16.84375 16.003906 16.824219 16 16.816406 C 15.996094 16.804688 15.996094 16.8125 15.996094 16.832031 M 16.671875 16.933594 C 16.671875 16.957031 16.675781 16.96875 16.675781 16.957031 C 16.679688 16.941406 16.679688 16.921875 16.675781 16.90625 C 16.675781 16.894531 16.671875 16.90625 16.671875 16.933594 M 17.4375 17.023438 C 17.4375 17.085938 17.441406 17.109375 17.441406 17.074219 C 17.445312 17.042969 17.445312 16.996094 17.441406 16.96875 C 17.441406 16.9375 17.4375 16.964844 17.4375 17.023438 M 18.660156 17.078125 C 18.660156 17.152344 18.664062 17.179688 18.664062 17.140625 C 18.667969 17.105469 18.667969 17.042969 18.664062 17.011719 C 18.664062 16.976562 18.660156 17.007812 18.660156 17.078125 M 14.082031 17.042969 C 14.082031 17.0625 14.085938 17.070312 14.089844 17.058594 C 14.089844 17.050781 14.089844 17.03125 14.089844 17.023438 C 14.085938 17.011719 14.082031 17.019531 14.082031 17.042969 M 15.996094 17.085938 C 15.996094 17.125 15.996094 17.140625 16 17.121094 C 16.003906 17.101562 16.003906 17.070312 16 17.050781 C 15.996094 17.03125 15.996094 17.046875 15.996094 17.085938 M 13.410156 17.113281 C 13.40625 17.128906 13.40625 17.144531 13.40625 17.144531 C 13.410156 17.148438 13.414062 17.136719 13.417969 17.121094 C 13.421875 17.105469 13.425781 17.089844 13.421875 17.089844 C 13.417969 17.085938 13.414062 17.097656 13.410156 17.113281 M 14.074219 17.148438 C 14.074219 17.171875 14.074219 17.179688 14.078125 17.167969 C 14.082031 17.160156 14.082031 17.140625 14.078125 17.132812 C 14.074219 17.121094 14.074219 17.128906 14.074219 17.148438 M 18.648438 17.25 C 18.648438 17.269531 18.652344 17.277344 18.652344 17.265625 C 18.65625 17.257812 18.65625 17.238281 18.652344 17.230469 C 18.652344 17.21875 18.648438 17.226562 18.648438 17.25 M 12.746094 17.324219 C 12.753906 17.332031 12.765625 17.351562 12.777344 17.359375 C 12.789062 17.367188 12.785156 17.359375 12.769531 17.339844 C 12.742188 17.300781 12.730469 17.292969 12.746094 17.324219 M 13.222656 17.402344 C 13.21875 17.410156 13.199219 17.421875 13.183594 17.433594 C 13.164062 17.445312 13.152344 17.457031 13.160156 17.457031 C 13.175781 17.457031 13.25 17.390625 13.238281 17.390625 C 13.234375 17.390625 13.226562 17.394531 13.222656 17.402344 M 17.066406 17.550781 C 17.074219 17.554688 17.09375 17.554688 17.105469 17.550781 C 17.113281 17.546875 17.105469 17.546875 17.085938 17.546875 C 17.0625 17.546875 17.054688 17.546875 17.066406 17.550781 M 11.046875 17.597656 C 11.058594 17.621094 11.070312 17.640625 11.074219 17.640625 C 11.074219 17.640625 11.066406 17.621094 11.054688 17.597656 C 11.042969 17.574219 11.03125 17.554688 11.027344 17.554688 C 11.023438 17.554688 11.03125 17.574219 11.046875 17.597656 M 18.4375 17.871094 C 18.425781 17.886719 18.417969 17.902344 18.421875 17.902344 C 18.425781 17.902344 18.4375 17.886719 18.449219 17.871094 C 18.460938 17.851562 18.46875 17.835938 18.46875 17.835938 C 18.464844 17.835938 18.453125 17.851562 18.4375 17.871094 M 11.355469 18.046875 C 11.398438 18.085938 11.433594 18.121094 11.4375 18.121094 C 11.441406 18.121094 11.410156 18.085938 11.367188 18.046875 C 11.324219 18.003906 11.289062 17.96875 11.285156 17.96875 C 11.28125 17.96875 11.316406 18.003906 11.355469 18.046875 M 18.269531 18.070312 L 18.191406 18.148438 L 18.273438 18.074219 C 18.347656 18 18.355469 17.992188 18.347656 17.992188 C 18.347656 17.992188 18.3125 18.027344 18.269531 18.070312 M 13.535156 18.058594 C 13.496094 18.089844 13.496094 18.089844 13.53125 18.066406 C 13.550781 18.054688 13.570312 18.039062 13.574219 18.035156 C 13.585938 18.015625 13.574219 18.023438 13.535156 18.058594 M 16.414062 18.109375 C 16.460938 18.160156 16.503906 18.199219 16.503906 18.199219 C 16.507812 18.199219 16.472656 18.160156 16.421875 18.109375 C 16.375 18.0625 16.335938 18.023438 16.332031 18.023438 C 16.328125 18.023438 16.363281 18.0625 16.414062 18.109375 M 15.160156 18.050781 C 15.171875 18.054688 15.195312 18.054688 15.207031 18.050781 C 15.222656 18.050781 15.210938 18.046875 15.183594 18.046875 C 15.15625 18.046875 15.144531 18.050781 15.160156 18.050781 M 15.296875 18.0625 C 15.304688 18.066406 15.324219 18.066406 15.335938 18.0625 C 15.34375 18.0625 15.335938 18.058594 15.316406 18.058594 C 15.292969 18.058594 15.285156 18.0625 15.296875 18.0625 M 14.761719 18.160156 L 14.730469 18.1875 L 14.765625 18.164062 C 14.785156 18.148438 14.800781 18.136719 14.800781 18.136719 C 14.800781 18.128906 14.789062 18.132812 14.761719 18.160156 M 15.203125 18.402344 C 15.222656 18.40625 15.257812 18.40625 15.28125 18.402344 C 15.300781 18.398438 15.285156 18.398438 15.246094 18.398438 C 15.203125 18.398438 15.183594 18.398438 15.203125 18.402344 M 12.117188 18.414062 C 12.128906 18.414062 12.144531 18.414062 12.15625 18.414062 C 12.167969 18.410156 12.15625 18.40625 12.136719 18.40625 C 12.117188 18.40625 12.109375 18.410156 12.117188 18.414062 M 12.667969 18.414062 C 12.683594 18.414062 12.703125 18.414062 12.714844 18.414062 C 12.722656 18.410156 12.710938 18.40625 12.6875 18.40625 C 12.664062 18.40625 12.65625 18.410156 12.667969 18.414062 M 12.238281 18.421875 C 12.25 18.425781 12.265625 18.425781 12.277344 18.421875 C 12.285156 18.421875 12.277344 18.417969 12.257812 18.417969 C 12.234375 18.417969 12.226562 18.421875 12.238281 18.421875 M 12.554688 18.421875 C 12.566406 18.425781 12.582031 18.425781 12.59375 18.421875 C 12.605469 18.421875 12.59375 18.417969 12.574219 18.417969 C 12.554688 18.417969 12.542969 18.421875 12.554688 18.421875 M 17.21875 18.5 C 17.257812 18.503906 17.324219 18.503906 17.367188 18.5 C 17.40625 18.5 17.375 18.496094 17.292969 18.496094 C 17.210938 18.496094 17.179688 18.5 17.21875 18.5 " fill-opacity="1" fill-rule="evenodd"/></svg>