<svg xmlns="http://www.w3.org/2000/svg" xmlns:xlink="http://www.w3.org/1999/xlink" width="500" zoomAndPan="magnify" viewBox="0 0 375 374.999991" height="500" preserveAspectRatio="xMidYMid meet" version="1.0"><defs><g/><clipPath id="a6e1c78d6e"><path d="M 34.445312 63.820312 L 285.867188 63.820312 L 285.867188 315.246094 L 34.445312 315.246094 Z M 34.445312 63.820312 " clip-rule="nonzero"/></clipPath><clipPath id="fd4e747c55"><path d="M 160.15625 63.820312 C 90.726562 63.820312 34.445312 120.105469 34.445312 189.535156 C 34.445312 258.960938 90.726562 315.246094 160.15625 315.246094 C 229.585938 315.246094 285.867188 258.960938 285.867188 189.535156 C 285.867188 120.105469 229.585938 63.820312 160.15625 63.820312 Z M 160.15625 63.820312 " clip-rule="nonzero"/></clipPath><clipPath id="340990bb50"><path d="M 19.378906 103.601562 L 299 103.601562 L 299 253 L 19.378906 253 Z M 19.378906 103.601562 " clip-rule="nonzero"/></clipPath><clipPath id="dd8faaad39"><path d="M 297 150 L 332 150 L 332 167 L 297 167 Z M 297 150 " clip-rule="nonzero"/></clipPath><clipPath id="cb40006040"><path d="M 352.914062 178.386719 L 254.851562 151.695312 L 276.980469 70.402344 L 375.042969 97.097656 Z M 352.914062 178.386719 " clip-rule="nonzero"/></clipPath><clipPath id="4fbe064ffb"><path d="M 352.601562 179.539062 L 254.535156 152.847656 L 277.015625 70.265625 L 375.082031 96.960938 Z M 352.601562 179.539062 " clip-rule="nonzero"/></clipPath><clipPath id="66a695a84a"><path d="M 326.664062 274.832031 L 228.597656 248.136719 L 277.070312 70.070312 L 375.132812 96.765625 Z M 326.664062 274.832031 " clip-rule="nonzero"/></clipPath><clipPath id="fade0084d8"><path d="M 297 99 L 359 99 L 359 128 L 297 128 Z M 297 99 " clip-rule="nonzero"/></clipPath><clipPath id="a1dfd1c8f8"><path d="M 352.914062 178.386719 L 254.851562 151.695312 L 276.980469 70.402344 L 375.042969 97.097656 Z M 352.914062 178.386719 " clip-rule="nonzero"/></clipPath><clipPath id="7553d0b8d3"><path d="M 352.601562 179.539062 L 254.535156 152.847656 L 277.015625 70.265625 L 375.082031 96.960938 Z M 352.601562 179.539062 " clip-rule="nonzero"/></clipPath><clipPath id="eac46eb1ac"><path d="M 326.664062 274.832031 L 228.597656 248.136719 L 277.070312 70.070312 L 375.132812 96.765625 Z M 326.664062 274.832031 " clip-rule="nonzero"/></clipPath><clipPath id="49e54fffad"><path d="M 284 81 L 311 81 L 311 109 L 284 109 Z M 284 81 " clip-rule="nonzero"/></clipPath><clipPath id="bcb7d29b02"><path d="M 352.914062 178.386719 L 254.851562 151.695312 L 276.980469 70.402344 L 375.042969 97.097656 Z M 352.914062 178.386719 " clip-rule="nonzero"/></clipPath><clipPath id="b4e8ea99c9"><path d="M 352.601562 179.539062 L 254.535156 152.847656 L 277.015625 70.265625 L 375.082031 96.960938 Z M 352.601562 179.539062 " clip-rule="nonzero"/></clipPath><clipPath id="f670a9c1b2"><path d="M 326.664062 274.832031 L 228.597656 248.136719 L 277.070312 70.070312 L 375.132812 96.765625 Z M 326.664062 274.832031 " clip-rule="nonzero"/></clipPath></defs><rect x="-37.5" width="450" fill="#ffffff" y="-37.499999" height="449.999989" fill-opacity="1"/><rect x="-37.5" width="450" fill="#ffffff" y="-37.499999" height="449.999989" fill-opacity="1"/><g clip-path="url(#a6e1c78d6e)"><g clip-path="url(#fd4e747c55)"><path fill="#4577b6" d="M 34.445312 63.820312 L 285.867188 63.820312 L 285.867188 315.246094 L 34.445312 315.246094 Z M 34.445312 63.820312 " fill-opacity="1" fill-rule="nonzero"/></g></g><path fill="#fbdc08" d="M 112.765625 172.9375 C 103.917969 173.65625 97.003906 180.722656 94.773438 191.324219 C 92.816406 200.621094 98.351562 212.023438 106.375 215.222656 C 115.476562 218.851562 128.171875 215.160156 133.375 207.378906 C 138.730469 199.367188 136.351562 184.609375 128.644531 178.035156 C 124.808594 174.765625 118.546875 172.460938 114.414062 172.800781 C 114.285156 172.8125 113.542969 172.871094 112.765625 172.9375 M 177.164062 173.769531 C 170.382812 174.589844 163.691406 182.378906 161.726562 191.738281 C 161.59375 192.359375 161.347656 193.46875 161.179688 194.207031 C 159.488281 201.53125 163.070312 210.8125 169.140625 214.820312 C 176.601562 219.75 186.539062 217.539062 192.234375 209.683594 C 196.546875 203.742188 196.191406 191.871094 191.410156 182.015625 C 188.640625 176.304688 183.027344 173.058594 177.164062 173.769531 M 124.617188 187.898438 C 127.429688 189.34375 128.765625 194.027344 127.753906 198.867188 C 126.230469 206.15625 118.988281 206.199219 117.714844 198.929688 C 116.441406 191.644531 120.203125 185.628906 124.617188 187.898438 M 175.164062 187.933594 C 177.949219 189.230469 179.433594 192.777344 179.464844 198.222656 C 179.480469 200.917969 179.308594 201.726562 178.421875 203.105469 C 175.652344 207.414062 170.199219 204.675781 169.683594 198.71875 C 169.066406 191.660156 171.765625 186.351562 175.164062 187.933594 M 148.457031 211.957031 C 146.492188 212.277344 144.839844 213.039062 144.566406 213.75 C 143.566406 216.386719 155.253906 217.199219 156.449219 214.578125 C 157.199219 212.933594 152.300781 211.328125 148.457031 211.957031 " fill-opacity="1" fill-rule="evenodd"/><g clip-path="url(#340990bb50)"><path fill="#040404" d="M 68.753906 103.941406 C 62.96875 105.425781 59.617188 110.582031 55.9375 123.660156 C 53.105469 133.722656 52.257812 141.132812 53.035156 149.03125 C 53.382812 152.570312 53.351562 157.988281 52.957031 161.292969 C 52.753906 163 52.523438 164.964844 52.441406 165.664062 C 51.84375 170.722656 52.589844 174.777344 55.234375 180.816406 C 57.089844 185.050781 57.105469 186.488281 55.355469 192.011719 C 52.980469 199.5 52.441406 205.195312 53.742188 208.980469 C 54.007812 209.746094 53.960938 209.984375 53.546875 209.992188 C 52.730469 210.007812 49.59375 212.003906 48.207031 213.398438 L 47.128906 214.480469 L 46.089844 214.183594 C 44.519531 213.738281 40.5 213.738281 38.683594 214.1875 C 33.621094 215.433594 29.675781 218.382812 27.726562 222.382812 L 27 223.878906 L 25.628906 224.558594 C 21.730469 226.503906 19.574219 230.6875 19.558594 236.351562 C 19.539062 241.753906 22.507812 245.9375 26.359375 245.9375 C 26.816406 245.9375 26.910156 246 27.210938 246.535156 C 29.417969 250.460938 36.234375 252.09375 41.738281 250.019531 C 43.226562 249.457031 45.644531 248.171875 45.96875 247.765625 C 46.183594 247.5 46.558594 247.515625 46.785156 247.796875 C 50.398438 252.355469 58.210938 253.417969 63.972656 250.132812 C 64.558594 249.800781 65.175781 249.453125 65.347656 249.359375 C 65.519531 249.265625 66.164062 248.722656 66.78125 248.148438 L 67.902344 247.105469 L 68.820312 247.835938 C 70.535156 249.199219 71.945312 249.777344 73.972656 249.945312 C 79.410156 250.398438 83.207031 246.492188 83.621094 240.015625 L 83.707031 238.675781 L 92.453125 238.746094 C 104.816406 238.847656 128.070312 238.835938 164.679688 238.710938 C 218.835938 238.523438 224.585938 238.511719 226.351562 238.566406 L 228.074219 238.621094 L 228.234375 239.109375 C 230.574219 246.195312 240.265625 249.453125 245.960938 245.070312 L 246.691406 244.507812 L 247.722656 245.375 C 252.011719 248.984375 259.28125 249.269531 263.308594 245.992188 C 264.050781 245.390625 263.84375 245.308594 265.289062 246.761719 C 269.941406 251.433594 277.179688 251.480469 282.132812 246.867188 L 282.835938 246.210938 L 283.289062 246.550781 C 287.878906 249.988281 295.441406 246.757812 297.703125 240.394531 C 301.398438 229.988281 293.253906 218.453125 280.421875 215.910156 C 279.242188 215.675781 278.480469 215.621094 276.65625 215.644531 L 274.367188 215.667969 L 273.410156 215.023438 C 266.203125 210.160156 254.78125 209.585938 247.101562 213.703125 C 246.273438 214.148438 245.511719 214.589844 245.410156 214.683594 C 245.308594 214.777344 244.972656 215.03125 244.664062 215.242188 C 244.355469 215.457031 243.652344 216.074219 243.109375 216.613281 L 242.117188 217.59375 L 241.429688 217.386719 C 238.460938 216.496094 233.949219 217.644531 230.8125 220.097656 C 229.546875 221.082031 229.488281 221.113281 229.375 220.808594 C 228.757812 219.136719 228.355469 218.152344 227.808594 216.96875 C 225.097656 211.09375 225.023438 206.992188 227.523438 201.535156 C 230.628906 194.761719 230.863281 193.011719 229.695312 185.539062 C 228.152344 175.65625 230.257812 167.800781 238.636719 152.203125 C 239.40625 150.769531 240.308594 149.085938 240.640625 148.46875 C 240.976562 147.847656 241.515625 146.863281 241.84375 146.28125 C 247.871094 135.609375 251.625 128.027344 253.34375 123.078125 C 256.714844 113.347656 253.875 109.847656 246.394531 114.515625 C 240.949219 117.914062 232.667969 124.757812 223.644531 133.308594 C 214.773438 141.71875 210.152344 145.238281 203.824219 148.398438 C 202.226562 149.195312 199.96875 150.183594 198.605469 150.683594 C 194.042969 152.347656 190.632812 153.265625 185.660156 154.171875 C 184.328125 154.417969 184.0625 154.421875 182.347656 154.246094 C 181.316406 154.140625 179.050781 153.917969 177.304688 153.753906 C 169.875 153.058594 164.132812 152.234375 157.554688 150.929688 C 156.816406 150.78125 155.039062 150.4375 153.605469 150.160156 C 152.167969 149.886719 150.359375 149.535156 149.585938 149.382812 C 137.046875 146.910156 130.75 146.605469 119.371094 147.910156 C 109.363281 149.058594 107.75 148.390625 101.308594 140.433594 C 98.289062 136.699219 98.035156 136.421875 93.441406 131.835938 C 88.671875 127.070312 88.617188 126.988281 87.367188 122.742188 C 86.949219 121.308594 86.957031 121.335938 85.953125 119.007812 C 85.222656 117.316406 83.714844 114.347656 83.40625 113.992188 C 83.300781 113.871094 83.210938 113.726562 83.210938 113.667969 C 83.210938 113.5 81.332031 110.699219 81.136719 110.578125 C 81.035156 110.519531 80.953125 110.402344 80.953125 110.328125 C 80.953125 109.578125 76.65625 105.890625 74.746094 105 C 72.839844 104.113281 70.023438 103.617188 68.753906 103.941406 M 118.925781 173.179688 C 125.601562 174.628906 130.507812 178.40625 133.558594 184.4375 C 136.785156 190.828125 137.214844 200.195312 134.527344 205.554688 C 131.132812 212.3125 123.472656 216.535156 114.601562 216.53125 C 106.257812 216.53125 101.855469 214.175781 97.878906 207.597656 C 92.050781 197.945312 93.550781 186.097656 101.613281 178.066406 C 104.621094 175.070312 107.347656 173.722656 112.128906 172.867188 C 113.136719 172.6875 117.609375 172.894531 118.925781 173.179688 M 180.621094 173.839844 C 185.585938 174.566406 189.0625 177.117188 191.375 181.734375 C 196.152344 191.277344 196.628906 204.023438 192.417969 209.570312 C 182.007812 223.285156 163.753906 218.585938 161.078125 201.507812 C 159.582031 191.953125 164.828125 179.8125 172.410156 175.289062 C 174.832031 173.839844 177.457031 173.375 180.621094 173.839844 M 121.886719 187.59375 C 116.714844 188.605469 115.898438 201.65625 120.859375 203.957031 C 122.6875 204.800781 124.414062 204.28125 125.980469 202.410156 C 128.554688 199.34375 128.644531 191.890625 126.140625 189.117188 C 125.054688 187.917969 123.347656 187.308594 121.886719 187.59375 M 172.695312 188.070312 C 169.960938 189.3125 168.628906 197.882812 170.558594 201.816406 C 172.664062 206.117188 177.226562 206.195312 178.925781 201.957031 L 179.351562 200.902344 L 179.324219 197.871094 C 179.265625 190.925781 176.242188 186.460938 172.695312 188.070312 M 153.632812 212.183594 C 158.875 213.457031 156.980469 216.292969 150.925781 216.242188 C 144.148438 216.191406 141.929688 213.199219 147.820312 212.054688 C 150.058594 211.621094 151.441406 211.652344 153.632812 212.183594 " fill-opacity="1" fill-rule="evenodd"/></g><path fill="#5c4f05" d="M 112.800781 172.882812 C 113.054688 172.914062 113.464844 172.914062 113.71875 172.882812 C 113.96875 172.851562 113.761719 172.828125 113.257812 172.828125 C 112.753906 172.828125 112.550781 172.851562 112.800781 172.882812 M 115.765625 172.882812 C 116.019531 172.914062 116.398438 172.914062 116.613281 172.882812 C 116.824219 172.851562 116.617188 172.824219 116.152344 172.824219 C 115.6875 172.828125 115.511719 172.851562 115.765625 172.882812 M 185.628906 175.523438 C 185.628906 175.5625 185.816406 175.691406 186.050781 175.8125 C 186.285156 175.933594 186.472656 176 186.472656 175.960938 C 186.472656 175.921875 186.285156 175.792969 186.050781 175.671875 C 185.816406 175.550781 185.628906 175.484375 185.628906 175.523438 M 101.546875 178.101562 L 100.351562 179.335938 L 101.585938 178.140625 C 102.730469 177.03125 102.882812 176.867188 102.78125 176.867188 C 102.761719 176.867188 102.203125 177.425781 101.546875 178.101562 M 188.378906 177.574219 C 188.761719 177.960938 189.105469 178.277344 189.144531 178.277344 C 189.183594 178.277344 188.902344 177.960938 188.519531 177.574219 C 188.136719 177.1875 187.792969 176.867188 187.753906 176.867188 C 187.714844 176.867188 187.996094 177.1875 188.378906 177.574219 M 168.90625 178.03125 L 168.0625 178.914062 L 168.945312 178.070312 C 169.429688 177.609375 169.828125 177.210938 169.828125 177.191406 C 169.828125 177.085938 169.6875 177.214844 168.90625 178.03125 M 129.199219 178.464844 C 129.199219 178.488281 129.40625 178.695312 129.660156 178.921875 L 130.117188 179.335938 L 129.703125 178.878906 C 129.316406 178.449219 129.199219 178.355469 129.199219 178.464844 M 131.378906 181.003906 C 131.59375 181.289062 131.800781 181.519531 131.835938 181.519531 C 131.933594 181.519531 131.324219 180.695312 131.144531 180.585938 C 131.054688 180.53125 131.160156 180.71875 131.378906 181.003906 M 173.746094 187.679688 C 173.917969 187.714844 174.171875 187.714844 174.308594 187.679688 C 174.445312 187.644531 174.300781 187.617188 173.988281 187.617188 C 173.679688 187.617188 173.570312 187.648438 173.746094 187.679688 M 125.671875 188.613281 C 125.671875 188.636719 125.878906 188.84375 126.132812 189.070312 L 126.589844 189.484375 L 126.175781 189.027344 C 125.789062 188.597656 125.671875 188.503906 125.671875 188.613281 M 176.730469 189.203125 C 177.5625 190.152344 177.683594 190.265625 177.339844 189.765625 C 177.179688 189.535156 176.839844 189.152344 176.582031 188.921875 C 176.234375 188.609375 176.273438 188.683594 176.730469 189.203125 M 170.332031 191.328125 C 170.28125 191.535156 170.265625 191.730469 170.296875 191.761719 C 170.332031 191.796875 170.402344 191.65625 170.453125 191.449219 C 170.503906 191.242188 170.519531 191.042969 170.488281 191.011719 C 170.453125 190.980469 170.382812 191.121094 170.332031 191.328125 M 117.84375 192.65625 C 117.789062 192.898438 117.777344 193.128906 117.8125 193.164062 C 117.847656 193.199219 117.917969 193.027344 117.96875 192.777344 C 118.085938 192.191406 117.972656 192.078125 117.84375 192.65625 M 136.003906 192.65625 C 136.003906 192.925781 136.035156 193.039062 136.070312 192.902344 C 136.105469 192.765625 136.105469 192.546875 136.070312 192.410156 C 136.035156 192.273438 136.003906 192.382812 136.003906 192.65625 M 136.144531 194.207031 C 136.144531 194.476562 136.175781 194.589844 136.210938 194.453125 C 136.246094 194.316406 136.246094 194.09375 136.210938 193.960938 C 136.175781 193.824219 136.144531 193.933594 136.144531 194.207031 M 127.980469 195.6875 C 127.980469 196.460938 128.007812 196.761719 128.035156 196.351562 C 128.0625 195.941406 128.0625 195.308594 128.035156 194.941406 C 128.003906 194.574219 127.980469 194.910156 127.980469 195.6875 M 169.71875 194.769531 C 169.71875 195.042969 169.75 195.152344 169.785156 195.015625 C 169.820312 194.882812 169.820312 194.660156 169.785156 194.523438 C 169.75 194.386719 169.71875 194.5 169.71875 194.769531 M 94.253906 195.191406 C 94.253906 195.542969 94.28125 195.683594 94.316406 195.511719 C 94.347656 195.335938 94.347656 195.050781 94.316406 194.875 C 94.28125 194.703125 94.253906 194.84375 94.253906 195.191406 M 195.128906 196.179688 C 195.128906 196.839844 195.152344 197.109375 195.183594 196.777344 C 195.210938 196.449219 195.210938 195.910156 195.183594 195.582031 C 195.152344 195.25 195.128906 195.519531 195.128906 196.179688 M 179.320312 196.179688 C 179.320312 196.605469 179.347656 196.78125 179.378906 196.566406 C 179.414062 196.355469 179.414062 196.003906 179.378906 195.792969 C 179.347656 195.578125 179.320312 195.753906 179.320312 196.179688 M 160.832031 196.039062 C 160.832031 196.308594 160.863281 196.421875 160.898438 196.285156 C 160.933594 196.148438 160.933594 195.929688 160.898438 195.792969 C 160.863281 195.65625 160.832031 195.765625 160.832031 196.039062 M 169.585938 197.308594 C 169.585938 197.65625 169.613281 197.796875 169.644531 197.625 C 169.679688 197.449219 169.679688 197.164062 169.644531 196.988281 C 169.613281 196.816406 169.585938 196.957031 169.585938 197.308594 M 179.472656 198.503906 C 179.472656 199.28125 179.496094 199.578125 179.523438 199.171875 C 179.554688 198.761719 179.550781 198.125 179.523438 197.761719 C 179.496094 197.394531 179.472656 197.730469 179.472656 198.503906 M 195.273438 199.210938 C 195.273438 200.140625 195.296875 200.503906 195.324219 200.015625 C 195.351562 199.527344 195.351562 198.765625 195.324219 198.324219 C 195.296875 197.878906 195.273438 198.28125 195.273438 199.210938 M 136.144531 198.71875 C 136.144531 198.988281 136.175781 199.097656 136.210938 198.964844 C 136.246094 198.828125 136.246094 198.605469 136.210938 198.46875 C 136.175781 198.335938 136.144531 198.445312 136.144531 198.71875 M 160.84375 199.28125 C 160.84375 199.785156 160.871094 199.992188 160.902344 199.738281 C 160.933594 199.488281 160.933594 199.074219 160.902344 198.824219 C 160.871094 198.570312 160.84375 198.777344 160.84375 199.28125 M 127.445312 199.644531 C 127.394531 199.847656 127.378906 200.046875 127.414062 200.078125 C 127.445312 200.113281 127.515625 199.96875 127.566406 199.765625 C 127.621094 199.558594 127.632812 199.363281 127.601562 199.328125 C 127.570312 199.292969 127.5 199.4375 127.445312 199.644531 M 136.003906 200.125 C 136.003906 200.398438 136.035156 200.507812 136.070312 200.371094 C 136.105469 200.238281 136.105469 200.015625 136.070312 199.878906 C 136.035156 199.742188 136.003906 199.855469 136.003906 200.125 M 195.113281 201.394531 C 195.113281 201.667969 195.140625 201.777344 195.175781 201.640625 C 195.210938 201.507812 195.210938 201.285156 195.175781 201.148438 C 195.140625 201.011719 195.113281 201.125 195.113281 201.394531 M 118.890625 202.359375 C 118.964844 202.5 119.136719 202.707031 119.273438 202.816406 C 119.425781 202.941406 119.390625 202.839844 119.183594 202.558594 C 118.8125 202.050781 118.675781 201.957031 118.890625 202.359375 M 125.03125 203.378906 C 124.980469 203.464844 124.738281 203.652344 124.496094 203.800781 C 124.25 203.949219 124.128906 204.070312 124.226562 204.070312 C 124.40625 204.074219 125.394531 203.238281 125.222656 203.230469 C 125.167969 203.230469 125.082031 203.296875 125.03125 203.378906 M 174.660156 205.296875 C 174.796875 205.332031 175.019531 205.332031 175.152344 205.296875 C 175.289062 205.261719 175.175781 205.234375 174.90625 205.234375 C 174.636719 205.234375 174.523438 205.261719 174.660156 205.296875 M 96.894531 205.90625 C 97.054688 206.214844 97.214844 206.46875 97.253906 206.46875 C 97.292969 206.46875 97.195312 206.214844 97.035156 205.90625 C 96.878906 205.59375 96.714844 205.339844 96.679688 205.339844 C 96.640625 205.339844 96.738281 205.59375 96.894531 205.90625 M 192.398438 209.429688 C 192.234375 209.660156 192.128906 209.851562 192.167969 209.851562 C 192.207031 209.851562 192.375 209.660156 192.539062 209.429688 C 192.707031 209.195312 192.808594 209.007812 192.769531 209.007812 C 192.730469 209.007812 192.566406 209.195312 192.398438 209.429688 M 100.914062 211.683594 C 101.453125 212.226562 101.925781 212.671875 101.964844 212.671875 C 102.003906 212.671875 101.59375 212.226562 101.058594 211.683594 C 100.519531 211.140625 100.042969 210.699219 100.007812 210.699219 C 99.96875 210.699219 100.375 211.140625 100.914062 211.683594 M 190.210938 212 L 189.226562 213.023438 L 190.246094 212.039062 C 191.199219 211.128906 191.335938 210.980469 191.230469 210.980469 C 191.210938 210.980469 190.75 211.4375 190.210938 212 M 129.058594 211.84375 C 128.566406 212.273438 128.566406 212.273438 129.019531 211.972656 C 129.269531 211.808594 129.511719 211.609375 129.558594 211.539062 C 129.691406 211.316406 129.582031 211.386719 129.058594 211.84375 M 166.230469 212.53125 C 166.847656 213.148438 167.382812 213.65625 167.421875 213.65625 C 167.460938 213.65625 166.988281 213.148438 166.371094 212.53125 C 165.753906 211.910156 165.21875 211.402344 165.179688 211.402344 C 165.140625 211.402344 165.613281 211.910156 166.230469 212.53125 M 150.042969 211.785156 C 150.21875 211.816406 150.503906 211.816406 150.679688 211.785156 C 150.851562 211.75 150.710938 211.722656 150.359375 211.722656 C 150.011719 211.722656 149.867188 211.75 150.042969 211.785156 M 151.804688 211.921875 C 151.941406 211.957031 152.164062 211.957031 152.300781 211.921875 C 152.4375 211.886719 152.324219 211.859375 152.054688 211.859375 C 151.78125 211.859375 151.671875 211.886719 151.804688 211.921875 M 144.902344 213.175781 L 144.507812 213.539062 L 144.964844 213.21875 C 145.21875 213.042969 145.421875 212.878906 145.421875 212.855469 C 145.421875 212.746094 145.265625 212.839844 144.902344 213.175781 M 150.605469 216.296875 C 150.855469 216.328125 151.296875 216.328125 151.589844 216.296875 C 151.882812 216.265625 151.679688 216.242188 151.136719 216.242188 C 150.59375 216.238281 150.355469 216.265625 150.605469 216.296875 M 110.753906 216.433594 C 110.890625 216.46875 111.113281 216.46875 111.25 216.433594 C 111.386719 216.398438 111.273438 216.367188 111.003906 216.367188 C 110.730469 216.367188 110.621094 216.398438 110.753906 216.433594 M 117.882812 216.4375 C 118.054688 216.46875 118.308594 216.46875 118.445312 216.433594 C 118.582031 216.398438 118.4375 216.371094 118.125 216.371094 C 117.816406 216.371094 117.707031 216.402344 117.882812 216.4375 M 112.308594 216.574219 C 112.441406 216.609375 112.664062 216.609375 112.800781 216.574219 C 112.9375 216.539062 112.824219 216.507812 112.554688 216.507812 C 112.28125 216.507812 112.171875 216.539062 112.308594 216.574219 M 116.398438 216.574219 C 116.535156 216.609375 116.757812 216.609375 116.890625 216.574219 C 117.027344 216.539062 116.917969 216.507812 116.644531 216.507812 C 116.371094 216.507812 116.261719 216.539062 116.398438 216.574219 M 176.632812 217.566406 C 177.15625 217.59375 178.015625 217.59375 178.539062 217.566406 C 179.0625 217.539062 178.632812 217.519531 177.585938 217.519531 C 176.539062 217.519531 176.109375 217.539062 176.632812 217.566406 " fill-opacity="1" fill-rule="evenodd"/><g clip-path="url(#dd8faaad39)"><g clip-path="url(#cb40006040)"><g clip-path="url(#4fbe064ffb)"><g clip-path="url(#66a695a84a)"><path fill="#000000" d="M 297.261719 151.140625 C 298.066406 148.992188 310.878906 150.960938 321.523438 154.964844 C 332.167969 158.96875 332.449219 161.886719 331.703125 164.054688 C 330.953125 166.21875 328.839844 168.296875 318.105469 164.269531 C 307.371094 160.242188 296.453125 153.289062 297.261719 151.140625 Z M 297.261719 151.140625 " fill-opacity="1" fill-rule="nonzero"/></g></g></g></g><g clip-path="url(#fade0084d8)"><g clip-path="url(#a1dfd1c8f8)"><g clip-path="url(#7553d0b8d3)"><g clip-path="url(#eac46eb1ac)"><path fill="#000000" d="M 297.761719 124.429688 C 296.328125 120.058594 315.445312 108.269531 334.183594 102.191406 C 352.917969 96.109375 356.402344 100.5 357.957031 104.902344 C 359.511719 109.304688 359.078125 114.96875 340.308594 121.167969 C 321.539062 127.363281 299.136719 128.910156 297.761719 124.429688 Z M 297.761719 124.429688 " fill-opacity="1" fill-rule="nonzero"/></g></g></g></g><g clip-path="url(#49e54fffad)"><g clip-path="url(#bcb7d29b02)"><g clip-path="url(#b4e8ea99c9)"><g clip-path="url(#f670a9c1b2)"><path fill="#000000" d="M 284.6875 107.730469 C 282.683594 105.796875 288.847656 94.902344 296.4375 87.113281 C 304.03125 79.328125 307.203125 80.570312 309.136719 82.644531 C 311.070312 84.71875 312.597656 87.597656 304.996094 95.414062 C 297.394531 103.230469 286.648438 109.71875 284.6875 107.730469 Z M 284.6875 107.730469 " fill-opacity="1" fill-rule="nonzero"/></g></g></g></g><g fill="#000000" fill-opacity="1"><g transform="translate(58.858328, 89.588406)"><g><path d="M 3.453125 -11.953125 C 3.304688 -11.734375 3.253906 -11.53125 3.296875 -11.34375 C 3.335938 -11.164062 3.425781 -11.007812 3.5625 -10.875 C 3.695312 -10.738281 3.859375 -10.609375 4.046875 -10.484375 C 4.242188 -10.359375 4.425781 -10.265625 4.59375 -10.203125 C 4.75 -10.097656 4.867188 -10.054688 4.953125 -10.078125 C 5.191406 -10.078125 5.328125 -10.203125 5.359375 -10.453125 C 5.398438 -10.710938 5.363281 -10.984375 5.25 -11.265625 C 5.144531 -11.554688 4.984375 -11.816406 4.765625 -12.046875 C 4.546875 -12.273438 4.332031 -12.382812 4.125 -12.375 C 3.84375 -12.394531 3.617188 -12.253906 3.453125 -11.953125 Z M -5.140625 -44.296875 C -4.597656 -44.378906 -4.109375 -44.335938 -3.671875 -44.171875 C -3.234375 -44.003906 -2.882812 -43.628906 -2.625 -43.046875 C -2.332031 -42.515625 -2.289062 -41.960938 -2.5 -41.390625 C -2.707031 -40.828125 -3.039062 -40.367188 -3.5 -40.015625 C -4.125 -39.492188 -4.875 -39.050781 -5.75 -38.6875 C -6.632812 -38.332031 -7.457031 -38.003906 -8.21875 -37.703125 C -9.0625 -37.328125 -9.910156 -36.9375 -10.765625 -36.53125 C -11.617188 -36.132812 -12.460938 -35.753906 -13.296875 -35.390625 C -13.460938 -35.304688 -13.617188 -35.210938 -13.765625 -35.109375 C -13.910156 -35.015625 -14.113281 -34.898438 -14.375 -34.765625 C -13.476562 -34.523438 -12.789062 -34.140625 -12.3125 -33.609375 C -11.832031 -33.078125 -11.382812 -32.507812 -10.96875 -31.90625 C -10.351562 -31.007812 -9.550781 -29.816406 -8.5625 -28.328125 C -7.570312 -26.847656 -6.539062 -25.304688 -5.46875 -23.703125 C -4.394531 -22.109375 -3.378906 -20.566406 -2.421875 -19.078125 C -1.460938 -17.597656 -0.691406 -16.382812 -0.109375 -15.4375 C 0.078125 -15.175781 0.25 -15.015625 0.40625 -14.953125 C 0.570312 -14.898438 0.78125 -15.003906 1.03125 -15.265625 C 1.476562 -15.660156 1.953125 -15.992188 2.453125 -16.265625 C 3.390625 -16.816406 4.40625 -17.003906 5.5 -16.828125 C 6.59375 -16.660156 7.546875 -16.234375 8.359375 -15.546875 C 9.503906 -14.566406 10.148438 -13.367188 10.296875 -11.953125 C 10.453125 -10.546875 10.21875 -9.257812 9.59375 -8.09375 C 8.976562 -6.925781 8.070312 -6.039062 6.875 -5.4375 C 5.675781 -4.84375 4.320312 -4.867188 2.8125 -5.515625 C 1.945312 -5.898438 1.160156 -6.398438 0.453125 -7.015625 C -0.253906 -7.640625 -0.925781 -8.320312 -1.5625 -9.0625 C -2.164062 -9.75 -2.691406 -10.4375 -3.140625 -11.125 C -3.597656 -11.8125 -4.078125 -12.539062 -4.578125 -13.3125 C -5.140625 -14.1875 -5.882812 -15.335938 -6.8125 -16.765625 C -7.75 -18.203125 -8.726562 -19.691406 -9.75 -21.234375 C -10.78125 -22.785156 -11.769531 -24.273438 -12.71875 -25.703125 C -13.675781 -27.128906 -14.453125 -28.273438 -15.046875 -29.140625 C -15.285156 -29.484375 -15.585938 -29.671875 -15.953125 -29.703125 C -16.328125 -29.742188 -16.71875 -29.71875 -17.125 -29.625 C -17.53125 -29.539062 -17.941406 -29.4375 -18.359375 -29.3125 C -18.773438 -29.1875 -19.164062 -29.132812 -19.53125 -29.15625 C -20.539062 -29.21875 -21.320312 -29.519531 -21.875 -30.0625 C -22.425781 -30.613281 -22.613281 -31.441406 -22.4375 -32.546875 C -22.332031 -33.347656 -22.066406 -34.0625 -21.640625 -34.6875 C -21.222656 -35.320312 -20.753906 -35.929688 -20.234375 -36.515625 C -19.554688 -37.203125 -18.804688 -37.828125 -17.984375 -38.390625 C -17.171875 -38.960938 -16.304688 -39.476562 -15.390625 -39.9375 C -14.472656 -40.40625 -13.554688 -40.835938 -12.640625 -41.234375 C -11.722656 -41.628906 -10.832031 -42.023438 -9.96875 -42.421875 C -9.363281 -42.710938 -8.613281 -43.070312 -7.71875 -43.5 C -6.820312 -43.925781 -5.960938 -44.191406 -5.140625 -44.296875 Z M -5.140625 -44.296875 "/></g></g></g><g fill="#000000" fill-opacity="1"><g transform="translate(71.438402, 79.79781)"><g><path d="M -0.90625 -22.03125 C -0.539062 -22.164062 -0.3125 -22.476562 -0.21875 -22.96875 C -0.132812 -23.457031 -0.203125 -23.921875 -0.421875 -24.359375 C -0.597656 -24.734375 -0.898438 -25.019531 -1.328125 -25.21875 C -1.753906 -25.425781 -2.128906 -25.414062 -2.453125 -25.1875 C -2.859375 -24.90625 -3.046875 -24.597656 -3.015625 -24.265625 C -2.992188 -23.929688 -2.9375 -23.585938 -2.84375 -23.234375 C -2.59375 -22.890625 -2.34375 -22.554688 -2.09375 -22.234375 C -1.84375 -21.910156 -1.445312 -21.84375 -0.90625 -22.03125 Z M 13.609375 -38.453125 C 14.359375 -38.742188 15.046875 -38.703125 15.671875 -38.328125 C 16.296875 -37.960938 16.828125 -37.257812 17.265625 -36.21875 C 17.890625 -34.613281 18.519531 -33.035156 19.15625 -31.484375 C 19.800781 -29.929688 20.425781 -28.367188 21.03125 -26.796875 C 21.71875 -25.109375 22.394531 -23.414062 23.0625 -21.71875 C 23.738281 -20.03125 24.421875 -18.320312 25.109375 -16.59375 C 25.304688 -16.070312 25.4375 -15.628906 25.5 -15.265625 C 25.5625 -14.910156 25.539062 -14.578125 25.4375 -14.265625 C 25.332031 -13.960938 25.15625 -13.671875 24.90625 -13.390625 C 24.65625 -13.117188 24.316406 -12.78125 23.890625 -12.375 C 22.429688 -11.039062 20.847656 -9.992188 19.140625 -9.234375 C 17.429688 -8.484375 15.691406 -7.769531 13.921875 -7.09375 C 12.523438 -6.613281 11.398438 -6.523438 10.546875 -6.828125 C 9.703125 -7.128906 8.929688 -7.929688 8.234375 -9.234375 C 6.609375 -12.128906 5.070312 -15.007812 3.625 -17.875 C 3.425781 -18.28125 3.238281 -18.507812 3.0625 -18.5625 C 2.882812 -18.613281 2.613281 -18.492188 2.25 -18.203125 C 0.851562 -17.171875 -0.59375 -16.753906 -2.09375 -16.953125 C -3.59375 -17.148438 -4.882812 -17.914062 -5.96875 -19.25 C -7.007812 -20.570312 -7.609375 -22.035156 -7.765625 -23.640625 C -7.859375 -24.785156 -7.722656 -25.816406 -7.359375 -26.734375 C -7.003906 -27.660156 -6.460938 -28.40625 -5.734375 -28.96875 C -5.015625 -29.539062 -4.164062 -29.898438 -3.1875 -30.046875 C -2.207031 -30.191406 -1.160156 -30.066406 -0.046875 -29.671875 C 0.890625 -29.359375 1.710938 -28.890625 2.421875 -28.265625 C 3.140625 -27.640625 3.796875 -26.929688 4.390625 -26.140625 C 5.304688 -24.898438 6.113281 -23.625 6.8125 -22.3125 C 7.507812 -21.007812 8.195312 -19.707031 8.875 -18.40625 C 9.425781 -17.425781 9.945312 -16.453125 10.4375 -15.484375 C 10.925781 -14.515625 11.425781 -13.539062 11.9375 -12.5625 C 12.09375 -12.238281 12.265625 -12.03125 12.453125 -11.9375 C 12.640625 -11.851562 12.90625 -11.898438 13.25 -12.078125 C 14.320312 -12.515625 15.378906 -12.929688 16.421875 -13.328125 C 17.460938 -13.722656 18.4375 -14.285156 19.34375 -15.015625 C 19.65625 -15.242188 19.847656 -15.476562 19.921875 -15.71875 C 19.992188 -15.96875 19.957031 -16.289062 19.8125 -16.6875 C 18.601562 -19.632812 17.398438 -22.578125 16.203125 -25.515625 C 15.015625 -28.460938 13.835938 -31.421875 12.671875 -34.390625 C 11.828125 -36.503906 12.140625 -37.859375 13.609375 -38.453125 Z M 13.609375 -38.453125 "/></g></g></g><g fill="#000000" fill-opacity="1"><g transform="translate(100.435955, 66.200184)"><g/></g></g><g fill="#000000" fill-opacity="1"><g transform="translate(110.352911, 62.461538)"><g><path d="M -3.96875 -43.484375 C -3.8125 -43.765625 -3.644531 -44.039062 -3.46875 -44.3125 C -3.300781 -44.582031 -3.160156 -44.859375 -3.046875 -45.140625 C -2.867188 -45.421875 -2.691406 -45.707031 -2.515625 -46 C -2.347656 -46.289062 -2.140625 -46.550781 -1.890625 -46.78125 C -1.492188 -47.332031 -1.066406 -47.800781 -0.609375 -48.1875 C -0.148438 -48.570312 0.367188 -48.832031 0.953125 -48.96875 C 1.734375 -49.101562 2.394531 -48.945312 2.9375 -48.5 C 3.488281 -48.050781 3.894531 -47.425781 4.15625 -46.625 C 5.695312 -41.550781 7.0625 -36.476562 8.25 -31.40625 C 9.4375 -26.332031 10.601562 -21.203125 11.75 -16.015625 C 11.851562 -15.753906 11.960938 -15.585938 12.078125 -15.515625 C 12.203125 -15.453125 12.335938 -15.421875 12.484375 -15.421875 L 12.84375 -15.5 C 12.925781 -15.488281 12.976562 -15.5 13 -15.53125 C 13.019531 -15.570312 13.066406 -15.601562 13.140625 -15.625 C 14.023438 -15.8125 14.882812 -15.800781 15.71875 -15.59375 C 16.550781 -15.394531 17.3125 -15.035156 18 -14.515625 C 18.6875 -14.003906 19.265625 -13.363281 19.734375 -12.59375 C 20.210938 -11.832031 20.554688 -10.972656 20.765625 -10.015625 C 21.128906 -8.378906 20.941406 -6.914062 20.203125 -5.625 C 19.472656 -4.332031 18.332031 -3.535156 16.78125 -3.234375 C 15.800781 -3.015625 14.703125 -3.050781 13.484375 -3.34375 C 12.128906 -3.695312 11.03125 -4.316406 10.1875 -5.203125 C 9.351562 -6.085938 8.691406 -7.132812 8.203125 -8.34375 C 7.941406 -9.019531 7.710938 -9.679688 7.515625 -10.328125 C 7.316406 -10.984375 7.160156 -11.660156 7.046875 -12.359375 C 6.859375 -13.035156 6.695312 -13.710938 6.5625 -14.390625 C 6.4375 -15.078125 6.3125 -15.710938 6.1875 -16.296875 L 2.765625 -31 C 2.398438 -32.3125 2.066406 -33.644531 1.765625 -35 C 1.472656 -36.351562 1.140625 -37.707031 0.765625 -39.0625 C 0.691406 -39.070312 0.617188 -39.140625 0.546875 -39.265625 C 0.460938 -39.421875 0.347656 -39.484375 0.203125 -39.453125 C 0.128906 -39.441406 0.0820312 -39.425781 0.0625 -39.40625 C 0.0507812 -39.382812 0.0078125 -39.363281 -0.0625 -39.34375 L -0.171875 -39.15625 C -0.210938 -39.070312 -0.265625 -39.003906 -0.328125 -38.953125 C -0.398438 -38.910156 -0.457031 -38.832031 -0.5 -38.71875 C -0.675781 -38.394531 -0.945312 -38.007812 -1.3125 -37.5625 C -1.632812 -37.09375 -2.019531 -36.65625 -2.46875 -36.25 C -2.925781 -35.851562 -3.445312 -35.585938 -4.03125 -35.453125 C -4.644531 -35.347656 -5.234375 -35.40625 -5.796875 -35.625 C -6.367188 -35.84375 -6.90625 -36.203125 -7.40625 -36.703125 C -7.613281 -36.941406 -7.894531 -37.414062 -8.25 -38.125 C -8.601562 -38.832031 -8.957031 -39.601562 -9.3125 -40.4375 C -9.675781 -41.269531 -10.015625 -42.078125 -10.328125 -42.859375 C -10.640625 -43.640625 -10.851562 -44.226562 -10.96875 -44.625 C -11.101562 -44.875 -11.191406 -45.101562 -11.234375 -45.3125 C -11.441406 -46.0625 -11.363281 -46.710938 -11 -47.265625 C -10.644531 -47.828125 -10.109375 -48.1875 -9.390625 -48.34375 C -8.648438 -48.507812 -8.035156 -48.40625 -7.546875 -48.03125 C -7.066406 -47.65625 -6.632812 -47.148438 -6.25 -46.515625 C -6.039062 -46.203125 -5.859375 -45.90625 -5.703125 -45.625 C -5.554688 -45.34375 -5.410156 -45.046875 -5.265625 -44.734375 C -5.140625 -44.492188 -5.003906 -44.25 -4.859375 -44 C -4.710938 -43.757812 -4.539062 -43.578125 -4.34375 -43.453125 L -4.140625 -43.328125 Z M 13.125 -9.390625 C 13.238281 -9.066406 13.425781 -8.753906 13.6875 -8.453125 C 13.945312 -8.148438 14.28125 -8.039062 14.6875 -8.125 C 15.101562 -8.21875 15.425781 -8.414062 15.65625 -8.71875 C 15.894531 -9.019531 15.960938 -9.410156 15.859375 -9.890625 C 15.710938 -10.390625 15.429688 -10.675781 15.015625 -10.75 C 14.597656 -10.832031 14.238281 -10.851562 13.9375 -10.8125 C 13.601562 -10.738281 13.375 -10.570312 13.25 -10.3125 C 13.125 -10.0625 13.082031 -9.753906 13.125 -9.390625 Z M 13.125 -9.390625 "/></g></g></g><g fill="#000000" fill-opacity="1"><g transform="translate(129.693708, 57.077991)"><g><path d="M 7.359375 -23.796875 C 6.835938 -23.671875 6.515625 -23.414062 6.390625 -23.03125 C 6.265625 -22.644531 6.191406 -22.257812 6.171875 -21.875 C 6.203125 -21.207031 6.382812 -20.625 6.71875 -20.125 C 7.050781 -19.632812 7.46875 -19.257812 7.96875 -19 C 8.363281 -18.832031 8.726562 -18.832031 9.0625 -19 C 9.394531 -19.175781 9.59375 -19.472656 9.65625 -19.890625 C 9.707031 -20.359375 9.6875 -20.789062 9.59375 -21.1875 C 9.507812 -21.582031 9.367188 -21.988281 9.171875 -22.40625 C 9.035156 -22.820312 8.828125 -23.191406 8.546875 -23.515625 C 8.273438 -23.835938 7.878906 -23.929688 7.359375 -23.796875 Z M 3.296875 -16.34375 C 2.554688 -17.46875 2.039062 -18.769531 1.75 -20.25 C 1.46875 -21.726562 1.472656 -23.117188 1.765625 -24.421875 C 2.066406 -25.722656 2.65625 -26.828125 3.53125 -27.734375 C 4.40625 -28.648438 5.609375 -29.101562 7.140625 -29.09375 C 8.710938 -29.09375 10.015625 -28.628906 11.046875 -27.703125 C 12.085938 -26.773438 12.929688 -25.640625 13.578125 -24.296875 C 14.222656 -22.960938 14.722656 -21.539062 15.078125 -20.03125 C 15.441406 -18.519531 15.726562 -17.175781 15.9375 -16 C 16.269531 -16.570312 16.550781 -17.085938 16.78125 -17.546875 C 17.007812 -18.015625 17.253906 -18.445312 17.515625 -18.84375 C 18.148438 -19.75 18.929688 -20.242188 19.859375 -20.328125 C 20.785156 -20.421875 21.660156 -20.132812 22.484375 -19.46875 C 22.773438 -19.195312 23.050781 -18.910156 23.3125 -18.609375 C 23.570312 -18.304688 23.828125 -18 24.078125 -17.6875 C 24.859375 -16.695312 25.625 -15.691406 26.375 -14.671875 C 27.132812 -13.660156 27.898438 -12.660156 28.671875 -11.671875 C 28.816406 -11.503906 28.953125 -11.3125 29.078125 -11.09375 C 29.210938 -10.875 29.4375 -10.734375 29.75 -10.671875 C 29.59375 -13.003906 29.5 -15.320312 29.46875 -17.625 C 29.445312 -19.9375 29.425781 -22.253906 29.40625 -24.578125 C 29.382812 -25.203125 29.410156 -25.832031 29.484375 -26.46875 C 29.640625 -27.132812 29.945312 -27.664062 30.40625 -28.0625 C 30.863281 -28.46875 31.421875 -28.671875 32.078125 -28.671875 C 32.671875 -28.648438 33.203125 -28.460938 33.671875 -28.109375 C 34.148438 -27.765625 34.46875 -27.265625 34.625 -26.609375 C 34.75 -26.117188 34.789062 -25.5625 34.75 -24.9375 C 34.738281 -21.6875 34.785156 -18.453125 34.890625 -15.234375 C 35.003906 -12.015625 35.210938 -8.769531 35.515625 -5.5 C 35.609375 -4.800781 35.582031 -4.132812 35.4375 -3.5 C 35.289062 -2.789062 35.015625 -2.253906 34.609375 -1.890625 C 34.203125 -1.523438 33.734375 -1.304688 33.203125 -1.234375 C 32.679688 -1.160156 32.144531 -1.207031 31.59375 -1.375 C 31.050781 -1.550781 30.546875 -1.835938 30.078125 -2.234375 C 29.109375 -3.066406 28.175781 -3.957031 27.28125 -4.90625 C 26.394531 -5.851562 25.546875 -6.816406 24.734375 -7.796875 C 23.992188 -8.679688 23.320312 -9.570312 22.71875 -10.46875 C 22.125 -11.363281 21.460938 -12.222656 20.734375 -13.046875 C 20.222656 -11.828125 19.816406 -10.582031 19.515625 -9.3125 C 19.210938 -8.050781 18.929688 -6.769531 18.671875 -5.46875 C 18.585938 -5 18.46875 -4.488281 18.3125 -3.9375 C 18.164062 -3.394531 17.957031 -2.890625 17.6875 -2.421875 C 17.425781 -1.960938 17.085938 -1.582031 16.671875 -1.28125 C 16.265625 -0.988281 15.765625 -0.847656 15.171875 -0.859375 C 13.703125 -0.910156 12.789062 -1.890625 12.4375 -3.796875 C 12.394531 -3.941406 12.363281 -4.085938 12.34375 -4.234375 C 12.320312 -4.390625 12.285156 -4.554688 12.234375 -4.734375 C 12.046875 -6.097656 11.847656 -7.460938 11.640625 -8.828125 C 11.429688 -10.203125 11.226562 -11.566406 11.03125 -12.921875 C 10.945312 -13.304688 10.847656 -13.546875 10.734375 -13.640625 C 10.617188 -13.742188 10.378906 -13.753906 10.015625 -13.671875 C 9.597656 -13.546875 9.144531 -13.472656 8.65625 -13.453125 C 7.507812 -13.378906 6.488281 -13.609375 5.59375 -14.140625 C 4.695312 -14.679688 3.929688 -15.414062 3.296875 -16.34375 Z M 3.296875 -16.34375 "/></g></g></g><g fill="#000000" fill-opacity="1"><g transform="translate(166.153635, 56.36531)"><g/></g></g><g fill="#000000" fill-opacity="1"><g transform="translate(176.119483, 56.503019)"><g><path d="M 15.640625 -16.421875 C 15.890625 -16.316406 16.117188 -16.28125 16.328125 -16.3125 C 16.535156 -16.351562 16.679688 -16.539062 16.765625 -16.875 C 16.890625 -17.394531 16.847656 -17.957031 16.640625 -18.5625 C 16.429688 -19.175781 16.132812 -19.515625 15.75 -19.578125 C 15.34375 -19.628906 15.082031 -19.535156 14.96875 -19.296875 C 14.851562 -19.066406 14.726562 -18.816406 14.59375 -18.546875 C 14.4375 -18.085938 14.46875 -17.644531 14.6875 -17.21875 C 14.90625 -16.789062 15.222656 -16.523438 15.640625 -16.421875 Z M 14.984375 -3.40625 C 15.097656 -3.695312 15.097656 -3.988281 14.984375 -4.28125 C 14.878906 -4.582031 14.660156 -4.734375 14.328125 -4.734375 C 13.953125 -4.796875 13.664062 -4.691406 13.46875 -4.421875 C 13.269531 -4.148438 13.132812 -3.863281 13.0625 -3.5625 C 13.03125 -3.238281 12.992188 -2.851562 12.953125 -2.40625 C 12.921875 -1.96875 13.082031 -1.722656 13.4375 -1.671875 C 13.957031 -1.660156 14.320312 -1.859375 14.53125 -2.265625 C 14.75 -2.679688 14.898438 -3.0625 14.984375 -3.40625 Z M 13.71875 -10.1875 C 13.875 -10.226562 14.039062 -10.25 14.21875 -10.25 C 14.40625 -10.257812 14.535156 -10.363281 14.609375 -10.5625 C 13.273438 -10.96875 12.148438 -11.613281 11.234375 -12.5 C 10.316406 -13.382812 9.675781 -14.394531 9.3125 -15.53125 C 8.945312 -16.664062 8.851562 -17.859375 9.03125 -19.109375 C 9.207031 -20.359375 9.707031 -21.550781 10.53125 -22.6875 C 11.125 -23.507812 11.8125 -24.15625 12.59375 -24.625 C 13.375 -25.101562 14.195312 -25.378906 15.0625 -25.453125 C 15.9375 -25.535156 16.800781 -25.425781 17.65625 -25.125 C 18.519531 -24.820312 19.332031 -24.320312 20.09375 -23.625 C 20.6875 -23.082031 21.125 -22.46875 21.40625 -21.78125 C 21.6875 -21.101562 21.929688 -20.382812 22.140625 -19.625 C 22.347656 -18.675781 22.445312 -17.71875 22.4375 -16.75 C 22.4375 -15.78125 22.375 -14.796875 22.25 -13.796875 C 22.132812 -12.796875 21.972656 -11.804688 21.765625 -10.828125 C 21.554688 -9.847656 21.378906 -8.894531 21.234375 -7.96875 C 21.171875 -7.695312 21.207031 -7.492188 21.34375 -7.359375 C 22.539062 -6.046875 23.65625 -4.507812 24.6875 -2.75 C 24.832031 -3 24.941406 -3.210938 25.015625 -3.390625 C 25.097656 -3.566406 25.175781 -3.742188 25.25 -3.921875 C 26.25 -6.335938 27.210938 -8.753906 28.140625 -11.171875 C 29.078125 -13.585938 30.09375 -15.957031 31.1875 -18.28125 C 31.34375 -18.59375 31.503906 -18.890625 31.671875 -19.171875 C 31.835938 -19.460938 32.035156 -19.738281 32.265625 -20 C 33.097656 -20.875 34.0625 -21.128906 35.15625 -20.765625 C 35.71875 -20.554688 36.132812 -20.226562 36.40625 -19.78125 C 36.675781 -19.332031 36.828125 -18.796875 36.859375 -18.171875 C 36.859375 -17.742188 36.789062 -17.347656 36.65625 -16.984375 C 36.53125 -16.617188 36.382812 -16.242188 36.21875 -15.859375 C 34.851562 -12.765625 33.539062 -9.675781 32.28125 -6.59375 C 31.03125 -3.519531 29.835938 -0.394531 28.703125 2.78125 C 28.554688 3.207031 28.390625 3.613281 28.203125 4 C 28.023438 4.382812 27.769531 4.734375 27.4375 5.046875 C 26.75 5.785156 25.960938 6.148438 25.078125 6.140625 C 24.203125 6.140625 23.4375 5.769531 22.78125 5.03125 C 22.59375 4.8125 22.421875 4.570312 22.265625 4.3125 C 22.117188 4.0625 21.960938 3.8125 21.796875 3.5625 C 21.453125 2.96875 21.109375 2.359375 20.765625 1.734375 C 20.421875 1.117188 20.082031 0.5 19.75 -0.125 C 19.539062 -0.46875 19.359375 -0.628906 19.203125 -0.609375 C 19.054688 -0.597656 18.890625 -0.421875 18.703125 -0.078125 C 18.003906 1.171875 17.050781 2.113281 15.84375 2.75 C 15.019531 3.164062 14.210938 3.363281 13.421875 3.34375 C 12.640625 3.320312 11.910156 3.003906 11.234375 2.390625 C 10.148438 1.390625 9.398438 0.273438 8.984375 -0.953125 C 8.566406 -2.179688 8.476562 -3.507812 8.71875 -4.9375 C 8.988281 -6.3125 9.566406 -7.421875 10.453125 -8.265625 C 11.335938 -9.109375 12.425781 -9.75 13.71875 -10.1875 Z M 13.71875 -10.1875 "/></g></g></g><g fill="#000000" fill-opacity="1"><g transform="translate(205.868072, 63.687166)"><g><path d="M 17.015625 -7.796875 C 17.078125 -8.066406 17.175781 -8.328125 17.3125 -8.578125 C 17.457031 -8.828125 17.414062 -9.03125 17.1875 -9.1875 C 16.988281 -9.363281 16.773438 -9.359375 16.546875 -9.171875 C 16.316406 -8.992188 16.101562 -8.847656 15.90625 -8.734375 C 15.519531 -8.484375 15.285156 -8.207031 15.203125 -7.90625 C 15.109375 -7.632812 15.007812 -7.359375 14.90625 -7.078125 C 14.800781 -6.804688 14.90625 -6.582031 15.21875 -6.40625 C 15.539062 -6.1875 15.804688 -6.179688 16.015625 -6.390625 C 16.222656 -6.609375 16.414062 -6.828125 16.59375 -7.046875 C 16.707031 -7.160156 16.785156 -7.285156 16.828125 -7.421875 C 16.867188 -7.554688 16.929688 -7.679688 17.015625 -7.796875 Z M 12.8125 -1.734375 C 12.675781 -1.796875 12.535156 -1.835938 12.390625 -1.859375 C 12.242188 -1.890625 12.15625 -1.8125 12.125 -1.625 C 12.0625 -1.394531 11.992188 -1.175781 11.921875 -0.96875 C 11.859375 -0.769531 11.960938 -0.59375 12.234375 -0.4375 C 12.492188 -0.25 12.753906 -0.0859375 13.015625 0.046875 C 13.273438 0.179688 13.546875 0.328125 13.828125 0.484375 C 14.734375 0.960938 15.675781 1.34375 16.65625 1.625 C 17.632812 1.90625 18.648438 2.125 19.703125 2.28125 C 20.285156 2.425781 20.707031 2.234375 20.96875 1.703125 C 21.945312 0.0234375 22.863281 -1.679688 23.71875 -3.421875 C 24.582031 -5.160156 25.363281 -6.945312 26.0625 -8.78125 C 26.132812 -9.03125 26.203125 -9.269531 26.265625 -9.5 C 26.335938 -9.738281 26.398438 -9.976562 26.453125 -10.21875 C 26.773438 -11.707031 26.753906 -12.859375 26.390625 -13.671875 C 26.023438 -14.484375 25.148438 -15.234375 23.765625 -15.921875 C 22.878906 -16.390625 22.015625 -16.800781 21.171875 -17.15625 C 20.328125 -17.507812 19.40625 -17.71875 18.40625 -17.78125 C 17.507812 -17.832031 16.644531 -17.742188 15.8125 -17.515625 C 14.988281 -17.296875 14.140625 -17.144531 13.265625 -17.0625 C 12.597656 -17.007812 12.019531 -17.140625 11.53125 -17.453125 C 11.039062 -17.773438 10.703125 -18.203125 10.515625 -18.734375 C 10.296875 -19.453125 10.316406 -20.066406 10.578125 -20.578125 C 10.847656 -21.085938 11.257812 -21.503906 11.8125 -21.828125 C 12.375 -22.160156 13.039062 -22.414062 13.8125 -22.59375 C 14.582031 -22.769531 15.347656 -22.898438 16.109375 -22.984375 C 16.878906 -23.066406 17.609375 -23.09375 18.296875 -23.0625 C 18.992188 -23.039062 19.539062 -23 19.9375 -22.9375 C 21.363281 -22.707031 22.738281 -22.269531 24.0625 -21.625 C 25.382812 -20.976562 26.664062 -20.285156 27.90625 -19.546875 C 28.75 -18.972656 29.460938 -18.289062 30.046875 -17.5 C 30.640625 -16.707031 31.128906 -15.84375 31.515625 -14.90625 C 31.890625 -13.0625 31.910156 -11.289062 31.578125 -9.59375 C 31.253906 -7.90625 30.71875 -6.257812 29.96875 -4.65625 C 29.226562 -3.0625 28.46875 -1.492188 27.6875 0.046875 C 26.90625 1.597656 26.082031 3.132812 25.21875 4.65625 C 23.96875 6.894531 22.0625 7.847656 19.5 7.515625 C 17.582031 7.253906 15.753906 6.8125 14.015625 6.1875 C 12.285156 5.570312 10.625 4.738281 9.03125 3.6875 C 7.988281 3.039062 7.285156 2.296875 6.921875 1.453125 C 6.566406 0.609375 6.507812 -0.429688 6.75 -1.671875 C 7.125 -3.484375 7.664062 -5.222656 8.375 -6.890625 C 9.082031 -8.566406 10.035156 -10.125 11.234375 -11.5625 C 12.117188 -12.613281 13.164062 -13.40625 14.375 -13.9375 C 15.59375 -14.476562 16.941406 -14.644531 18.421875 -14.4375 C 19.535156 -14.289062 20.445312 -13.867188 21.15625 -13.171875 C 21.863281 -12.472656 22.285156 -11.546875 22.421875 -10.390625 C 22.628906 -8.691406 22.441406 -7.175781 21.859375 -5.84375 C 21.273438 -4.519531 20.300781 -3.335938 18.9375 -2.296875 L 18.921875 -2.25 C 18.796875 -2.101562 18.664062 -1.992188 18.53125 -1.921875 C 18.40625 -1.847656 18.28125 -1.765625 18.15625 -1.671875 C 17.238281 -1.304688 16.34375 -1.109375 15.46875 -1.078125 C 14.59375 -1.046875 13.707031 -1.265625 12.8125 -1.734375 Z M 12.8125 -1.734375 "/></g></g></g><g fill="#000000" fill-opacity="1"><g transform="translate(228.667406, 73.357353)"><g><path d="M 12.28125 0.625 C 12.882812 -0.144531 12.941406 -0.800781 12.453125 -1.34375 C 12.097656 -1.6875 11.796875 -1.832031 11.546875 -1.78125 C 11.304688 -1.738281 11.070312 -1.597656 10.84375 -1.359375 C 10.5625 -1.003906 10.296875 -0.601562 10.046875 -0.15625 C 9.804688 0.28125 9.9375 0.722656 10.4375 1.171875 C 10.75 1.460938 11.070312 1.539062 11.40625 1.40625 C 11.738281 1.269531 12.003906 1.054688 12.203125 0.765625 Z M 27.984375 6.71875 C 27.585938 7.3125 27.160156 7.945312 26.703125 8.625 C 26.253906 9.300781 25.75 9.9375 25.1875 10.53125 C 24.625 11.132812 24.019531 11.648438 23.375 12.078125 C 22.738281 12.515625 22.039062 12.804688 21.28125 12.953125 C 20.726562 13.046875 20.226562 13.015625 19.78125 12.859375 C 19.34375 12.710938 18.945312 12.46875 18.59375 12.125 C 18.25 11.789062 17.988281 11.394531 17.8125 10.9375 C 17.632812 10.476562 17.53125 9.988281 17.5 9.46875 C 17.414062 8.375 17.453125 7.300781 17.609375 6.25 C 17.773438 5.207031 17.957031 4.148438 18.15625 3.078125 C 18.3125 2.128906 18.425781 1.191406 18.5 0.265625 C 18.582031 -0.660156 18.53125 -1.601562 18.34375 -2.5625 C 18.144531 -3.4375 17.863281 -4.085938 17.5 -4.515625 C 17.132812 -4.941406 16.609375 -5.207031 15.921875 -5.3125 C 16.171875 -4.875 16.421875 -4.445312 16.671875 -4.03125 C 16.929688 -3.613281 17.117188 -3.171875 17.234375 -2.703125 C 17.585938 -1.265625 17.539062 0.0546875 17.09375 1.265625 C 16.65625 2.484375 15.867188 3.617188 14.734375 4.671875 C 14.203125 5.148438 13.601562 5.53125 12.9375 5.8125 C 12.28125 6.09375 11.597656 6.242188 10.890625 6.265625 C 10.191406 6.285156 9.53125 6.15625 8.90625 5.875 C 8.289062 5.59375 7.742188 5.132812 7.265625 4.5 C 6.359375 3.195312 5.910156 1.898438 5.921875 0.609375 C 5.929688 -0.679688 6.207031 -2.03125 6.75 -3.4375 C 7.050781 -4.226562 7.457031 -5.015625 7.96875 -5.796875 C 8.488281 -6.585938 9.082031 -7.316406 9.75 -7.984375 C 10.414062 -8.660156 11.148438 -9.234375 11.953125 -9.703125 C 12.765625 -10.179688 13.609375 -10.476562 14.484375 -10.59375 C 15.390625 -10.707031 16.265625 -10.675781 17.109375 -10.5 C 17.960938 -10.320312 18.757812 -10.007812 19.5 -9.5625 C 20.25 -9.113281 20.910156 -8.554688 21.484375 -7.890625 C 22.054688 -7.234375 22.507812 -6.484375 22.84375 -5.640625 C 23.46875 -4.054688 23.75 -2.382812 23.6875 -0.625 C 23.6875 -0.5 23.671875 -0.203125 23.640625 0.265625 C 23.609375 0.742188 23.570312 1.253906 23.53125 1.796875 C 23.488281 2.335938 23.441406 2.820312 23.390625 3.25 C 23.347656 3.675781 23.3125 3.882812 23.28125 3.875 C 23.519531 3.9375 23.671875 3.898438 23.734375 3.765625 C 23.796875 3.640625 23.859375 3.535156 23.921875 3.453125 C 24.710938 2.097656 25.378906 0.734375 25.921875 -0.640625 C 26.472656 -2.015625 26.828125 -3.492188 26.984375 -5.078125 C 27.078125 -6.304688 26.859375 -7.4375 26.328125 -8.46875 C 25.804688 -9.5 25.101562 -10.382812 24.21875 -11.125 C 23.332031 -11.863281 22.320312 -12.4375 21.1875 -12.84375 C 20.050781 -13.25 18.898438 -13.457031 17.734375 -13.46875 C 17.378906 -13.445312 17.03125 -13.390625 16.6875 -13.296875 C 16.34375 -13.210938 16.003906 -13.144531 15.671875 -13.09375 C 15.347656 -13.039062 15.015625 -13.023438 14.671875 -13.046875 C 14.335938 -13.078125 13.992188 -13.207031 13.640625 -13.4375 C 13.285156 -13.71875 13.019531 -14.050781 12.84375 -14.4375 C 12.675781 -14.820312 12.601562 -15.210938 12.625 -15.609375 C 12.644531 -16.015625 12.753906 -16.414062 12.953125 -16.8125 C 13.148438 -17.207031 13.441406 -17.550781 13.828125 -17.84375 C 14.160156 -18.082031 14.503906 -18.25 14.859375 -18.34375 C 15.210938 -18.445312 15.554688 -18.5625 15.890625 -18.6875 C 17.460938 -18.875 19 -18.851562 20.5 -18.625 C 22.007812 -18.394531 23.484375 -17.910156 24.921875 -17.171875 C 26.773438 -16.253906 28.226562 -15.128906 29.28125 -13.796875 C 30.332031 -12.460938 31.0625 -10.992188 31.46875 -9.390625 C 31.71875 -9.773438 31.976562 -10.148438 32.25 -10.515625 C 32.519531 -10.878906 32.78125 -11.253906 33.03125 -11.640625 C 33.1875 -11.878906 33.359375 -12.117188 33.546875 -12.359375 C 33.742188 -12.609375 33.976562 -12.804688 34.25 -12.953125 C 35.257812 -13.609375 36.21875 -13.609375 37.125 -12.953125 C 38.007812 -12.335938 38.34375 -11.4375 38.125 -10.25 C 38.0625 -9.96875 37.957031 -9.71875 37.8125 -9.5 C 37.675781 -9.28125 37.53125 -9.050781 37.375 -8.8125 C 36.882812 -8.15625 36.078125 -7.007812 34.953125 -5.375 C 33.828125 -3.738281 32.535156 -1.929688 31.078125 0.046875 C 30.335938 2.453125 29.304688 4.675781 27.984375 6.71875 Z M 27.984375 6.71875 "/></g></g></g><g fill="#000000" fill-opacity="1"><g transform="translate(43.451046, 328.821228)"><g><path d="M 30.59375 -9.125 C 30.28125 -8.488281 29.976562 -7.9375 29.6875 -7.46875 C 29.40625 -7.007812 29.046875 -6.601562 28.609375 -6.25 C 28.179688 -5.90625 27.664062 -5.566406 27.0625 -5.234375 C 26.46875 -4.910156 25.726562 -4.578125 24.84375 -4.234375 C 22.550781 -3.304688 20.328125 -3.117188 18.171875 -3.671875 C 17.648438 -3.679688 16.960938 -3.710938 16.109375 -3.765625 C 15.265625 -3.828125 14.265625 -3.921875 13.109375 -4.046875 L 11.921875 -0.484375 C 11.785156 0.046875 11.632812 0.566406 11.46875 1.078125 C 11.3125 1.585938 11.113281 2.148438 10.875 2.765625 C 10.707031 3.203125 10.523438 3.671875 10.328125 4.171875 C 10.128906 4.671875 9.882812 5.109375 9.59375 5.484375 C 9.300781 5.867188 8.929688 6.140625 8.484375 6.296875 C 8.035156 6.453125 7.488281 6.40625 6.84375 6.15625 C 6.15625 5.882812 5.703125 5.554688 5.484375 5.171875 C 5.265625 4.796875 5.1875 4.363281 5.25 3.875 C 5.3125 3.394531 5.453125 2.84375 5.671875 2.21875 C 5.890625 1.59375 6.078125 0.921875 6.234375 0.203125 L 6.21875 0.265625 C 6.363281 -0.210938 6.550781 -0.78125 6.78125 -1.4375 C 6.957031 -2.03125 7.191406 -2.753906 7.484375 -3.609375 C 7.785156 -4.460938 8.125 -5.476562 8.5 -6.65625 L 8.625 -6.984375 C 8.707031 -7.191406 8.804688 -7.476562 8.921875 -7.84375 C 9.046875 -8.21875 9.171875 -8.609375 9.296875 -9.015625 C 9.421875 -9.421875 9.53125 -9.78125 9.625 -10.09375 C 9.71875 -10.40625 9.789062 -10.617188 9.84375 -10.734375 C 9.925781 -10.953125 10.082031 -11.332031 10.3125 -11.875 C 10.550781 -12.414062 10.804688 -13.003906 11.078125 -13.640625 C 11.347656 -14.285156 11.601562 -14.898438 11.84375 -15.484375 C 12.09375 -16.066406 12.285156 -16.523438 12.421875 -16.859375 C 12.640625 -17.429688 12.8125 -17.957031 12.9375 -18.4375 C 13.070312 -18.925781 13.179688 -19.378906 13.265625 -19.796875 C 13.296875 -19.867188 13.394531 -20.097656 13.5625 -20.484375 C 13.738281 -20.867188 13.941406 -21.296875 14.171875 -21.765625 C 14.398438 -22.242188 14.644531 -22.710938 14.90625 -23.171875 C 15.164062 -23.628906 15.410156 -23.992188 15.640625 -24.265625 C 16.796875 -24.347656 18.050781 -24.125 19.40625 -23.59375 L 19.84375 -23.421875 C 21.5625 -23.285156 23.082031 -22.960938 24.40625 -22.453125 C 24.90625 -22.253906 26.238281 -21.484375 28.40625 -20.140625 L 30.28125 -17.921875 C 30.769531 -17.265625 31.140625 -16.648438 31.390625 -16.078125 C 31.640625 -15.503906 31.773438 -14.882812 31.796875 -14.21875 C 31.828125 -13.550781 31.742188 -12.8125 31.546875 -12 C 31.347656 -11.1875 31.03125 -10.226562 30.59375 -9.125 Z M 25.25 -10.328125 C 25.625 -10.960938 25.914062 -11.550781 26.125 -12.09375 C 26.5 -13.0625 26.445312 -14.101562 25.96875 -15.21875 C 25.5 -16.34375 24.375 -17.253906 22.59375 -17.953125 C 21.769531 -18.273438 20.40625 -18.476562 18.5 -18.5625 C 18.289062 -17.851562 18.019531 -17.015625 17.6875 -16.046875 C 17.351562 -15.085938 16.941406 -13.976562 16.453125 -12.71875 C 16.390625 -12.664062 16.226562 -12.316406 15.96875 -11.671875 C 15.84375 -11.347656 15.691406 -10.957031 15.515625 -10.5 C 15.335938 -10.050781 15.160156 -9.535156 14.984375 -8.953125 C 15.316406 -8.867188 15.707031 -8.796875 16.15625 -8.734375 C 16.613281 -8.679688 17.046875 -8.648438 17.453125 -8.640625 C 17.867188 -8.628906 18.222656 -8.625 18.515625 -8.625 C 18.804688 -8.632812 18.953125 -8.640625 18.953125 -8.640625 C 21.773438 -8.242188 23.875 -8.804688 25.25 -10.328125 Z M 25.25 -10.328125 "/></g></g></g><g fill="#000000" fill-opacity="1"><g transform="translate(70.536858, 339.352259)"><g><path d="M 23.703125 4.203125 C 22.191406 5.066406 20.578125 5.707031 18.859375 6.125 C 17.140625 6.550781 15.515625 6.550781 13.984375 6.125 C 12.617188 5.75 10.921875 5.035156 8.890625 3.984375 C 8.285156 3.285156 7.707031 2.488281 7.15625 1.59375 C 6.601562 0.707031 6.148438 -0.234375 5.796875 -1.234375 C 5.441406 -2.234375 5.210938 -3.273438 5.109375 -4.359375 C 5.015625 -5.441406 5.113281 -6.5 5.40625 -7.53125 C 5.488281 -7.832031 5.617188 -8.226562 5.796875 -8.71875 C 5.972656 -9.207031 6.160156 -9.691406 6.359375 -10.171875 C 6.554688 -10.660156 6.722656 -11.082031 6.859375 -11.4375 C 7.003906 -11.800781 7.078125 -11.984375 7.078125 -11.984375 C 8.140625 -12.972656 9.25 -13.929688 10.40625 -14.859375 C 11.570312 -15.796875 13.039062 -16.5 14.8125 -16.96875 C 17.363281 -16.8125 19.175781 -16.585938 20.25 -16.296875 C 20.8125 -16.140625 21.285156 -15.976562 21.671875 -15.8125 C 22.066406 -15.644531 22.4375 -15.421875 22.78125 -15.140625 C 23.125 -14.859375 23.441406 -14.492188 23.734375 -14.046875 C 24.035156 -13.609375 24.375 -13.054688 24.75 -12.390625 C 25.15625 -11.585938 25.503906 -11.03125 25.796875 -10.71875 C 26.085938 -10.40625 26.207031 -10.15625 26.15625 -9.96875 C 25.207031 -6.550781 23.507812 -4.523438 21.0625 -3.890625 C 20.03125 -3.816406 18.71875 -3.789062 17.125 -3.8125 C 15.539062 -3.84375 13.421875 -4.046875 10.765625 -4.421875 C 10.890625 -2.867188 11.28125 -1.617188 11.9375 -0.671875 C 12.59375 0.273438 13.460938 0.898438 14.546875 1.203125 C 16.140625 1.640625 18.40625 1.242188 21.34375 0.015625 C 21.800781 -0.203125 22.304688 -0.234375 22.859375 -0.078125 C 23.453125 0.078125 23.921875 0.441406 24.265625 1.015625 C 24.609375 1.585938 24.691406 2.207031 24.515625 2.875 C 24.378906 3.351562 24.109375 3.796875 23.703125 4.203125 Z M 20.734375 -9.4375 C 20.347656 -10.78125 19.675781 -11.585938 18.71875 -11.859375 C 18.3125 -11.972656 17.847656 -12.039062 17.328125 -12.0625 C 16.816406 -12.082031 16.28125 -12.0625 15.71875 -12 C 15.164062 -11.9375 14.632812 -11.816406 14.125 -11.640625 C 13.613281 -11.460938 13.175781 -11.207031 12.8125 -10.875 L 11.78125 -9.359375 C 13.082031 -9.117188 14.222656 -8.898438 15.203125 -8.703125 C 16.179688 -8.515625 17.046875 -8.394531 17.796875 -8.34375 C 18.546875 -8.289062 19.160156 -8.335938 19.640625 -8.484375 C 20.117188 -8.628906 20.484375 -8.945312 20.734375 -9.4375 Z M 20.734375 -9.4375 "/></g></g></g><g fill="#000000" fill-opacity="1"><g transform="translate(98.183278, 346.855043)"><g><path d="M 21.890625 -18.03125 C 22.242188 -17.625 22.335938 -16.960938 22.171875 -16.046875 C 21.859375 -14.390625 21.078125 -13.675781 19.828125 -13.90625 L 19.609375 -13.953125 C 19.035156 -14.015625 18.363281 -14.085938 17.59375 -14.171875 C 16.820312 -14.253906 15.953125 -14.332031 14.984375 -14.40625 C 14.796875 -13.8125 14.566406 -13.019531 14.296875 -12.03125 C 14.035156 -11.050781 13.773438 -9.859375 13.515625 -8.453125 C 13.484375 -8.335938 13.46875 -8.222656 13.46875 -8.109375 C 13.46875 -7.992188 13.457031 -7.859375 13.4375 -7.703125 L 12.9375 -5.09375 C 12.820312 -4.488281 12.832031 -3.984375 12.96875 -3.578125 C 13.113281 -3.179688 13.328125 -2.878906 13.609375 -2.671875 L 15.109375 -1.875 C 16.273438 -1.21875 16.753906 -0.335938 16.546875 0.765625 C 16.429688 1.398438 16.070312 1.914062 15.46875 2.3125 C 14.863281 2.707031 14.160156 2.832031 13.359375 2.6875 C 13.128906 2.644531 12.753906 2.503906 12.234375 2.265625 C 11.710938 2.023438 11.175781 1.738281 10.625 1.40625 C 10.082031 1.070312 9.585938 0.6875 9.140625 0.25 C 8.703125 -0.1875 8.425781 -0.628906 8.3125 -1.078125 C 8.050781 -2.023438 7.878906 -3.003906 7.796875 -4.015625 C 7.722656 -5.035156 7.785156 -6.078125 7.984375 -7.140625 C 8.203125 -8.316406 8.375 -9.144531 8.5 -9.625 C 8.632812 -10.113281 8.753906 -10.539062 8.859375 -10.90625 C 8.972656 -11.28125 9.097656 -11.726562 9.234375 -12.25 C 9.367188 -12.769531 9.550781 -13.640625 9.78125 -14.859375 C 9.050781 -14.910156 7.945312 -14.878906 6.46875 -14.765625 C 5.632812 -14.921875 4.960938 -15.269531 4.453125 -15.8125 C 3.953125 -16.351562 3.769531 -16.988281 3.90625 -17.71875 C 4.007812 -18.238281 4.265625 -18.695312 4.671875 -19.09375 C 5.078125 -19.5 5.828125 -19.769531 6.921875 -19.90625 C 7.273438 -19.957031 7.597656 -19.976562 7.890625 -19.96875 C 8.179688 -19.957031 8.472656 -19.941406 8.765625 -19.921875 C 9.054688 -19.910156 9.375 -19.878906 9.71875 -19.828125 C 10.0625 -19.785156 10.484375 -19.75 10.984375 -19.71875 C 11.203125 -20.675781 11.46875 -21.738281 11.78125 -22.90625 C 12.101562 -24.070312 12.484375 -25.140625 12.921875 -26.109375 C 13.367188 -27.085938 13.890625 -27.882812 14.484375 -28.5 C 15.085938 -29.113281 15.789062 -29.347656 16.59375 -29.203125 C 17.957031 -28.941406 18.671875 -28.160156 18.734375 -26.859375 C 18.722656 -26.816406 18.628906 -26.566406 18.453125 -26.109375 C 18.273438 -25.660156 18.070312 -25.164062 17.84375 -24.625 C 17.625 -24.082031 17.414062 -23.550781 17.21875 -23.03125 C 17.019531 -22.519531 16.910156 -22.191406 16.890625 -22.046875 L 16.1875 -19.28125 C 16.46875 -19.269531 16.722656 -19.253906 16.953125 -19.234375 C 17.179688 -19.210938 17.429688 -19.175781 17.703125 -19.125 L 18.203125 -19.03125 C 18.472656 -18.976562 18.722656 -18.941406 18.953125 -18.921875 C 19.179688 -18.898438 19.390625 -18.875 19.578125 -18.84375 C 20.710938 -18.625 21.484375 -18.351562 21.890625 -18.03125 Z M 21.890625 -18.03125 "/></g></g></g><g fill="#000000" fill-opacity="1"><g transform="translate(118.829713, 350.778752)"><g/></g></g><g fill="#000000" fill-opacity="1"><g transform="translate(144.133391, 353.520504)"><g><path d="M 25.078125 -11.5 C 25.035156 -10.34375 24.992188 -9.425781 24.953125 -8.75 C 24.910156 -8.070312 24.859375 -7.507812 24.796875 -7.0625 C 24.734375 -6.625 24.628906 -6.234375 24.484375 -5.890625 C 24.347656 -5.546875 24.164062 -5.125 23.9375 -4.625 C 23.125 -2.78125 21.863281 -1.363281 20.15625 -0.375 C 18.457031 0.613281 16.300781 1.097656 13.6875 1.078125 C 12.757812 1.078125 12.023438 1.070312 11.484375 1.0625 C 10.953125 1.0625 10.367188 0.960938 9.734375 0.765625 C 9.097656 0.566406 8.296875 0.222656 7.328125 -0.265625 C 6.367188 -0.753906 5.007812 -1.46875 3.25 -2.40625 C 1.875 -3.132812 1.1875 -4.0625 1.1875 -5.1875 C 1.195312 -5.875 1.4375 -6.492188 1.90625 -7.046875 C 2.375 -7.609375 2.972656 -7.925781 3.703125 -8 C 6.460938 -7.09375 8.359375 -6.15625 9.390625 -5.1875 C 10.773438 -4.5625 12.445312 -4.242188 14.40625 -4.234375 C 16.0625 -4.210938 17.394531 -4.6875 18.40625 -5.65625 C 18.5625 -6.070312 18.726562 -6.660156 18.90625 -7.421875 C 19.082031 -8.191406 19.175781 -9.117188 19.1875 -10.203125 C 19.1875 -11.046875 18.9375 -11.75 18.4375 -12.3125 C 17.945312 -12.875 17.316406 -13.367188 16.546875 -13.796875 C 15.785156 -14.222656 14.929688 -14.613281 13.984375 -14.96875 C 13.046875 -15.320312 12.15625 -15.695312 11.3125 -16.09375 C 10.65625 -16.363281 10.003906 -16.671875 9.359375 -17.015625 C 8.710938 -17.367188 8.0625 -17.820312 7.40625 -18.375 C 5.769531 -21.195312 4.957031 -23.1875 4.96875 -24.34375 C 4.988281 -27.226562 6.722656 -29.96875 10.171875 -32.5625 C 13.359375 -33.726562 15.53125 -34.3125 16.6875 -34.3125 C 17.113281 -34.300781 17.671875 -34.140625 18.359375 -33.828125 C 19.054688 -33.515625 19.738281 -33.125 20.40625 -32.65625 C 21.070312 -32.1875 21.644531 -31.671875 22.125 -31.109375 C 22.613281 -30.554688 22.851562 -30.007812 22.84375 -29.46875 C 22.84375 -28.8125 22.578125 -28.242188 22.046875 -27.765625 C 21.523438 -27.296875 20.859375 -27.0625 20.046875 -27.0625 C 19.972656 -27.0625 19.765625 -27.175781 19.421875 -27.40625 C 19.085938 -27.644531 18.675781 -27.898438 18.1875 -28.171875 C 17.707031 -28.441406 17.226562 -28.691406 16.75 -28.921875 C 16.269531 -29.160156 15.875 -29.28125 15.5625 -29.28125 C 14.90625 -29.289062 14.28125 -29.140625 13.6875 -28.828125 C 13.09375 -28.523438 12.5625 -28.144531 12.09375 -27.6875 C 11.625 -27.226562 11.25 -26.71875 10.96875 -26.15625 C 10.695312 -25.601562 10.5625 -25.097656 10.5625 -24.640625 C 10.5625 -23.753906 10.828125 -22.960938 11.359375 -22.265625 C 11.898438 -21.578125 12.550781 -21.015625 13.3125 -20.578125 L 16.953125 -19.28125 C 17.867188 -18.9375 18.765625 -18.488281 19.640625 -17.9375 C 20.523438 -17.394531 21.332031 -16.785156 22.0625 -16.109375 C 22.789062 -15.429688 23.421875 -14.691406 23.953125 -13.890625 C 24.484375 -13.097656 24.859375 -12.300781 25.078125 -11.5 Z M 25.078125 -11.5 "/></g></g></g><g fill="#000000" fill-opacity="1"><g transform="translate(175.035593, 353.632404)"><g><path d="M 23.140625 -4.765625 C 23.015625 -4.203125 22.6875 -3.628906 22.15625 -3.046875 C 21.632812 -2.460938 21.109375 -2.140625 20.578125 -2.078125 C 19.460938 -1.972656 18.648438 -2.6875 18.140625 -4.21875 C 17.640625 -5.757812 17.25 -7.960938 16.96875 -10.828125 L 16.921875 -11.34375 C 16.773438 -12.800781 16.566406 -13.859375 16.296875 -14.515625 C 16.023438 -15.171875 15.835938 -15.59375 15.734375 -15.78125 C 15.234375 -16.644531 14.539062 -17.03125 13.65625 -16.9375 C 13.125 -16.882812 12.578125 -16.726562 12.015625 -16.46875 C 11.460938 -16.207031 10.96875 -15.910156 10.53125 -15.578125 C 10.101562 -15.242188 9.738281 -14.925781 9.4375 -14.625 C 9.144531 -14.320312 8.960938 -14.109375 8.890625 -13.984375 C 8.847656 -13.703125 8.828125 -13.234375 8.828125 -12.578125 C 8.835938 -11.929688 8.863281 -11.179688 8.90625 -10.328125 C 8.945312 -9.472656 8.992188 -8.601562 9.046875 -7.71875 C 9.097656 -6.84375 9.144531 -6.039062 9.1875 -5.3125 C 9.238281 -4.582031 9.285156 -4.003906 9.328125 -3.578125 C 9.367188 -3.148438 9.410156 -2.984375 9.453125 -3.078125 C 9.429688 -2.035156 8.65625 -1.4375 7.125 -1.28125 C 5.96875 -1.164062 5.191406 -1.453125 4.796875 -2.140625 C 4.410156 -2.835938 4.128906 -4.066406 3.953125 -5.828125 C 3.910156 -6.296875 3.894531 -6.570312 3.90625 -6.65625 C 3.914062 -6.738281 3.925781 -6.921875 3.9375 -7.203125 C 3.945312 -7.492188 3.945312 -8.023438 3.9375 -8.796875 C 3.9375 -9.578125 3.90625 -10.890625 3.84375 -12.734375 C 3.8125 -13.503906 3.78125 -14.207031 3.75 -14.84375 C 3.726562 -15.476562 3.679688 -16.023438 3.609375 -16.484375 C 3.566406 -16.910156 3.53125 -17.269531 3.5 -17.5625 C 3.46875 -17.851562 3.421875 -18.085938 3.359375 -18.265625 C 3.390625 -18.378906 3.40625 -18.742188 3.40625 -19.359375 C 3.40625 -19.984375 3.394531 -20.660156 3.375 -21.390625 C 3.363281 -22.128906 3.363281 -22.828125 3.375 -23.484375 C 3.394531 -24.148438 3.425781 -24.601562 3.46875 -24.84375 C 3.394531 -25.632812 3.320312 -26.5625 3.25 -27.625 C 3.1875 -28.6875 3.226562 -29.6875 3.375 -30.625 C 3.519531 -31.5625 3.796875 -32.367188 4.203125 -33.046875 C 4.617188 -33.734375 5.269531 -34.117188 6.15625 -34.203125 C 7.644531 -34.347656 8.484375 -33.460938 8.671875 -31.546875 C 8.773438 -30.472656 8.722656 -28.921875 8.515625 -26.890625 C 8.523438 -25.859375 8.507812 -25.046875 8.46875 -24.453125 C 8.4375 -23.867188 8.398438 -23.359375 8.359375 -22.921875 C 8.328125 -22.492188 8.3125 -22.085938 8.3125 -21.703125 C 8.3125 -21.328125 8.347656 -20.789062 8.421875 -20.09375 C 9.285156 -21 10.15625 -21.5625 11.03125 -21.78125 C 11.90625 -22 12.722656 -22.148438 13.484375 -22.234375 C 15.398438 -22.421875 16.984375 -22.007812 18.234375 -21 C 19.492188 -20 20.539062 -18.25 21.375 -15.75 C 21.507812 -14.820312 21.609375 -14.101562 21.671875 -13.59375 C 21.734375 -13.082031 21.820312 -12.507812 21.9375 -11.875 C 22.0625 -11.25 22.21875 -10.398438 22.40625 -9.328125 C 22.59375 -8.265625 22.835938 -6.742188 23.140625 -4.765625 Z M 23.140625 -4.765625 "/></g></g></g><g fill="#000000" fill-opacity="1"><g transform="translate(204.159152, 350.62281)"><g><path d="M 18.09375 -5 C 17.664062 -4.570312 16.9375 -4.085938 15.90625 -3.546875 C 14.875 -3.015625 13.796875 -2.519531 12.671875 -2.0625 L 10.25 -2.078125 C 9.882812 -2.117188 9.273438 -2.269531 8.421875 -2.53125 C 7.566406 -2.789062 6.660156 -3.265625 5.703125 -3.953125 C 4.742188 -4.648438 3.828125 -5.613281 2.953125 -6.84375 C 2.085938 -8.070312 1.46875 -9.648438 1.09375 -11.578125 C 0.957031 -12.253906 0.957031 -13.085938 1.09375 -14.078125 C 1.238281 -15.066406 1.550781 -16.03125 2.03125 -16.96875 C 2.519531 -17.90625 3.1875 -18.75 4.03125 -19.5 C 4.882812 -20.257812 5.953125 -20.765625 7.234375 -21.015625 C 9.804688 -21.523438 12.296875 -21.148438 14.703125 -19.890625 C 17.003906 -17.753906 18.445312 -15.175781 19.03125 -12.15625 C 19.46875 -9.914062 19.15625 -7.53125 18.09375 -5 Z M 13.71875 -12.5 C 13.25 -13.945312 12.5625 -15.023438 11.65625 -15.734375 C 10.757812 -16.441406 9.742188 -16.6875 8.609375 -16.46875 C 7.859375 -16.320312 7.222656 -15.8125 6.703125 -14.9375 C 6.179688 -14.070312 6.0625 -12.941406 6.34375 -11.546875 C 6.445312 -10.972656 6.632812 -10.382812 6.90625 -9.78125 C 7.175781 -9.1875 7.53125 -8.671875 7.96875 -8.234375 C 8.414062 -7.796875 8.929688 -7.46875 9.515625 -7.25 C 10.109375 -7.03125 10.785156 -6.992188 11.546875 -7.140625 C 12.753906 -7.378906 13.507812 -7.910156 13.8125 -8.734375 C 14.125 -9.566406 14.175781 -10.53125 13.96875 -11.625 C 13.9375 -11.769531 13.894531 -11.90625 13.84375 -12.03125 C 13.800781 -12.164062 13.757812 -12.320312 13.71875 -12.5 Z M 13.71875 -12.5 "/></g></g></g><g fill="#000000" fill-opacity="1"><g transform="translate(229.187388, 345.72638)"><g><path d="M 19.359375 -18.046875 L 19.453125 -17.71875 C 19.597656 -17.101562 19.703125 -16.503906 19.765625 -15.921875 C 19.835938 -15.347656 19.828125 -14.75 19.734375 -14.125 L 19.328125 -11.421875 C 19.148438 -10.921875 18.816406 -10.335938 18.328125 -9.671875 C 17.835938 -9.003906 17.285156 -8.359375 16.671875 -7.734375 C 16.054688 -7.117188 15.421875 -6.5625 14.765625 -6.0625 C 14.109375 -5.570312 13.539062 -5.257812 13.0625 -5.125 L 12.5 -4.953125 C 12.320312 -4.898438 12.082031 -4.796875 11.78125 -4.640625 C 11.476562 -4.492188 11.179688 -4.335938 10.890625 -4.171875 C 10.597656 -4.015625 10.335938 -3.859375 10.109375 -3.703125 C 9.878906 -3.546875 9.703125 -3.453125 9.578125 -3.421875 C 9.734375 -2.878906 9.832031 -2.507812 9.875 -2.3125 C 9.925781 -2.125 9.992188 -1.847656 10.078125 -1.484375 C 10.160156 -1.128906 10.304688 -0.546875 10.515625 0.265625 C 10.734375 1.078125 11.117188 2.410156 11.671875 4.265625 C 11.816406 4.785156 11.9375 5.410156 12.03125 6.140625 C 12.132812 6.878906 12.238281 7.753906 12.34375 8.765625 C 11.988281 9.304688 11.421875 9.691406 10.640625 9.921875 C 9.898438 10.140625 9.296875 10.140625 8.828125 9.921875 C 8.359375 9.703125 7.988281 9.367188 7.71875 8.921875 C 7.445312 8.472656 7.253906 8.015625 7.140625 7.546875 C 7.023438 7.085938 6.921875 6.707031 6.828125 6.40625 C 6.617188 5.707031 6.488281 5.132812 6.4375 4.6875 C 6.382812 4.238281 6.25 3.644531 6.03125 2.90625 C 5.914062 2.507812 5.78125 2.082031 5.625 1.625 C 5.46875 1.164062 5.304688 0.660156 5.140625 0.109375 C 4.890625 -0.742188 4.679688 -1.546875 4.515625 -2.296875 C 4.359375 -3.054688 4.21875 -3.796875 4.09375 -4.515625 C 3.726562 -5.210938 3.28125 -6.460938 2.75 -8.265625 C 2.257812 -9.898438 1.953125 -11.253906 1.828125 -12.328125 C 1.265625 -13.460938 0.8125 -14.445312 0.46875 -15.28125 C 0.125 -16.125 -0.125 -16.800781 -0.28125 -17.3125 C -0.53125 -18.164062 -0.507812 -18.851562 -0.21875 -19.375 C 0.0625 -19.90625 0.679688 -20.3125 1.640625 -20.59375 C 2.304688 -20.789062 2.859375 -20.816406 3.296875 -20.671875 L 4.0625 -20.15625 C 4.601562 -20.71875 5.316406 -21.257812 6.203125 -21.78125 C 7.097656 -22.3125 8.082031 -22.734375 9.15625 -23.046875 C 11.675781 -23.785156 13.800781 -23.757812 15.53125 -22.96875 C 17.269531 -22.175781 18.546875 -20.535156 19.359375 -18.046875 Z M 14.625 -15.140625 C 14.5625 -15.753906 14.472656 -16.269531 14.359375 -16.6875 C 14.160156 -17.351562 13.757812 -17.847656 13.15625 -18.171875 C 12.5625 -18.492188 11.78125 -18.515625 10.8125 -18.234375 L 10.265625 -18.078125 C 9.523438 -17.859375 9.035156 -17.75 8.796875 -17.75 C 7.910156 -17.363281 7.054688 -16.515625 6.234375 -15.203125 C 6.253906 -15.128906 6.335938 -14.910156 6.484375 -14.546875 C 6.628906 -14.191406 6.800781 -13.6875 7 -13.03125 C 7.25 -12.175781 7.40625 -11.4375 7.46875 -10.8125 C 7.53125 -10.1875 7.632812 -9.632812 7.78125 -9.15625 C 7.832031 -8.976562 7.890625 -8.773438 7.953125 -8.546875 C 8.015625 -8.328125 8.097656 -8.234375 8.203125 -8.265625 C 8.316406 -8.296875 8.507812 -8.382812 8.78125 -8.53125 C 9.0625 -8.675781 9.335938 -8.835938 9.609375 -9.015625 C 9.890625 -9.191406 10.160156 -9.347656 10.421875 -9.484375 C 10.679688 -9.617188 10.84375 -9.695312 10.90625 -9.71875 C 11.144531 -9.789062 11.398438 -9.925781 11.671875 -10.125 C 11.953125 -10.320312 12.226562 -10.523438 12.5 -10.734375 C 12.78125 -10.941406 13.023438 -11.132812 13.234375 -11.3125 C 13.441406 -11.5 13.601562 -11.609375 13.71875 -11.640625 C 14.394531 -12.597656 14.695312 -13.765625 14.625 -15.140625 Z M 14.625 -15.140625 "/></g></g></g><g fill="#000000" fill-opacity="1"><g transform="translate(255.991855, 337.708169)"><g/></g></g></svg>